<?xml version="1.0" standalone="no"?>
<!DOCTYPE svg PUBLIC "-//W3C//DTD SVG 1.1//EN" "http://www.w3.org/Graphics/SVG/1.1/DTD/svg11.dtd" >
<svg>
<metadata>
Created by FontForge 20090622 at Mon Dec 11 10:23:52 2017
 By deploy user
Copyright 2011 The Quicksand Project Authors (https://github.com/andrew-paglinawan/QuicksandFamily), with Reserved Font Name &#226;&#128;&#156;Quicksand&#226;&#128;&#157;.
</metadata>
<defs>
<font id="Quicksand-Regular" horiz-adv-x="0" >
  <font-face 
    font-family="Quicksand"
    font-weight="400"
    font-stretch="normal"
    units-per-em="1000"
    panose-1="0 0 5 0 0 0 0 0 0 0"
    ascent="800"
    descent="-200"
    x-height="508"
    cap-height="700"
    bbox="-377 -216 1317 1133"
    underline-thickness="50"
    underline-position="-50"
    unicode-range="U+000D-U+FB02"
  />
<missing-glyph horiz-adv-x="584" 
d="M75 700h434q35 0 35 -35v-630q0 -35 -35 -35h-434q-35 0 -35 35v630q0 35 35 35zM91 668q-1 -2 1 -4l416 -599q2 -3 4 -2.5t2 4.5v598q0 5 -5 5h-414q-3 0 -4 -2zM75 30h413q3 0 4 2t-1 4l-415 599q-2 3 -4 2.5t-2 -4.5v-598q0 -5 5 -5z" />
    <glyph glyph-name="f_f" unicode="ff" horiz-adv-x="706" 
d="M207.5 662q-17.5 -21 -17.5 -58v-103h112q11 0 19.5 -8t8.5 -20t-8.5 -20t-19.5 -8h-112v-415q0 -13 -8.5 -21.5t-21.5 -8.5t-21.5 8.5t-8.5 21.5v415h-73q-12 0 -20 8.5t-8 19.5q0 13 8 20.5t20 7.5h73v103q0 63 36.5 97.5t97.5 34.5q28 0 52 -8.5t24 -27.5
q0 -12 -8 -20t-18 -8q-9 0 -22 5q-22 6 -35 6q-32 0 -49.5 -21zM560.5 662q-17.5 -21 -17.5 -58v-103h112q11 0 19.5 -8t8.5 -20t-8.5 -20t-19.5 -8h-112v-415q0 -13 -8.5 -21.5t-21.5 -8.5t-21.5 8.5t-8.5 21.5v415h-73q-12 0 -20 8.5t-8 19.5q0 13 8 20.5t20 7.5h73v103
q0 63 36.5 97.5t97.5 34.5q28 0 52 -8.5t24 -27.5q0 -12 -8 -20t-18 -8q-9 0 -22 5q-22 6 -35 6q-32 0 -49.5 -21z" />
    <glyph glyph-name="f_f_i" unicode="ffi" horiz-adv-x="920" 
d="M207.5 662q-17.5 -21 -17.5 -58v-103h112q11 0 19.5 -8t8.5 -20t-8.5 -20t-19.5 -8h-112v-415q0 -13 -8.5 -21.5t-21.5 -8.5t-21.5 8.5t-8.5 21.5v415h-73q-12 0 -20 8.5t-8 19.5q0 13 8 20.5t20 7.5h73v103q0 63 36.5 97.5t97.5 34.5q28 0 52 -8.5t24 -27.5
q0 -12 -8 -20t-18 -8q-9 0 -22 5q-22 6 -35 6q-32 0 -49.5 -21zM560.5 662q-17.5 -21 -17.5 -58v-103h112q11 0 19.5 -8t8.5 -20t-8.5 -20t-19.5 -8h-112v-415q0 -13 -8.5 -21.5t-21.5 -8.5t-21.5 8.5t-8.5 21.5v415h-73q-12 0 -20 8.5t-8 19.5q0 13 8 20.5t20 7.5h73v103
q0 63 36.5 97.5t97.5 34.5q28 0 52 -8.5t24 -27.5q0 -12 -8 -20t-18 -8q-9 0 -22 5q-22 6 -35 6q-32 0 -49.5 -21zM834.5 8.5q-8.5 -8.5 -21.5 -8.5t-21.5 8.5t-8.5 21.5v460q0 13 8.5 21.5t21.5 8.5t21.5 -8.5t8.5 -21.5v-460q0 -13 -8.5 -21.5zM782 596.5
q-11 9.5 -11 27.5v10q0 18 11.5 27.5t31.5 9.5q40 0 40 -37v-10q0 -18 -10.5 -27.5t-30.5 -9.5t-31 9.5z" />
    <glyph glyph-name="f_f_l" unicode="ffl" horiz-adv-x="936" 
d="M207.5 662q-17.5 -21 -17.5 -58v-103h112q11 0 19.5 -8t8.5 -20t-8.5 -20t-19.5 -8h-112v-415q0 -13 -8.5 -21.5t-21.5 -8.5t-21.5 8.5t-8.5 21.5v415h-73q-12 0 -20 8.5t-8 19.5q0 13 8 20.5t20 7.5h73v103q0 63 36.5 97.5t97.5 34.5q28 0 52 -8.5t24 -27.5
q0 -12 -8 -20t-18 -8q-9 0 -22 5q-22 6 -35 6q-32 0 -49.5 -21zM560.5 662q-17.5 -21 -17.5 -58v-103h112q11 0 19.5 -8t8.5 -20t-8.5 -20t-19.5 -8h-112v-415q0 -13 -8.5 -21.5t-21.5 -8.5t-21.5 8.5t-8.5 21.5v415h-73q-12 0 -20 8.5t-8 19.5q0 13 8 20.5t20 7.5h73v103
q0 63 36.5 97.5t97.5 34.5q28 0 52 -8.5t24 -27.5q0 -12 -8 -20t-18 -8q-9 0 -22 5q-22 6 -35 6q-32 0 -49.5 -21zM842.5 8.5q-8.5 -8.5 -21.5 -8.5t-21.5 8.5t-8.5 21.5v680q0 13 8.5 21.5t21.5 8.5t21.5 -8.5t8.5 -21.5v-680q0 -13 -8.5 -21.5z" />
    <glyph glyph-name="fi" unicode="fi" horiz-adv-x="567" 
d="M207.5 662q-17.5 -21 -17.5 -58v-103h112q11 0 19.5 -8t8.5 -20t-8.5 -20t-19.5 -8h-112v-415q0 -13 -8.5 -21.5t-21.5 -8.5t-21.5 8.5t-8.5 21.5v415h-73q-12 0 -20 8.5t-8 19.5q0 13 8 20.5t20 7.5h73v103q0 63 36.5 97.5t97.5 34.5q28 0 52 -8.5t24 -27.5
q0 -12 -8 -20t-18 -8q-9 0 -22 5q-22 6 -35 6q-32 0 -49.5 -21zM481.5 8.5q-8.5 -8.5 -21.5 -8.5t-21.5 8.5t-8.5 21.5v460q0 13 8.5 21.5t21.5 8.5t21.5 -8.5t8.5 -21.5v-460q0 -13 -8.5 -21.5zM429 596.5q-11 9.5 -11 27.5v10q0 18 11.5 27.5t31.5 9.5q40 0 40 -37v-10
q0 -18 -10.5 -27.5t-30.5 -9.5t-31 9.5z" />
    <glyph glyph-name="fl" unicode="fl" horiz-adv-x="583" 
d="M207.5 662q-17.5 -21 -17.5 -58v-103h112q11 0 19.5 -8t8.5 -20t-8.5 -20t-19.5 -8h-112v-415q0 -13 -8.5 -21.5t-21.5 -8.5t-21.5 8.5t-8.5 21.5v415h-73q-12 0 -20 8.5t-8 19.5q0 13 8 20.5t20 7.5h73v103q0 63 36.5 97.5t97.5 34.5q28 0 52 -8.5t24 -27.5
q0 -12 -8 -20t-18 -8q-9 0 -22 5q-22 6 -35 6q-32 0 -49.5 -21zM489.5 8.5q-8.5 -8.5 -21.5 -8.5t-21.5 8.5t-8.5 21.5v680q0 13 8.5 21.5t21.5 8.5t21.5 -8.5t8.5 -21.5v-680q0 -13 -8.5 -21.5z" />
    <glyph glyph-name=".notdef" horiz-adv-x="584" 
d="M75 700h434q35 0 35 -35v-630q0 -35 -35 -35h-434q-35 0 -35 35v630q0 35 35 35zM91 668q-1 -2 1 -4l416 -599q2 -3 4 -2.5t2 4.5v598q0 5 -5 5h-414q-3 0 -4 -2zM75 30h413q3 0 4 2t-1 4l-415 599q-2 3 -4 2.5t-2 -4.5v-598q0 -5 5 -5z" />
    <glyph glyph-name="NULL" 
 />
    <glyph glyph-name="NULL" 
 />
    <glyph glyph-name="nonmarkingreturn" unicode="&#xd;" horiz-adv-x="273" 
 />
    <glyph glyph-name="space" unicode=" " horiz-adv-x="273" 
 />
    <glyph glyph-name="A" unicode="A" horiz-adv-x="647" 
d="M618 28q0 -13 -9 -21t-21 -8q-10 0 -17.5 5.5t-11.5 14.5l-75 183h-325l-74 -183q-8 -20 -27 -20q-14 0 -21 7t-8 19v3q0 6 1 9l264 646q8 20 30 20q10 0 17.5 -5.5t11.5 -14.5l263 -643q2 -8 2 -12zM182 261h278l-140 342z" />
    <glyph glyph-name="Aacute" unicode="&#xc1;" horiz-adv-x="647" 
d="M618 28q0 -13 -9 -21t-21 -8q-10 0 -17.5 5.5t-11.5 14.5l-75 183h-325l-74 -183q-8 -20 -27 -20q-14 0 -21 7t-8 19v3q0 6 1 9l264 646q8 20 30 20q10 0 17.5 -5.5t11.5 -14.5l263 -643q2 -8 2 -12zM182 261h278l-140 342zM313 751q-5 5 -5 13t10 18l89 69q13 11 29 11
q13 0 21.5 -8.5t8.5 -21.5q0 -20 -19 -31l-98 -49q-14 -6 -22 -6q-9 0 -14 5z" />
    <glyph glyph-name="Abreve" unicode="&#x102;" horiz-adv-x="647" 
d="M618 28q0 -13 -9 -21t-21 -8q-10 0 -17.5 5.5t-11.5 14.5l-75 183h-325l-74 -183q-8 -20 -27 -20q-14 0 -21 7t-8 19v3q0 6 1 9l264 646q8 20 30 20q10 0 17.5 -5.5t11.5 -14.5l263 -643q2 -8 2 -12zM182 261h278l-140 342zM236.5 800.5q-35.5 26.5 -49.5 74.5
q-2 8 -2 11q0 9 5.5 14t15.5 5q11 0 16.5 -4.5t13.5 -17.5q26 -58 88 -58q63 0 88 58q5 11 12 16t18 5q21 0 21 -17q0 -4 -2 -12q-14 -48 -49.5 -74.5t-87.5 -26.5t-87.5 26.5z" />
    <glyph glyph-name="uni1EAE" unicode="&#x1eae;" horiz-adv-x="647" 
d="M618 28q0 -13 -9 -21t-21 -8q-10 0 -17.5 5.5t-11.5 14.5l-75 183h-325l-74 -183q-8 -20 -27 -20q-14 0 -21 7t-8 19v3q0 6 1 9l264 646q8 20 30 20q10 0 17.5 -5.5t11.5 -14.5l263 -643q2 -8 2 -12zM182 261h278l-140 342zM236.5 800.5q-35.5 26.5 -49.5 74.5
q-2 8 -2 11q0 9 5.5 14t15.5 5q11 0 16.5 -4.5t13.5 -17.5q26 -58 88 -58q63 0 88 58q5 11 12 16t18 5q21 0 21 -17q0 -4 -2 -12q-14 -48 -49.5 -74.5t-87.5 -26.5t-87.5 26.5zM313 950q-5 5 -5 13t10 18l89 69q13 11 29 11q13 0 21.5 -8.5t8.5 -21.5q0 -20 -19 -31l-98 -49
q-14 -6 -22 -6q-9 0 -14 5z" />
    <glyph glyph-name="uni1EB6" unicode="&#x1eb6;" horiz-adv-x="647" 
d="M618 28q0 -13 -9 -21t-21 -8q-10 0 -17.5 5.5t-11.5 14.5l-75 183h-325l-74 -183q-8 -20 -27 -20q-14 0 -21 7t-8 19v3q0 6 1 9l264 646q8 20 30 20q10 0 17.5 -5.5t11.5 -14.5l263 -643q2 -8 2 -12zM182 261h278l-140 342zM293 -129.5q-11 10.5 -11 29.5v11
q0 18 11.5 28.5t30.5 10.5q41 0 41 -39v-11q0 -19 -10.5 -29.5t-30.5 -10.5t-31 10.5zM236.5 800.5q-35.5 26.5 -49.5 74.5q-2 8 -2 11q0 9 5.5 14t15.5 5q11 0 16.5 -4.5t13.5 -17.5q26 -58 88 -58q63 0 88 58q5 11 12 16t18 5q21 0 21 -17q0 -4 -2 -12
q-14 -48 -49.5 -74.5t-87.5 -26.5t-87.5 26.5z" />
    <glyph glyph-name="uni1EB0" unicode="&#x1eb0;" horiz-adv-x="647" 
d="M618 28q0 -13 -9 -21t-21 -8q-10 0 -17.5 5.5t-11.5 14.5l-75 183h-325l-74 -183q-8 -20 -27 -20q-14 0 -21 7t-8 19v3q0 6 1 9l264 646q8 20 30 20q10 0 17.5 -5.5t11.5 -14.5l263 -643q2 -8 2 -12zM182 261h278l-140 342zM236.5 800.5q-35.5 26.5 -49.5 74.5
q-2 8 -2 11q0 9 5.5 14t15.5 5q11 0 16.5 -4.5t13.5 -17.5q26 -58 88 -58q63 0 88 58q5 11 12 16t18 5q21 0 21 -17q0 -4 -2 -12q-14 -48 -49.5 -74.5t-87.5 -26.5t-87.5 26.5zM302 952l-97 49q-20 11 -20 31q0 13 8.5 21.5t21.5 8.5q16 0 29 -11l89 -69q10 -10 10 -18
t-5 -13t-14 -5q-8 0 -22 6z" />
    <glyph glyph-name="uni1EB2" unicode="&#x1eb2;" horiz-adv-x="647" 
d="M618 28q0 -13 -9 -21t-21 -8q-10 0 -17.5 5.5t-11.5 14.5l-75 183h-325l-74 -183q-8 -20 -27 -20q-14 0 -21 7t-8 19v3q0 6 1 9l264 646q8 20 30 20q10 0 17.5 -5.5t11.5 -14.5l263 -643q2 -8 2 -12zM182 261h278l-140 342zM236.5 800.5q-35.5 26.5 -49.5 74.5
q-2 8 -2 11q0 9 5.5 14t15.5 5q11 0 16.5 -4.5t13.5 -17.5q26 -58 88 -58q63 0 88 58q5 11 12 16t18 5q21 0 21 -17q0 -4 -2 -12q-14 -48 -49.5 -74.5t-87.5 -26.5t-87.5 26.5zM321 1133q43 0 62.5 -23t19.5 -51q0 -16 -8.5 -29.5t-25.5 -30.5q-12 -14 -12 -27q-1 -8 -7 -12
t-16 -4q-8 0 -13.5 5t-5.5 12q0 24 14 40q17 18 23 26t6 19q0 13 -10.5 21.5t-25.5 8.5q-22 0 -46 -18q-8 -8 -17 -8q-8 0 -16 8q-5 7 -5 14q0 9 9 18q33 31 74 31z" />
    <glyph glyph-name="uni1EB4" unicode="&#x1eb4;" horiz-adv-x="647" 
d="M618 28q0 -13 -9 -21t-21 -8q-10 0 -17.5 5.5t-11.5 14.5l-75 183h-325l-74 -183q-8 -20 -27 -20q-14 0 -21 7t-8 19v3q0 6 1 9l264 646q8 20 30 20q10 0 17.5 -5.5t11.5 -14.5l263 -643q2 -8 2 -12zM182 261h278l-140 342zM236.5 800.5q-35.5 26.5 -49.5 74.5
q-2 8 -2 11q0 9 5.5 14t15.5 5q11 0 16.5 -4.5t13.5 -17.5q26 -58 88 -58q63 0 88 58q5 11 12 16t18 5q21 0 21 -17q0 -4 -2 -12q-14 -48 -49.5 -74.5t-87.5 -26.5t-87.5 26.5zM177.5 978q-6.5 8 -6.5 24q0 8 1 12q7 31 31 49t56 18q18 0 37.5 -8.5t44.5 -24.5
q22 -13 34.5 -19t22.5 -6q14 0 22.5 10.5t10.5 28.5q-1 11 5 18.5t17 7.5q12 0 18.5 -8.5t6.5 -23.5l-1 -11q-6 -33 -27.5 -52t-53.5 -19q-28 0 -80 32q-23 13 -36 19t-24 6q-14 0 -24.5 -9.5t-14.5 -29.5q0 -11 -6.5 -16.5t-15.5 -5.5q-11 0 -17.5 8z" />
    <glyph glyph-name="uni01CD" unicode="&#x1cd;" horiz-adv-x="647" 
d="M618 28q0 -13 -9 -21t-21 -8q-10 0 -17.5 5.5t-11.5 14.5l-75 183h-325l-74 -183q-8 -20 -27 -20q-14 0 -21 7t-8 19v3q0 6 1 9l264 646q8 20 30 20q10 0 17.5 -5.5t11.5 -14.5l263 -643q2 -8 2 -12zM182 261h278l-140 342zM442 880.5q5 -4.5 5 -10.5q0 -8 -8 -17
l-77 -82q-11 -17 -33 -17h-11q-21 0 -34 17l-76 81q-8 9 -8 17q0 6 4.5 10.5t11.5 4.5q12 0 27 -12l83 -62l77 62q16 13 27 13q7 0 12 -4.5z" />
    <glyph glyph-name="Acircumflex" unicode="&#xc2;" horiz-adv-x="647" 
d="M618 28q0 -13 -9 -21t-21 -8q-10 0 -17.5 5.5t-11.5 14.5l-75 183h-325l-74 -183q-8 -20 -27 -20q-14 0 -21 7t-8 19v3q0 6 1 9l264 646q8 20 30 20q10 0 17.5 -5.5t11.5 -14.5l263 -643q2 -8 2 -12zM182 261h278l-140 342zM446 777q0 -5 -5 -10t-11 -5q-11 0 -27 13
l-83 60l-77 -61q-18 -13 -27 -13q-7 0 -12 4.5t-5 10.5q0 8 8 17l77 82q8 9 15 13t18 4h11q11 0 18 -4t16 -13l76 -81q8 -9 8 -17z" />
    <glyph glyph-name="uni1EA4" unicode="&#x1ea4;" horiz-adv-x="647" 
d="M618 28q0 -13 -9 -21t-21 -8q-10 0 -17.5 5.5t-11.5 14.5l-75 183h-325l-74 -183q-8 -20 -27 -20q-14 0 -21 7t-8 19v3q0 6 1 9l264 646q8 20 30 20q10 0 17.5 -5.5t11.5 -14.5l263 -643q2 -8 2 -12zM182 261h278l-140 342zM446 777q0 -5 -5 -10t-11 -5q-11 0 -27 13
l-83 60l-77 -61q-18 -13 -27 -13q-7 0 -12 4.5t-5 10.5q0 8 8 17l77 82q8 9 15 13t18 4h11q11 0 18 -4t16 -13l76 -81q8 -9 8 -17zM442 832q-5 5 -5 13t10 18l89 69q13 11 29 11q13 0 21.5 -8.5t8.5 -21.5q0 -20 -19 -31l-98 -49q-14 -6 -22 -6q-9 0 -14 5z" />
    <glyph glyph-name="uni1EAC" unicode="&#x1eac;" horiz-adv-x="647" 
d="M618 28q0 -13 -9 -21t-21 -8q-10 0 -17.5 5.5t-11.5 14.5l-75 183h-325l-74 -183q-8 -20 -27 -20q-14 0 -21 7t-8 19v3q0 6 1 9l264 646q8 20 30 20q10 0 17.5 -5.5t11.5 -14.5l263 -643q2 -8 2 -12zM182 261h278l-140 342zM293 -129.5q-11 10.5 -11 29.5v11
q0 18 11.5 28.5t30.5 10.5q41 0 41 -39v-11q0 -19 -10.5 -29.5t-30.5 -10.5t-31 10.5zM446 777q0 -5 -5 -10t-11 -5q-11 0 -27 13l-83 60l-77 -61q-18 -13 -27 -13q-7 0 -12 4.5t-5 10.5q0 8 8 17l77 82q8 9 15 13t18 4h11q11 0 18 -4t16 -13l76 -81q8 -9 8 -17z" />
    <glyph glyph-name="uni1EA6" unicode="&#x1ea6;" horiz-adv-x="647" 
d="M618 28q0 -13 -9 -21t-21 -8q-10 0 -17.5 5.5t-11.5 14.5l-75 183h-325l-74 -183q-8 -20 -27 -20q-14 0 -21 7t-8 19v3q0 6 1 9l264 646q8 20 30 20q10 0 17.5 -5.5t11.5 -14.5l263 -643q2 -8 2 -12zM182 261h278l-140 342zM446 777q0 -5 -5 -10t-11 -5q-11 0 -27 13
l-83 60l-77 -61q-18 -13 -27 -13q-7 0 -12 4.5t-5 10.5q0 8 8 17l77 82q8 9 15 13t18 4h11q11 0 18 -4t16 -13l76 -81q8 -9 8 -17zM423 880l-97 49q-20 11 -20 31q0 13 8.5 21.5t21.5 8.5q16 0 29 -11l89 -69q10 -10 10 -18t-5 -13t-14 -5q-8 0 -22 6z" />
    <glyph glyph-name="uni1EA8" unicode="&#x1ea8;" horiz-adv-x="647" 
d="M618 28q0 -13 -9 -21t-21 -8q-10 0 -17.5 5.5t-11.5 14.5l-75 183h-325l-74 -183q-8 -20 -27 -20q-14 0 -21 7t-8 19v3q0 6 1 9l264 646q8 20 30 20q10 0 17.5 -5.5t11.5 -14.5l263 -643q2 -8 2 -12zM182 261h278l-140 342zM446 777q0 -5 -5 -10t-11 -5q-11 0 -27 13
l-83 60l-77 -61q-18 -13 -27 -13q-7 0 -12 4.5t-5 10.5q0 8 8 17l77 82q8 9 15 13t18 4h11q11 0 18 -4t16 -13l76 -81q8 -9 8 -17zM475 982q43 0 62.5 -23t19.5 -51q0 -16 -8.5 -29.5t-25.5 -30.5q-12 -14 -12 -27q-1 -8 -7 -12t-16 -4q-8 0 -13.5 5t-5.5 12q0 24 14 40
q17 18 23 26t6 19q0 13 -10.5 21.5t-25.5 8.5q-22 0 -46 -18q-8 -8 -17 -8q-8 0 -16 8q-5 7 -5 14q0 9 9 18q33 31 74 31z" />
    <glyph glyph-name="uni1EAA" unicode="&#x1eaa;" horiz-adv-x="647" 
d="M177.5 875q-6.5 8 -6.5 24q0 8 1 12q7 31 31 49t56 18q18 0 37.5 -8.5t44.5 -24.5q22 -13 34.5 -19t22.5 -6q14 0 22.5 10.5t10.5 28.5q-1 11 5 18.5t17 7.5q12 0 18.5 -8.5t6.5 -23.5l-1 -11q-6 -33 -27.5 -52t-53.5 -19q-19 0 -41 11l7 -7l76 -81q8 -9 8 -17
q0 -5 -4.5 -10t-11.5 -5q-11 0 -27 13l-83 60l-77 -61q-18 -13 -27 -13q-7 0 -12 4.5t-5 10.5q0 8 8 17l77 82q8 9 15 13t18 4h11q6 0 8 -1q-9 5 -26.5 15.5t-30.5 16t-23 5.5q-14 0 -24.5 -9.5t-14.5 -29.5q0 -11 -6.5 -16.5t-15.5 -5.5q-11 0 -17.5 8zM618 28
q0 -13 -9 -21t-21 -8q-10 0 -17.5 5.5t-11.5 14.5l-75 183h-325l-74 -183q-8 -20 -27 -20q-14 0 -21 7t-8 19v3q0 6 1 9l264 646q8 20 30 20q10 0 17.5 -5.5t11.5 -14.5l263 -643q2 -8 2 -12zM182 261h278l-140 342z" />
    <glyph glyph-name="uni0200" unicode="&#x200;" horiz-adv-x="647" 
d="M618 28q0 -13 -9 -21t-21 -8q-10 0 -17.5 5.5t-11.5 14.5l-75 183h-325l-74 -183q-8 -20 -27 -20q-14 0 -21 7t-8 19v3q0 6 1 9l264 646q8 20 30 20q10 0 17.5 -5.5t11.5 -14.5l263 -643q2 -8 2 -12zM182 261h278l-140 342zM261.5 758q-6.5 3 -8.5 4l-97 48
q-20 11 -20 32q0 12 8.5 21t21.5 9q15 0 29 -12l89 -69q10 -8 10 -18q0 -7 -5 -12.5t-14 -5.5q-7 0 -13.5 3zM421 761l-98 49q-19 11 -19 31q0 13 8.5 21.5t21.5 8.5q16 0 29 -11l89 -69q10 -10 10 -18t-5 -13t-14 -5q-8 0 -22 6z" />
    <glyph glyph-name="Adieresis" unicode="&#xc4;" horiz-adv-x="647" 
d="M618 28q0 -13 -9 -21t-21 -8q-10 0 -17.5 5.5t-11.5 14.5l-75 183h-325l-74 -183q-8 -20 -27 -20q-14 0 -21 7t-8 19v3q0 6 1 9l264 646q8 20 30 20q10 0 17.5 -5.5t11.5 -14.5l263 -643q2 -8 2 -12zM182 261h278l-140 342zM208 785.5q-11 10.5 -11 29.5v10
q0 19 11.5 29.5t30.5 10.5t30 -10.5t11 -29.5v-10q0 -19 -11 -29.5t-31 -10.5q-19 0 -30 10.5zM380 785.5q-11 10.5 -11 29.5v10q0 19 11 29.5t31 10.5q19 0 30 -10.5t11 -29.5v-10q0 -19 -11 -29.5t-31 -10.5q-19 0 -30 10.5z" />
    <glyph glyph-name="uni1EA0" unicode="&#x1ea0;" horiz-adv-x="647" 
d="M618 28q0 -13 -9 -21t-21 -8q-10 0 -17.5 5.5t-11.5 14.5l-75 183h-325l-74 -183q-8 -20 -27 -20q-14 0 -21 7t-8 19v3q0 6 1 9l264 646q8 20 30 20q10 0 17.5 -5.5t11.5 -14.5l263 -643q2 -8 2 -12zM182 261h278l-140 342zM293 -129.5q-11 10.5 -11 29.5v11
q0 18 11.5 28.5t30.5 10.5q41 0 41 -39v-11q0 -19 -10.5 -29.5t-30.5 -10.5t-31 10.5z" />
    <glyph glyph-name="Agrave" unicode="&#xc0;" horiz-adv-x="647" 
d="M618 28q0 -13 -9 -21t-21 -8q-10 0 -17.5 5.5t-11.5 14.5l-75 183h-325l-74 -183q-8 -20 -27 -20q-14 0 -21 7t-8 19v3q0 6 1 9l264 646q8 20 30 20q10 0 17.5 -5.5t11.5 -14.5l263 -643q2 -8 2 -12zM182 261h278l-140 342zM302 753l-97 49q-20 11 -20 31q0 13 8.5 21.5
t21.5 8.5q16 0 29 -11l89 -69q10 -10 10 -18t-5 -13t-14 -5q-8 0 -22 6z" />
    <glyph glyph-name="uni1EA2" unicode="&#x1ea2;" horiz-adv-x="647" 
d="M618 28q0 -13 -9 -21t-21 -8q-10 0 -17.5 5.5t-11.5 14.5l-75 183h-325l-74 -183q-8 -20 -27 -20q-14 0 -21 7t-8 19v3q0 6 1 9l264 646q8 20 30 20q10 0 17.5 -5.5t11.5 -14.5l263 -643q2 -8 2 -12zM182 261h278l-140 342zM321 934q43 0 62.5 -23t19.5 -51
q0 -16 -8.5 -29.5t-25.5 -30.5q-12 -14 -12 -27q-1 -8 -7 -12t-16 -4q-8 0 -13.5 5t-5.5 12q0 24 14 40q17 18 23 26t6 19q0 13 -10.5 21.5t-25.5 8.5q-22 0 -46 -18q-8 -8 -17 -8q-8 0 -16 8q-5 7 -5 14q0 9 9 18q33 31 74 31z" />
    <glyph glyph-name="uni0202" unicode="&#x202;" horiz-adv-x="647" 
d="M618 28q0 -13 -9 -21t-21 -8q-10 0 -17.5 5.5t-11.5 14.5l-75 183h-325l-74 -183q-8 -20 -27 -20q-14 0 -21 7t-8 19v3q0 6 1 9l264 646q8 20 30 20q10 0 17.5 -5.5t11.5 -14.5l263 -643q2 -8 2 -12zM182 261h278l-140 342zM411 836.5q37 -28.5 42 -69.5q2 -11 -4.5 -19
t-17.5 -8t-18 6t-12 18q-7 24 -28 37.5t-50 13.5q-30 0 -51 -13.5t-27 -37.5q-5 -12 -12 -18t-19 -6q-11 0 -17.5 7.5t-4.5 18.5q5 42 42 70.5t89 28.5q51 0 88 -28.5z" />
    <glyph glyph-name="Amacron" unicode="&#x100;" horiz-adv-x="647" 
d="M618 28q0 -13 -9 -21t-21 -8q-10 0 -17.5 5.5t-11.5 14.5l-75 183h-325l-74 -183q-8 -20 -27 -20q-14 0 -21 7t-8 19v3q0 6 1 9l264 646q8 20 30 20q10 0 17.5 -5.5t11.5 -14.5l263 -643q2 -8 2 -12zM182 261h278l-140 342zM171 813q0 26 29 26h255q29 0 29 -26
q0 -25 -29 -25h-255q-29 0 -29 25z" />
    <glyph glyph-name="Aogonek" unicode="&#x104;" horiz-adv-x="648" 
d="M638.5 -119q6.5 -6 6.5 -16q0 -22 -25.5 -39t-57.5 -17q-39 0 -67.5 26.5t-28.5 69.5q0 44 26 74t64 47l-72 176h-325l-74 -183q-8 -20 -27 -20q-27 0 -29 25v3q0 3 2 11l263 645q8 20 30 20q10 0 17.5 -5.5t11.5 -14.5l266 -650q2 -6 2 -11q0 -17 -22 -23
q-32 -7 -55.5 -31t-23.5 -52q0 -26 14.5 -41t33.5 -15q21 0 30 12q9 15 24 15q10 0 16.5 -6zM182 261h278l-140 342z" />
    <glyph glyph-name="Aring" unicode="&#xc5;" horiz-adv-x="648" 
d="M618 28q0 -13 -9 -21t-21 -8q-10 0 -17.5 5.5t-11.5 14.5l-75 183h-325l-74 -183q-8 -20 -27 -20q-14 0 -21 7t-8 19v3q0 6 1 9l258 632q-29 11 -47.5 35.5t-18.5 55.5q0 40 30.5 69t71.5 29t71.5 -29t30.5 -69q0 -31 -19 -56t-48 -36l257 -628q2 -8 2 -12zM284 720.5
q17 -16.5 40 -16.5q24 0 41 16.5t17 39.5q0 24 -17 40.5t-41 16.5q-23 0 -40 -16.5t-17 -40.5q0 -23 17 -39.5zM182 261h278l-140 342z" />
    <glyph glyph-name="Aringacute" unicode="&#x1fa;" horiz-adv-x="648" 
d="M618 28q0 -13 -9 -21t-21 -8q-10 0 -17.5 5.5t-11.5 14.5l-75 183h-325l-74 -183q-8 -20 -27 -20q-14 0 -21 7t-8 19v3q0 6 1 9l258 632q-29 11 -47.5 35.5t-18.5 55.5q0 40 30.5 69t71.5 29t71.5 -29t30.5 -69q0 -31 -19 -56t-48 -36l257 -628q2 -8 2 -12zM284 720.5
q17 -16.5 40 -16.5q24 0 41 16.5t17 39.5q0 24 -17 40.5t-41 16.5q-23 0 -40 -16.5t-17 -40.5q0 -23 17 -39.5zM182 261h278l-140 342zM313 908q-5 5 -5 13t10 18l89 69q13 11 29 11q13 0 21.5 -8.5t8.5 -21.5q0 -20 -19 -31l-98 -49q-14 -6 -22 -6q-9 0 -14 5z" />
    <glyph glyph-name="Atilde" unicode="&#xc3;" horiz-adv-x="647" 
d="M618 28q0 -13 -9 -21t-21 -8q-10 0 -17.5 5.5t-11.5 14.5l-75 183h-325l-74 -183q-8 -20 -27 -20q-14 0 -21 7t-8 19v3q0 6 1 9l264 646q8 20 30 20q10 0 17.5 -5.5t11.5 -14.5l263 -643q2 -8 2 -12zM182 261h278l-140 342zM177.5 779q-6.5 8 -6.5 24q0 8 1 12
q7 31 31 49t56 18q18 0 37.5 -8.5t44.5 -24.5q22 -13 34.5 -19t22.5 -6q14 0 22.5 10.5t10.5 28.5q-1 11 5 18.5t17 7.5q12 0 18.5 -8.5t6.5 -23.5l-1 -11q-6 -33 -27.5 -52t-53.5 -19q-28 0 -80 32q-23 13 -36 19t-24 6q-14 0 -24.5 -9.5t-14.5 -29.5q0 -11 -6.5 -16.5
t-15.5 -5.5q-11 0 -17.5 8z" />
    <glyph glyph-name="AE" unicode="&#xc6;" horiz-adv-x="919" 
d="M863.5 50q8.5 -9 8.5 -21q0 -13 -8.5 -21t-21.5 -8h-354q-13 0 -22 8.5t-9 21.5v139h-287l-110 -158q-9 -13 -24 -13q-11 0 -19.5 8.5t-8.5 20.5q0 9 5 19l449 641q10 13 27 13h353q13 0 21.5 -8.5t8.5 -21.5t-8.5 -21t-21.5 -8h-323v-253h278q13 0 21.5 -8t8.5 -21
t-8.5 -21t-21.5 -8h-278v-271h323q13 0 21.5 -9zM457 583l-247 -356h247v356z" />
    <glyph glyph-name="AEacute" unicode="&#x1fc;" horiz-adv-x="919" 
d="M863.5 50q8.5 -9 8.5 -21q0 -13 -8.5 -21t-21.5 -8h-354q-13 0 -22 8.5t-9 21.5v139h-287l-110 -158q-9 -13 -24 -13q-11 0 -19.5 8.5t-8.5 20.5q0 9 5 19l449 641q10 13 27 13h353q13 0 21.5 -8.5t8.5 -21.5t-8.5 -21t-21.5 -8h-323v-253h278q13 0 21.5 -8t8.5 -21
t-8.5 -21t-21.5 -8h-278v-271h323q13 0 21.5 -9zM457 583l-247 -356h247v356zM613 751q-5 5 -5 13t10 18l89 69q13 11 29 11q13 0 21.5 -8.5t8.5 -21.5q0 -20 -19 -31l-98 -49q-14 -6 -22 -6q-9 0 -14 5z" />
    <glyph glyph-name="B" unicode="B" horiz-adv-x="651" 
d="M566 312q38 -45 38 -117q0 -98 -60.5 -146.5t-150.5 -48.5h-269q-13 0 -21.5 8.5t-8.5 21.5v640q0 13 8.5 21.5t21.5 8.5h265q84 0 131.5 -46t47.5 -126q0 -53 -26 -95t-74 -61q60 -15 98 -60zM471.5 609.5q-32.5 31.5 -90.5 31.5h-223v-250h223q54 1 88.5 35t34.5 97
q0 55 -32.5 86.5zM498.5 93q41.5 34 41.5 102q0 70 -42.5 103t-109.5 33h-230v-272h232q67 0 108.5 34z" />
    <glyph glyph-name="C" unicode="C" horiz-adv-x="653" 
d="M620 623q0 -9 -7 -20q-9 -11 -23 -11q-8 0 -16 5q-80 53 -175 53q-81 0 -146.5 -38t-103 -106.5t-37.5 -155.5q0 -89 38 -157.5t103.5 -106t145.5 -37.5q95 0 174 52q8 5 17 5q14 0 23 -12q7 -8 7 -19q0 -16 -14 -24q-39 -26 -96 -43.5t-111 -17.5q-95 0 -175.5 45.5
t-128 127.5t-47.5 187q0 101 47 183.5t127 129t177 46.5q56 0 109.5 -16t96.5 -45q15 -9 15 -25z" />
    <glyph glyph-name="Cacute" unicode="&#x106;" horiz-adv-x="653" 
d="M620 623q0 -9 -7 -20q-9 -11 -23 -11q-8 0 -16 5q-80 53 -175 53q-81 0 -146.5 -38t-103 -106.5t-37.5 -155.5q0 -89 38 -157.5t103.5 -106t145.5 -37.5q95 0 174 52q8 5 17 5q14 0 23 -12q7 -8 7 -19q0 -16 -14 -24q-39 -26 -96 -43.5t-111 -17.5q-95 0 -175.5 45.5
t-128 127.5t-47.5 187q0 101 47 183.5t127 129t177 46.5q56 0 109.5 -16t96.5 -45q15 -9 15 -25zM379 751q-5 5 -5 13t10 18l89 69q13 11 29 11q13 0 21.5 -8.5t8.5 -21.5q0 -20 -19 -31l-98 -49q-14 -6 -22 -6q-9 0 -14 5z" />
    <glyph glyph-name="Ccaron" unicode="&#x10c;" horiz-adv-x="653" 
d="M620 623q0 -9 -7 -20q-9 -11 -23 -11q-8 0 -16 5q-80 53 -175 53q-81 0 -146.5 -38t-103 -106.5t-37.5 -155.5q0 -89 38 -157.5t103.5 -106t145.5 -37.5q95 0 174 52q8 5 17 5q14 0 23 -12q7 -8 7 -19q0 -16 -14 -24q-39 -26 -96 -43.5t-111 -17.5q-95 0 -175.5 45.5
t-128 127.5t-47.5 187q0 101 47 183.5t127 129t177 46.5q56 0 109.5 -16t96.5 -45q15 -9 15 -25zM508 880.5q5 -4.5 5 -10.5q0 -8 -8 -17l-77 -82q-11 -17 -33 -17h-11q-21 0 -34 17l-76 81q-8 9 -8 17q0 6 4.5 10.5t11.5 4.5q12 0 27 -12l83 -62l77 62q16 13 27 13
q7 0 12 -4.5z" />
    <glyph glyph-name="Ccedilla" unicode="&#xc7;" horiz-adv-x="653" 
d="M620 75q0 -16 -14 -24q-36 -24 -87.5 -41t-102.5 -20l-53 -114q-8 -20 -26 -20q-12 0 -27 10t-15 22q0 11 7 18l68 85q-89 7 -162.5 54t-116.5 126.5t-43 178.5q0 101 47 183.5t127 129t177 46.5q56 0 109.5 -16t96.5 -45q15 -9 15 -25q0 -9 -7 -20q-9 -11 -23 -11
q-8 0 -16 5q-80 53 -175 53q-81 0 -146.5 -38t-103 -106.5t-37.5 -155.5q0 -89 38 -157.5t103.5 -106t145.5 -37.5q95 0 174 52q8 5 17 5q14 0 23 -12q7 -8 7 -19z" />
    <glyph glyph-name="uni1E08" unicode="&#x1e08;" horiz-adv-x="653" 
d="M379 751q-5 5 -5 13t10 18l89 69q13 11 29 11q13 0 21.5 -8.5t8.5 -21.5q0 -20 -19 -31l-98 -49q-14 -6 -22 -6q-9 0 -14 5zM620 75q0 -16 -14 -24q-36 -24 -87.5 -41t-102.5 -20l-53 -114q-8 -20 -26 -20q-12 0 -27 10t-15 22q0 11 7 18l68 85q-89 7 -162.5 54
t-116.5 126.5t-43 178.5q0 101 47 183.5t127 129t177 46.5q56 0 109.5 -16t96.5 -45q15 -9 15 -25q0 -9 -7 -20q-9 -11 -23 -11q-8 0 -16 5q-80 53 -175 53q-81 0 -146.5 -38t-103 -106.5t-37.5 -155.5q0 -89 38 -157.5t103.5 -106t145.5 -37.5q95 0 174 52q8 5 17 5
q14 0 23 -12q7 -8 7 -19z" />
    <glyph glyph-name="Ccircumflex" unicode="&#x108;" horiz-adv-x="653" 
d="M620 623q0 -9 -7 -20q-9 -11 -23 -11q-8 0 -16 5q-80 53 -175 53q-81 0 -146.5 -38t-103 -106.5t-37.5 -155.5q0 -89 38 -157.5t103.5 -106t145.5 -37.5q95 0 174 52q8 5 17 5q14 0 23 -12q7 -8 7 -19q0 -16 -14 -24q-39 -26 -96 -43.5t-111 -17.5q-95 0 -175.5 45.5
t-128 127.5t-47.5 187q0 101 47 183.5t127 129t177 46.5q56 0 109.5 -16t96.5 -45q15 -9 15 -25zM512 777q0 -5 -5 -10t-11 -5q-11 0 -27 13l-83 60l-77 -61q-18 -13 -27 -13q-7 0 -12 4.5t-5 10.5q0 8 8 17l77 82q8 9 15 13t18 4h11q11 0 18 -4t16 -13l76 -81q8 -9 8 -17z
" />
    <glyph glyph-name="Cdotaccent" unicode="&#x10a;" horiz-adv-x="653" 
d="M620 623q0 -9 -7 -20q-9 -11 -23 -11q-8 0 -16 5q-80 53 -175 53q-81 0 -146.5 -38t-103 -106.5t-37.5 -155.5q0 -89 38 -157.5t103.5 -106t145.5 -37.5q95 0 174 52q8 5 17 5q14 0 23 -12q7 -8 7 -19q0 -16 -14 -24q-39 -26 -96 -43.5t-111 -17.5q-95 0 -175.5 45.5
t-128 127.5t-47.5 187q0 101 47 183.5t127 129t177 46.5q56 0 109.5 -16t96.5 -45q15 -9 15 -25zM359 780.5q-11 10.5 -11 29.5v10q0 19 11.5 29.5t31.5 10.5q40 0 40 -40v-10q0 -19 -10.5 -29.5t-30.5 -10.5t-31 10.5z" />
    <glyph glyph-name="D" unicode="D" horiz-adv-x="719" 
d="M540.5 652.5q65.5 -47.5 98 -127t32.5 -175.5q0 -99 -32.5 -178t-98 -125.5t-161.5 -46.5h-255q-13 0 -21.5 8.5t-8.5 21.5v640q0 13 8.5 21.5t21.5 8.5h255q96 0 161.5 -47.5zM548 139.5q59 80.5 59 210.5q0 81 -25 146.5t-78.5 105t-134.5 39.5h-212v-582h212
q120 0 179 80.5z" />
    <glyph glyph-name="uni01C4" unicode="&#x1c4;" horiz-adv-x="1363" 
d="M540.5 652.5q65.5 -47.5 98 -127t32.5 -175.5q0 -99 -32.5 -178t-98 -125.5t-161.5 -46.5h-255q-13 0 -21.5 8.5t-8.5 21.5v640q0 13 8.5 21.5t21.5 8.5h255q96 0 161.5 -47.5zM548 139.5q59 80.5 59 210.5q0 81 -25 146.5t-78.5 105t-134.5 39.5h-212v-582h212
q120 0 179 80.5zM1304.5 48.5q8.5 -8.5 8.5 -19.5q0 -13 -8.5 -21t-21.5 -8h-479q-14 0 -22.5 9.5t-8.5 21.5q0 9 6 18l450 594h-400q-13 0 -21.5 8t-8.5 21q0 12 8.5 20t21.5 8h455q15 0 24 -9t9 -21q0 -9 -6 -18l-449 -595h421q13 0 21.5 -8.5zM1160 880.5q5 -4.5 5 -10.5
q0 -8 -8 -17l-77 -82q-11 -17 -33 -17h-11q-21 0 -34 17l-76 81q-8 9 -8 17q0 6 4.5 10.5t11.5 4.5q12 0 27 -12l83 -62l77 62q16 13 27 13q7 0 12 -4.5z" />
    <glyph glyph-name="Eth" unicode="&#xd0;" horiz-adv-x="719" 
d="M540.5 652.5q65.5 -47.5 98 -127t32.5 -175.5q0 -99 -32.5 -178t-98 -125.5t-161.5 -46.5h-255q-13 0 -21.5 8.5t-8.5 21.5v293h-47q-14 0 -22 8t-8 21q0 12 8.5 19.5t21.5 7.5h47v291q0 13 8.5 21.5t21.5 8.5h255q96 0 161.5 -47.5zM548 139.5q59 80.5 59 210.5
q0 81 -25 146.5t-78.5 105t-134.5 39.5h-212v-262h54q14 0 22 -7.5t8 -20.5t-8 -20.5t-22 -7.5h-54v-264h212q120 0 179 80.5z" />
    <glyph glyph-name="Dcaron" unicode="&#x10e;" horiz-adv-x="719" 
d="M540.5 652.5q65.5 -47.5 98 -127t32.5 -175.5q0 -99 -32.5 -178t-98 -125.5t-161.5 -46.5h-255q-13 0 -21.5 8.5t-8.5 21.5v640q0 13 8.5 21.5t21.5 8.5h255q96 0 161.5 -47.5zM548 139.5q59 80.5 59 210.5q0 81 -25 146.5t-78.5 105t-134.5 39.5h-212v-582h212
q120 0 179 80.5zM430 880.5q5 -4.5 5 -10.5q0 -8 -8 -17l-77 -82q-11 -17 -33 -17h-11q-21 0 -34 17l-76 81q-8 9 -8 17q0 6 4.5 10.5t11.5 4.5q12 0 27 -12l83 -62l77 62q16 13 27 13q7 0 12 -4.5z" />
    <glyph glyph-name="Dcroat" unicode="&#x110;" horiz-adv-x="719" 
d="M540.5 652.5q65.5 -47.5 98 -127t32.5 -175.5q0 -99 -32.5 -178t-98 -125.5t-161.5 -46.5h-255q-13 0 -21.5 8.5t-8.5 21.5v293h-47q-14 0 -22 8t-8 21q0 12 8.5 19.5t21.5 7.5h47v291q0 13 8.5 21.5t21.5 8.5h255q96 0 161.5 -47.5zM548 139.5q59 80.5 59 210.5
q0 81 -25 146.5t-78.5 105t-134.5 39.5h-212v-262h54q14 0 22 -7.5t8 -20.5t-8 -20.5t-22 -7.5h-54v-264h212q120 0 179 80.5z" />
    <glyph glyph-name="uni1E0C" unicode="&#x1e0c;" horiz-adv-x="719" 
d="M540.5 652.5q65.5 -47.5 98 -127t32.5 -175.5q0 -99 -32.5 -178t-98 -125.5t-161.5 -46.5h-255q-13 0 -21.5 8.5t-8.5 21.5v640q0 13 8.5 21.5t21.5 8.5h255q96 0 161.5 -47.5zM548 139.5q59 80.5 59 210.5q0 81 -25 146.5t-78.5 105t-134.5 39.5h-212v-582h212
q120 0 179 80.5zM289 -129.5q-11 10.5 -11 29.5v11q0 18 11.5 28.5t30.5 10.5q41 0 41 -39v-11q0 -19 -10.5 -29.5t-30.5 -10.5t-31 10.5z" />
    <glyph glyph-name="uni1E0E" unicode="&#x1e0e;" horiz-adv-x="719" 
d="M540.5 652.5q65.5 -47.5 98 -127t32.5 -175.5q0 -99 -32.5 -178t-98 -125.5t-161.5 -46.5h-255q-13 0 -21.5 8.5t-8.5 21.5v640q0 13 8.5 21.5t21.5 8.5h255q96 0 161.5 -47.5zM548 139.5q59 80.5 59 210.5q0 81 -25 146.5t-78.5 105t-134.5 39.5h-212v-582h212
q120 0 179 80.5zM193 -101q0 25 28 25h210q28 0 28 -25t-28 -25h-210q-28 0 -28 25z" />
    <glyph glyph-name="uni01F2" unicode="&#x1f2;" horiz-adv-x="1197" 
d="M540.5 652.5q65.5 -47.5 98 -127t32.5 -175.5q0 -99 -32.5 -178t-98 -125.5t-161.5 -46.5h-255q-13 0 -21.5 8.5t-8.5 21.5v640q0 13 8.5 21.5t21.5 8.5h255q96 0 161.5 -47.5zM548 139.5q59 80.5 59 210.5q0 81 -25 146.5t-78.5 105t-134.5 39.5h-212v-582h212
q120 0 179 80.5zM1138 48q8 -8 8 -20t-8 -20t-21 -8h-325q-13 0 -21 9.5t-8 19.5q0 13 9 23l296 410h-251q-12 0 -20.5 8t-8.5 20t8.5 20t20.5 8h307q12 0 20 -9t8 -21q0 -11 -8 -22l-297 -410h270q13 0 21 -8z" />
    <glyph glyph-name="uni01C5" unicode="&#x1c5;" horiz-adv-x="1198" 
d="M540.5 652.5q65.5 -47.5 98 -127t32.5 -175.5q0 -99 -32.5 -178t-98 -125.5t-161.5 -46.5h-255q-13 0 -21.5 8.5t-8.5 21.5v640q0 13 8.5 21.5t21.5 8.5h255q96 0 161.5 -47.5zM548 139.5q59 80.5 59 210.5q0 81 -25 146.5t-78.5 105t-134.5 39.5h-212v-582h212
q120 0 179 80.5zM1139 48q8 -8 8 -20t-8 -20t-21 -8h-325q-13 0 -21 9.5t-8 19.5q0 13 9 23l296 410h-251q-12 0 -20.5 8t-8.5 20t8.5 20t20.5 8h307q12 0 20 -9t8 -21q0 -11 -8 -22l-297 -410h270q13 0 21 -8zM1091.5 692q5.5 -5 5.5 -11q0 -7 -9 -18l-72 -78
q-11 -16 -33 -16h-16q-22 0 -34 16l-71 78q-8 8 -8 17q0 6 5 11t14 5q10 0 26 -13l78 -63l74 63q16 14 28 14q7 0 12.5 -5z" />
    <glyph glyph-name="E" unicode="E" horiz-adv-x="568" 
d="M512.5 50q8.5 -9 8.5 -21q0 -13 -8.5 -21t-21.5 -8h-367q-13 0 -21.5 8.5t-8.5 21.5v640q0 13 8.5 21.5t21.5 8.5h367q13 0 21.5 -8.5t8.5 -21.5t-8.5 -21t-21.5 -8h-334v-251h289q13 0 21.5 -8.5t8.5 -21.5t-8.5 -21t-21.5 -8h-289v-272h334q13 0 21.5 -9z" />
    <glyph glyph-name="Eacute" unicode="&#xc9;" horiz-adv-x="568" 
d="M512.5 50q8.5 -9 8.5 -21q0 -13 -8.5 -21t-21.5 -8h-367q-13 0 -21.5 8.5t-8.5 21.5v640q0 13 8.5 21.5t21.5 8.5h367q13 0 21.5 -8.5t8.5 -21.5t-8.5 -21t-21.5 -8h-334v-251h289q13 0 21.5 -8.5t8.5 -21.5t-8.5 -21t-21.5 -8h-289v-272h334q13 0 21.5 -9zM307 751
q-5 5 -5 13t10 18l89 69q13 11 29 11q13 0 21.5 -8.5t8.5 -21.5q0 -20 -19 -31l-98 -49q-14 -6 -22 -6q-9 0 -14 5z" />
    <glyph glyph-name="Ebreve" unicode="&#x114;" horiz-adv-x="568" 
d="M512.5 50q8.5 -9 8.5 -21q0 -13 -8.5 -21t-21.5 -8h-367q-13 0 -21.5 8.5t-8.5 21.5v640q0 13 8.5 21.5t21.5 8.5h367q13 0 21.5 -8.5t8.5 -21.5t-8.5 -21t-21.5 -8h-334v-251h289q13 0 21.5 -8.5t8.5 -21.5t-8.5 -21t-21.5 -8h-289v-272h334q13 0 21.5 -9zM230.5 800.5
q-35.5 26.5 -49.5 74.5q-2 8 -2 11q0 9 5.5 14t15.5 5q11 0 16.5 -4.5t13.5 -17.5q26 -58 88 -58q63 0 88 58q5 11 12 16t18 5q21 0 21 -17q0 -4 -2 -12q-14 -48 -49.5 -74.5t-87.5 -26.5t-87.5 26.5z" />
    <glyph glyph-name="Ecaron" unicode="&#x11a;" horiz-adv-x="568" 
d="M512.5 50q8.5 -9 8.5 -21q0 -13 -8.5 -21t-21.5 -8h-367q-13 0 -21.5 8.5t-8.5 21.5v640q0 13 8.5 21.5t21.5 8.5h367q13 0 21.5 -8.5t8.5 -21.5t-8.5 -21t-21.5 -8h-334v-251h289q13 0 21.5 -8.5t8.5 -21.5t-8.5 -21t-21.5 -8h-289v-272h334q13 0 21.5 -9zM436 880.5
q5 -4.5 5 -10.5q0 -8 -8 -17l-77 -82q-11 -17 -33 -17h-11q-21 0 -34 17l-76 81q-8 9 -8 17q0 6 4.5 10.5t11.5 4.5q12 0 27 -12l83 -62l77 62q16 13 27 13q7 0 12 -4.5z" />
    <glyph glyph-name="uni1E1C" unicode="&#x1e1c;" horiz-adv-x="568" 
d="M230.5 800.5q-35.5 26.5 -49.5 74.5q-2 8 -2 11q0 9 5.5 14t15.5 5q11 0 16.5 -4.5t13.5 -17.5q26 -58 88 -58q63 0 88 58q5 11 12 16t18 5q21 0 21 -17q0 -4 -2 -12q-14 -48 -49.5 -74.5t-87.5 -26.5t-87.5 26.5zM512.5 50q8.5 -9 8.5 -21q0 -13 -8.5 -21t-21.5 -8h-163
l-57 -124q-8 -20 -26 -20q-12 0 -27 10t-15 22q0 11 7 18l75 94h-161q-13 0 -21.5 8.5t-8.5 21.5v640q0 13 8.5 21.5t21.5 8.5h367q13 0 21.5 -8.5t8.5 -21.5t-8.5 -21t-21.5 -8h-334v-251h289q13 0 21.5 -8.5t8.5 -21.5t-8.5 -21t-21.5 -8h-289v-272h334q13 0 21.5 -9z" />
    <glyph glyph-name="Ecircumflex" unicode="&#xca;" horiz-adv-x="568" 
d="M512.5 50q8.5 -9 8.5 -21q0 -13 -8.5 -21t-21.5 -8h-367q-13 0 -21.5 8.5t-8.5 21.5v640q0 13 8.5 21.5t21.5 8.5h367q13 0 21.5 -8.5t8.5 -21.5t-8.5 -21t-21.5 -8h-334v-251h289q13 0 21.5 -8.5t8.5 -21.5t-8.5 -21t-21.5 -8h-289v-272h334q13 0 21.5 -9zM440 777
q0 -5 -5 -10t-11 -5q-11 0 -27 13l-83 60l-77 -61q-18 -13 -27 -13q-7 0 -12 4.5t-5 10.5q0 8 8 17l77 82q8 9 15 13t18 4h11q11 0 18 -4t16 -13l76 -81q8 -9 8 -17z" />
    <glyph glyph-name="uni1EBE" unicode="&#x1ebe;" horiz-adv-x="568" 
d="M512.5 50q8.5 -9 8.5 -21q0 -13 -8.5 -21t-21.5 -8h-367q-13 0 -21.5 8.5t-8.5 21.5v640q0 13 8.5 21.5t21.5 8.5h367q13 0 21.5 -8.5t8.5 -21.5t-8.5 -21t-21.5 -8h-334v-251h289q13 0 21.5 -8.5t8.5 -21.5t-8.5 -21t-21.5 -8h-289v-272h334q13 0 21.5 -9zM440 777
q0 -5 -5 -10t-11 -5q-11 0 -27 13l-83 60l-77 -61q-18 -13 -27 -13q-7 0 -12 4.5t-5 10.5q0 8 8 17l77 82q8 9 15 13t18 4h11q11 0 18 -4t16 -13l76 -81q8 -9 8 -17zM451 825q-5 5 -5 13t10 18l89 69q13 11 29 11q13 0 21.5 -8.5t8.5 -21.5q0 -20 -19 -31l-98 -49
q-14 -6 -22 -6q-9 0 -14 5z" />
    <glyph glyph-name="uni1EC6" unicode="&#x1ec6;" horiz-adv-x="568" 
d="M512.5 50q8.5 -9 8.5 -21q0 -13 -8.5 -21t-21.5 -8h-367q-13 0 -21.5 8.5t-8.5 21.5v640q0 13 8.5 21.5t21.5 8.5h367q13 0 21.5 -8.5t8.5 -21.5t-8.5 -21t-21.5 -8h-334v-251h289q13 0 21.5 -8.5t8.5 -21.5t-8.5 -21t-21.5 -8h-289v-272h334q13 0 21.5 -9zM281 -129.5
q-11 10.5 -11 29.5v11q0 18 11.5 28.5t30.5 10.5q41 0 41 -39v-11q0 -19 -10.5 -29.5t-30.5 -10.5t-31 10.5zM440 777q0 -5 -5 -10t-11 -5q-11 0 -27 13l-83 60l-77 -61q-18 -13 -27 -13q-7 0 -12 4.5t-5 10.5q0 8 8 17l77 82q8 9 15 13t18 4h11q11 0 18 -4t16 -13l76 -81
q8 -9 8 -17z" />
    <glyph glyph-name="uni1EC0" unicode="&#x1ec0;" horiz-adv-x="568" 
d="M512.5 50q8.5 -9 8.5 -21q0 -13 -8.5 -21t-21.5 -8h-367q-13 0 -21.5 8.5t-8.5 21.5v640q0 13 8.5 21.5t21.5 8.5h367q13 0 21.5 -8.5t8.5 -21.5t-8.5 -21t-21.5 -8h-334v-251h289q13 0 21.5 -8.5t8.5 -21.5t-8.5 -21t-21.5 -8h-289v-272h334q13 0 21.5 -9zM440 777
q0 -5 -5 -10t-11 -5q-11 0 -27 13l-83 60l-77 -61q-18 -13 -27 -13q-7 0 -12 4.5t-5 10.5q0 8 8 17l77 82q8 9 15 13t18 4h11q11 0 18 -4t16 -13l76 -81q8 -9 8 -17zM418 890l-97 49q-20 11 -20 31q0 13 8.5 21.5t21.5 8.5q16 0 29 -11l89 -69q10 -10 10 -18t-5 -13t-14 -5
q-8 0 -22 6z" />
    <glyph glyph-name="uni1EC2" unicode="&#x1ec2;" horiz-adv-x="568" 
d="M512.5 50q8.5 -9 8.5 -21q0 -13 -8.5 -21t-21.5 -8h-367q-13 0 -21.5 8.5t-8.5 21.5v640q0 13 8.5 21.5t21.5 8.5h367q13 0 21.5 -8.5t8.5 -21.5t-8.5 -21t-21.5 -8h-334v-251h289q13 0 21.5 -8.5t8.5 -21.5t-8.5 -21t-21.5 -8h-289v-272h334q13 0 21.5 -9zM440 777
q0 -5 -5 -10t-11 -5q-11 0 -27 13l-83 60l-77 -61q-18 -13 -27 -13q-7 0 -12 4.5t-5 10.5q0 8 8 17l77 82q8 9 15 13t18 4h11q11 0 18 -4t16 -13l76 -81q8 -9 8 -17zM315 1133q43 0 62.5 -23t19.5 -51q0 -16 -8.5 -29.5t-25.5 -30.5q-12 -14 -12 -27q-1 -8 -7 -12t-16 -4
q-8 0 -13.5 5t-5.5 12q0 24 14 40q17 18 23 26t6 19q0 13 -10.5 21.5t-25.5 8.5q-22 0 -46 -18q-8 -8 -17 -8q-8 0 -16 8q-5 7 -5 14q0 9 9 18q33 31 74 31z" />
    <glyph glyph-name="uni1EC4" unicode="&#x1ec4;" horiz-adv-x="568" 
d="M512.5 50q8.5 -9 8.5 -21q0 -13 -8.5 -21t-21.5 -8h-367q-13 0 -21.5 8.5t-8.5 21.5v640q0 13 8.5 21.5t21.5 8.5h367q13 0 21.5 -8.5t8.5 -21.5t-8.5 -21t-21.5 -8h-334v-251h289q13 0 21.5 -8.5t8.5 -21.5t-8.5 -21t-21.5 -8h-289v-272h334q13 0 21.5 -9zM440 777
q0 -5 -5 -10t-11 -5q-11 0 -27 13l-83 60l-77 -61q-18 -13 -27 -13q-7 0 -12 4.5t-5 10.5q0 8 8 17l77 82q8 9 15 13t18 4h11q11 0 18 -4t16 -13l76 -81q8 -9 8 -17zM171.5 906q-6.5 8 -6.5 24q0 8 1 12q7 31 31 49t56 18q18 0 37.5 -8.5t44.5 -24.5q22 -13 34.5 -19
t22.5 -6q14 0 22.5 10.5t10.5 28.5q-1 11 5 18.5t17 7.5q12 0 18.5 -8.5t6.5 -23.5l-1 -11q-6 -33 -27.5 -52t-53.5 -19q-28 0 -80 32q-23 13 -36 19t-24 6q-14 0 -24.5 -9.5t-14.5 -29.5q0 -11 -6.5 -16.5t-15.5 -5.5q-11 0 -17.5 8z" />
    <glyph glyph-name="uni0204" unicode="&#x204;" horiz-adv-x="568" 
d="M512.5 50q8.5 -9 8.5 -21q0 -13 -8.5 -21t-21.5 -8h-367q-13 0 -21.5 8.5t-8.5 21.5v640q0 13 8.5 21.5t21.5 8.5h367q13 0 21.5 -8.5t8.5 -21.5t-8.5 -21t-21.5 -8h-334v-251h289q13 0 21.5 -8.5t8.5 -21.5t-8.5 -21t-21.5 -8h-289v-272h334q13 0 21.5 -9zM255.5 758
q-6.5 3 -8.5 4l-97 48q-20 11 -20 32q0 12 8.5 21t21.5 9q15 0 29 -12l89 -69q10 -8 10 -18q0 -7 -5 -12.5t-14 -5.5q-7 0 -13.5 3zM415 761l-98 49q-19 11 -19 31q0 13 8.5 21.5t21.5 8.5q16 0 29 -11l89 -69q10 -10 10 -18t-5 -13t-14 -5q-8 0 -22 6z" />
    <glyph glyph-name="Edieresis" unicode="&#xcb;" horiz-adv-x="568" 
d="M512.5 50q8.5 -9 8.5 -21q0 -13 -8.5 -21t-21.5 -8h-367q-13 0 -21.5 8.5t-8.5 21.5v640q0 13 8.5 21.5t21.5 8.5h367q13 0 21.5 -8.5t8.5 -21.5t-8.5 -21t-21.5 -8h-334v-251h289q13 0 21.5 -8.5t8.5 -21.5t-8.5 -21t-21.5 -8h-289v-272h334q13 0 21.5 -9zM202 785.5
q-11 10.5 -11 29.5v10q0 19 11.5 29.5t30.5 10.5t30 -10.5t11 -29.5v-10q0 -19 -11 -29.5t-31 -10.5q-19 0 -30 10.5zM374 785.5q-11 10.5 -11 29.5v10q0 19 11 29.5t31 10.5q19 0 30 -10.5t11 -29.5v-10q0 -19 -11 -29.5t-31 -10.5q-19 0 -30 10.5z" />
    <glyph glyph-name="Edotaccent" unicode="&#x116;" horiz-adv-x="568" 
d="M512.5 50q8.5 -9 8.5 -21q0 -13 -8.5 -21t-21.5 -8h-367q-13 0 -21.5 8.5t-8.5 21.5v640q0 13 8.5 21.5t21.5 8.5h367q13 0 21.5 -8.5t8.5 -21.5t-8.5 -21t-21.5 -8h-334v-251h289q13 0 21.5 -8.5t8.5 -21.5t-8.5 -21t-21.5 -8h-289v-272h334q13 0 21.5 -9zM287 780.5
q-11 10.5 -11 29.5v10q0 19 11.5 29.5t31.5 10.5q40 0 40 -40v-10q0 -19 -10.5 -29.5t-30.5 -10.5t-31 10.5z" />
    <glyph glyph-name="uni1EB8" unicode="&#x1eb8;" horiz-adv-x="568" 
d="M512.5 50q8.5 -9 8.5 -21q0 -13 -8.5 -21t-21.5 -8h-367q-13 0 -21.5 8.5t-8.5 21.5v640q0 13 8.5 21.5t21.5 8.5h367q13 0 21.5 -8.5t8.5 -21.5t-8.5 -21t-21.5 -8h-334v-251h289q13 0 21.5 -8.5t8.5 -21.5t-8.5 -21t-21.5 -8h-289v-272h334q13 0 21.5 -9zM281 -129.5
q-11 10.5 -11 29.5v11q0 18 11.5 28.5t30.5 10.5q41 0 41 -39v-11q0 -19 -10.5 -29.5t-30.5 -10.5t-31 10.5z" />
    <glyph glyph-name="Egrave" unicode="&#xc8;" horiz-adv-x="568" 
d="M512.5 50q8.5 -9 8.5 -21q0 -13 -8.5 -21t-21.5 -8h-367q-13 0 -21.5 8.5t-8.5 21.5v640q0 13 8.5 21.5t21.5 8.5h367q13 0 21.5 -8.5t8.5 -21.5t-8.5 -21t-21.5 -8h-334v-251h289q13 0 21.5 -8.5t8.5 -21.5t-8.5 -21t-21.5 -8h-289v-272h334q13 0 21.5 -9zM296 753
l-97 49q-20 11 -20 31q0 13 8.5 21.5t21.5 8.5q16 0 29 -11l89 -69q10 -10 10 -18t-5 -13t-14 -5q-8 0 -22 6z" />
    <glyph glyph-name="uni1EBA" unicode="&#x1eba;" horiz-adv-x="568" 
d="M512.5 50q8.5 -9 8.5 -21q0 -13 -8.5 -21t-21.5 -8h-367q-13 0 -21.5 8.5t-8.5 21.5v640q0 13 8.5 21.5t21.5 8.5h367q13 0 21.5 -8.5t8.5 -21.5t-8.5 -21t-21.5 -8h-334v-251h289q13 0 21.5 -8.5t8.5 -21.5t-8.5 -21t-21.5 -8h-289v-272h334q13 0 21.5 -9zM315 934
q43 0 62.5 -23t19.5 -51q0 -16 -8.5 -29.5t-25.5 -30.5q-12 -14 -12 -27q-1 -8 -7 -12t-16 -4q-8 0 -13.5 5t-5.5 12q0 24 14 40q17 18 23 26t6 19q0 13 -10.5 21.5t-25.5 8.5q-22 0 -46 -18q-8 -8 -17 -8q-8 0 -16 8q-5 7 -5 14q0 9 9 18q33 31 74 31z" />
    <glyph glyph-name="uni0206" unicode="&#x206;" horiz-adv-x="568" 
d="M512.5 50q8.5 -9 8.5 -21q0 -13 -8.5 -21t-21.5 -8h-367q-13 0 -21.5 8.5t-8.5 21.5v640q0 13 8.5 21.5t21.5 8.5h367q13 0 21.5 -8.5t8.5 -21.5t-8.5 -21t-21.5 -8h-334v-251h289q13 0 21.5 -8.5t8.5 -21.5t-8.5 -21t-21.5 -8h-289v-272h334q13 0 21.5 -9zM405 836.5
q37 -28.5 42 -69.5q2 -11 -4.5 -19t-17.5 -8t-18 6t-12 18q-7 24 -28 37.5t-50 13.5q-30 0 -51 -13.5t-27 -37.5q-5 -12 -12 -18t-19 -6q-11 0 -17.5 7.5t-4.5 18.5q5 42 42 70.5t89 28.5q51 0 88 -28.5z" />
    <glyph glyph-name="Emacron" unicode="&#x112;" horiz-adv-x="568" 
d="M512.5 50q8.5 -9 8.5 -21q0 -13 -8.5 -21t-21.5 -8h-367q-13 0 -21.5 8.5t-8.5 21.5v640q0 13 8.5 21.5t21.5 8.5h367q13 0 21.5 -8.5t8.5 -21.5t-8.5 -21t-21.5 -8h-334v-251h289q13 0 21.5 -8.5t8.5 -21.5t-8.5 -21t-21.5 -8h-289v-272h334q13 0 21.5 -9zM165 813
q0 26 29 26h255q29 0 29 -26q0 -25 -29 -25h-255q-29 0 -29 25z" />
    <glyph glyph-name="uni1E16" unicode="&#x1e16;" horiz-adv-x="568" 
d="M512.5 50q8.5 -9 8.5 -21q0 -13 -8.5 -21t-21.5 -8h-367q-13 0 -21.5 8.5t-8.5 21.5v640q0 13 8.5 21.5t21.5 8.5h367q13 0 21.5 -8.5t8.5 -21.5t-8.5 -21t-21.5 -8h-334v-251h289q13 0 21.5 -8.5t8.5 -21.5t-8.5 -21t-21.5 -8h-289v-272h334q13 0 21.5 -9zM165 813
q0 26 29 26h255q29 0 29 -26q0 -25 -29 -25h-255q-29 0 -29 25zM307 905q-5 5 -5 13t10 18l89 69q13 11 29 11q13 0 21.5 -8.5t8.5 -21.5q0 -20 -19 -31l-98 -49q-14 -6 -22 -6q-9 0 -14 5z" />
    <glyph glyph-name="uni1E14" unicode="&#x1e14;" horiz-adv-x="568" 
d="M512.5 50q8.5 -9 8.5 -21q0 -13 -8.5 -21t-21.5 -8h-367q-13 0 -21.5 8.5t-8.5 21.5v640q0 13 8.5 21.5t21.5 8.5h367q13 0 21.5 -8.5t8.5 -21.5t-8.5 -21t-21.5 -8h-334v-251h289q13 0 21.5 -8.5t8.5 -21.5t-8.5 -21t-21.5 -8h-289v-272h334q13 0 21.5 -9zM165 813
q0 26 29 26h255q29 0 29 -26q0 -25 -29 -25h-255q-29 0 -29 25zM296 907l-97 49q-20 11 -20 31q0 13 8.5 21.5t21.5 8.5q16 0 29 -11l89 -69q10 -10 10 -18t-5 -13t-14 -5q-8 0 -22 6z" />
    <glyph glyph-name="Eogonek" unicode="&#x118;" horiz-adv-x="579" 
d="M519.5 -119q5.5 -6 5.5 -16q0 -22 -24.5 -39t-58.5 -17q-39 0 -67.5 26.5t-28.5 69.5q0 56 55 95h-277q-13 0 -21.5 8.5t-8.5 21.5v640q0 13 8.5 21.5t21.5 8.5h367q13 0 21.5 -8.5t8.5 -21.5q0 -12 -8.5 -20t-21.5 -8h-334v-252h289q13 0 21.5 -8.5t8.5 -21.5
q0 -12 -8.5 -20.5t-21.5 -8.5h-289v-272h334q13 0 21.5 -8.5t8.5 -21.5q0 -25 -34 -30q-33 -4 -60 -28t-27 -54q0 -26 14.5 -41.5t34.5 -15.5q22 0 29 12q11 15 26 15q10 0 15.5 -6z" />
    <glyph glyph-name="uni1EBC" unicode="&#x1ebc;" horiz-adv-x="568" 
d="M512.5 50q8.5 -9 8.5 -21q0 -13 -8.5 -21t-21.5 -8h-367q-13 0 -21.5 8.5t-8.5 21.5v640q0 13 8.5 21.5t21.5 8.5h367q13 0 21.5 -8.5t8.5 -21.5t-8.5 -21t-21.5 -8h-334v-251h289q13 0 21.5 -8.5t8.5 -21.5t-8.5 -21t-21.5 -8h-289v-272h334q13 0 21.5 -9zM171.5 779
q-6.5 8 -6.5 24q0 8 1 12q7 31 31 49t56 18q18 0 37.5 -8.5t44.5 -24.5q22 -13 34.5 -19t22.5 -6q14 0 22.5 10.5t10.5 28.5q-1 11 5 18.5t17 7.5q12 0 18.5 -8.5t6.5 -23.5l-1 -11q-6 -33 -27.5 -52t-53.5 -19q-28 0 -80 32q-23 13 -36 19t-24 6q-14 0 -24.5 -9.5
t-14.5 -29.5q0 -11 -6.5 -16.5t-15.5 -5.5q-11 0 -17.5 8z" />
    <glyph glyph-name="F" unicode="F" horiz-adv-x="566" 
d="M509.5 691.5q8.5 -8.5 8.5 -21.5q0 -12 -8.5 -20.5t-21.5 -8.5h-333v-251h288q13 0 21.5 -8t8.5 -21t-8.5 -21t-21.5 -8h-288v-302q0 -13 -8.5 -21.5t-21.5 -8.5q-14 0 -22.5 8.5t-8.5 21.5v640q0 13 8.5 21.5t21.5 8.5h364q13 0 21.5 -8.5z" />
    <glyph glyph-name="G" unicode="G" horiz-adv-x="695" 
d="M626.5 344.5q8.5 -8.5 8.5 -21.5v-241q0 -17 -15 -27q-45 -31 -100 -48t-112 -17q-102 0 -184 47t-129 129t-47 184t47 184t129 129t184 47q53 0 102.5 -13t88.5 -37q14 -9 14 -25q0 -13 -8.5 -22t-19.5 -9q-10 0 -18 5q-75 41 -159 41q-85 0 -152.5 -39t-105.5 -107.5
t-38 -153.5t38 -153.5t105.5 -107.5t152.5 -39q43 0 86.5 12t77.5 33v198h-158q-13 0 -22 8.5t-9 21.5t9 21.5t22 8.5h191q13 0 21.5 -8.5z" />
    <glyph glyph-name="Gbreve" unicode="&#x11e;" horiz-adv-x="695" 
d="M626.5 344.5q8.5 -8.5 8.5 -21.5v-241q0 -17 -15 -27q-45 -31 -100 -48t-112 -17q-102 0 -184 47t-129 129t-47 184t47 184t129 129t184 47q53 0 102.5 -13t88.5 -37q14 -9 14 -25q0 -13 -8.5 -22t-19.5 -9q-10 0 -18 5q-75 41 -159 41q-85 0 -152.5 -39t-105.5 -107.5
t-38 -153.5t38 -153.5t105.5 -107.5t152.5 -39q43 0 86.5 12t77.5 33v198h-158q-13 0 -22 8.5t-9 21.5t9 21.5t22 8.5h191q13 0 21.5 -8.5zM292.5 800.5q-35.5 26.5 -49.5 74.5q-2 8 -2 11q0 9 5.5 14t15.5 5q11 0 16.5 -4.5t13.5 -17.5q26 -58 88 -58q63 0 88 58
q5 11 12 16t18 5q21 0 21 -17q0 -4 -2 -12q-14 -48 -49.5 -74.5t-87.5 -26.5t-87.5 26.5z" />
    <glyph glyph-name="Gcaron" unicode="&#x1e6;" horiz-adv-x="695" 
d="M626.5 344.5q8.5 -8.5 8.5 -21.5v-241q0 -17 -15 -27q-45 -31 -100 -48t-112 -17q-102 0 -184 47t-129 129t-47 184t47 184t129 129t184 47q53 0 102.5 -13t88.5 -37q14 -9 14 -25q0 -13 -8.5 -22t-19.5 -9q-10 0 -18 5q-75 41 -159 41q-85 0 -152.5 -39t-105.5 -107.5
t-38 -153.5t38 -153.5t105.5 -107.5t152.5 -39q43 0 86.5 12t77.5 33v198h-158q-13 0 -22 8.5t-9 21.5t9 21.5t22 8.5h191q13 0 21.5 -8.5zM498 880.5q5 -4.5 5 -10.5q0 -8 -8 -17l-77 -82q-11 -17 -33 -17h-11q-21 0 -34 17l-76 81q-8 9 -8 17q0 6 4.5 10.5t11.5 4.5
q12 0 27 -12l83 -62l77 62q16 13 27 13q7 0 12 -4.5z" />
    <glyph glyph-name="Gcircumflex" unicode="&#x11c;" horiz-adv-x="695" 
d="M626.5 344.5q8.5 -8.5 8.5 -21.5v-241q0 -17 -15 -27q-45 -31 -100 -48t-112 -17q-102 0 -184 47t-129 129t-47 184t47 184t129 129t184 47q53 0 102.5 -13t88.5 -37q14 -9 14 -25q0 -13 -8.5 -22t-19.5 -9q-10 0 -18 5q-75 41 -159 41q-85 0 -152.5 -39t-105.5 -107.5
t-38 -153.5t38 -153.5t105.5 -107.5t152.5 -39q43 0 86.5 12t77.5 33v198h-158q-13 0 -22 8.5t-9 21.5t9 21.5t22 8.5h191q13 0 21.5 -8.5zM502 777q0 -5 -5 -10t-11 -5q-11 0 -27 13l-83 60l-77 -61q-18 -13 -27 -13q-7 0 -12 4.5t-5 10.5q0 8 8 17l77 82q8 9 15 13t18 4
h11q11 0 18 -4t16 -13l76 -81q8 -9 8 -17z" />
    <glyph glyph-name="Gcommaaccent" unicode="&#x122;" horiz-adv-x="695" 
d="M626.5 344.5q8.5 -8.5 8.5 -21.5v-241q0 -17 -15 -27q-45 -31 -100 -48t-112 -17q-102 0 -184 47t-129 129t-47 184t47 184t129 129t184 47q53 0 102.5 -13t88.5 -37q14 -9 14 -25q0 -13 -8.5 -22t-19.5 -9q-10 0 -18 5q-75 41 -159 41q-85 0 -152.5 -39t-105.5 -107.5
t-38 -153.5t38 -153.5t105.5 -107.5t152.5 -39q43 0 86.5 12t77.5 33v198h-158q-13 0 -22 8.5t-9 21.5t9 21.5t22 8.5h191q13 0 21.5 -8.5zM427.5 -160.5q-23.5 -22.5 -53.5 -22.5q-35 0 -35 20q0 8 4.5 13t10.5 5q3 0 9 -1.5t11 -1.5q6 0 9 1q8 1 13.5 9t5.5 22
q0 13 -10 13q-4 0 -9.5 -4.5t-12.5 -4.5q-12 0 -19 8.5t-7 19.5q0 17 14 27t38 10t39.5 -15.5t15.5 -44.5q0 -31 -23.5 -53.5z" />
    <glyph glyph-name="Gdotaccent" unicode="&#x120;" horiz-adv-x="695" 
d="M626.5 344.5q8.5 -8.5 8.5 -21.5v-241q0 -17 -15 -27q-45 -31 -100 -48t-112 -17q-102 0 -184 47t-129 129t-47 184t47 184t129 129t184 47q53 0 102.5 -13t88.5 -37q14 -9 14 -25q0 -13 -8.5 -22t-19.5 -9q-10 0 -18 5q-75 41 -159 41q-85 0 -152.5 -39t-105.5 -107.5
t-38 -153.5t38 -153.5t105.5 -107.5t152.5 -39q43 0 86.5 12t77.5 33v198h-158q-13 0 -22 8.5t-9 21.5t9 21.5t22 8.5h191q13 0 21.5 -8.5zM349 780.5q-11 10.5 -11 29.5v10q0 19 11.5 29.5t31.5 10.5q40 0 40 -40v-10q0 -19 -10.5 -29.5t-30.5 -10.5t-31 10.5z" />
    <glyph glyph-name="uni1E20" unicode="&#x1e20;" horiz-adv-x="695" 
d="M626.5 344.5q8.5 -8.5 8.5 -21.5v-241q0 -17 -15 -27q-45 -31 -100 -48t-112 -17q-102 0 -184 47t-129 129t-47 184t47 184t129 129t184 47q53 0 102.5 -13t88.5 -37q14 -9 14 -25q0 -13 -8.5 -22t-19.5 -9q-10 0 -18 5q-75 41 -159 41q-85 0 -152.5 -39t-105.5 -107.5
t-38 -153.5t38 -153.5t105.5 -107.5t152.5 -39q43 0 86.5 12t77.5 33v198h-158q-13 0 -22 8.5t-9 21.5t9 21.5t22 8.5h191q13 0 21.5 -8.5zM227 813q0 26 29 26h255q29 0 29 -26q0 -25 -29 -25h-255q-29 0 -29 25z" />
    <glyph glyph-name="H" unicode="H" horiz-adv-x="720" 
d="M617.5 691.5q8.5 -8.5 8.5 -22.5v-638q-1 -14 -10 -22.5t-22 -8.5t-22 9t-9 22v298h-406v-298q-1 -13 -10 -22t-22 -9q-14 0 -22.5 8.5t-8.5 22.5v638q0 14 9 22.5t23 8.5q13 0 22 -9t9 -22v-282h406v282q0 13 9.5 22t22.5 9q14 0 22.5 -8.5z" />
    <glyph glyph-name="Hbar" unicode="&#x126;" horiz-adv-x="832" 
d="M739 536q8 -8 8 -19q0 -12 -8 -20t-20 -8h-37v-458q-1 -14 -10 -22.5t-22 -8.5t-22 9t-9 22v298h-406v-298q-1 -13 -10 -22t-22 -9q-14 0 -22.5 8.5t-8.5 22.5v458h-37q-12 0 -20 8t-8 20t8 19.5t20 7.5h37v125q0 14 9 22.5t23 8.5q13 0 22 -9t9 -22v-125h406v125
q0 13 9.5 22t22.5 9q14 0 22.5 -8.5t8.5 -22.5v-125h37q12 0 20 -8zM619 387v102h-406v-102h406z" />
    <glyph glyph-name="uni1E2A" unicode="&#x1e2a;" horiz-adv-x="720" 
d="M617.5 691.5q8.5 -8.5 8.5 -22.5v-638q-1 -14 -10 -22.5t-22 -8.5t-22 9t-9 22v298h-406v-298q-1 -13 -10 -22t-22 -9q-14 0 -22.5 8.5t-8.5 22.5v638q0 14 9 22.5t23 8.5q13 0 22 -9t9 -22v-282h406v282q0 13 9.5 22t22.5 9q14 0 22.5 -8.5zM272.5 -115.5
q-37.5 35.5 -42.5 85.5q-2 11 4.5 19t17.5 8q12 0 19 -6t12 -18q6 -35 27 -54.5t51 -19.5q29 0 50 20t28 54q5 12 12 18t18 6t17.5 -8t4.5 -19q-5 -50 -42 -85.5t-88 -35.5t-88.5 35.5z" />
    <glyph glyph-name="Hcircumflex" unicode="&#x124;" horiz-adv-x="720" 
d="M617.5 691.5q8.5 -8.5 8.5 -22.5v-638q-1 -14 -10 -22.5t-22 -8.5t-22 9t-9 22v298h-406v-298q-1 -13 -10 -22t-22 -9q-14 0 -22.5 8.5t-8.5 22.5v638q0 14 9 22.5t23 8.5q13 0 22 -9t9 -22v-282h406v282q0 13 9.5 22t22.5 9q14 0 22.5 -8.5zM482 777q0 -5 -5 -10t-11 -5
q-11 0 -27 13l-83 60l-77 -61q-18 -13 -27 -13q-7 0 -12 4.5t-5 10.5q0 8 8 17l77 82q8 9 15 13t18 4h11q11 0 18 -4t16 -13l76 -81q8 -9 8 -17z" />
    <glyph glyph-name="uni1E24" unicode="&#x1e24;" horiz-adv-x="720" 
d="M617.5 691.5q8.5 -8.5 8.5 -22.5v-638q-1 -14 -10 -22.5t-22 -8.5t-22 9t-9 22v298h-406v-298q-1 -13 -10 -22t-22 -9q-14 0 -22.5 8.5t-8.5 22.5v638q0 14 9 22.5t23 8.5q13 0 22 -9t9 -22v-282h406v282q0 13 9.5 22t22.5 9q14 0 22.5 -8.5zM329 -129.5
q-11 10.5 -11 29.5v11q0 18 11.5 28.5t30.5 10.5q41 0 41 -39v-11q0 -19 -10.5 -29.5t-30.5 -10.5t-31 10.5z" />
    <glyph glyph-name="I" unicode="I" horiz-adv-x="250" 
d="M147 9q-9 -9 -22 -9q-14 0 -22.5 8.5t-8.5 22.5v638q0 14 9 22.5t23 8.5q13 0 22 -9t9 -22v-638q-1 -13 -10 -22z" />
    <glyph glyph-name="IJ" unicode="&#x132;" horiz-adv-x="599" 
d="M176 24.5q-50 34.5 -77 92.5q-5 8 -5 16q0 12 9.5 20t20.5 8q16 0 28 -17q19 -43 55 -68.5t81 -25.5q69 0 112 42.5t43 111.5v466q0 13 9 21.5t23 8.5t22.5 -8.5t8.5 -21.5v-466q0 -61 -28 -110t-77.5 -76.5t-112.5 -27.5q-62 0 -112 34.5zM160 245q-9 -9 -21 -9
q-14 0 -23 8.5t-9 22.5v402q0 13 9 22t23 9q13 0 22 -9t9 -22v-402q-1 -13 -10 -22z" />
    <glyph glyph-name="Iacute" unicode="&#xcd;" horiz-adv-x="250" 
d="M147 9q-9 -9 -22 -9q-14 0 -22.5 8.5t-8.5 22.5v638q0 14 9 22.5t23 8.5q13 0 22 -9t9 -22v-638q-1 -13 -10 -22zM115 751q-5 5 -5 13t10 18l89 69q13 11 29 11q13 0 21.5 -8.5t8.5 -21.5q0 -20 -19 -31l-98 -49q-14 -6 -22 -6q-9 0 -14 5z" />
    <glyph glyph-name="Ibreve" unicode="&#x12c;" horiz-adv-x="250" 
d="M147 9q-9 -9 -22 -9q-14 0 -22.5 8.5t-8.5 22.5v638q0 14 9 22.5t23 8.5q13 0 22 -9t9 -22v-638q-1 -13 -10 -22zM38.5 800.5q-35.5 26.5 -49.5 74.5q-2 8 -2 11q0 9 5.5 14t15.5 5q11 0 16.5 -4.5t13.5 -17.5q26 -58 88 -58q63 0 88 58q5 11 12 16t18 5q21 0 21 -17
q0 -4 -2 -12q-14 -48 -49.5 -74.5t-87.5 -26.5t-87.5 26.5z" />
    <glyph glyph-name="uni01CF" unicode="&#x1cf;" horiz-adv-x="250" 
d="M147 9q-9 -9 -22 -9q-14 0 -22.5 8.5t-8.5 22.5v638q0 14 9 22.5t23 8.5q13 0 22 -9t9 -22v-638q-1 -13 -10 -22zM244 880.5q5 -4.5 5 -10.5q0 -8 -8 -17l-77 -82q-11 -17 -33 -17h-11q-21 0 -34 17l-76 81q-8 9 -8 17q0 6 4.5 10.5t11.5 4.5q12 0 27 -12l83 -62l77 62
q16 13 27 13q7 0 12 -4.5z" />
    <glyph glyph-name="Icircumflex" unicode="&#xce;" horiz-adv-x="250" 
d="M147 9q-9 -9 -22 -9q-14 0 -22.5 8.5t-8.5 22.5v638q0 14 9 22.5t23 8.5q13 0 22 -9t9 -22v-638q-1 -13 -10 -22zM248 777q0 -5 -5 -10t-11 -5q-11 0 -27 13l-83 60l-77 -61q-18 -13 -27 -13q-7 0 -12 4.5t-5 10.5q0 8 8 17l77 82q8 9 15 13t18 4h11q11 0 18 -4t16 -13
l76 -81q8 -9 8 -17z" />
    <glyph glyph-name="uni0208" unicode="&#x208;" horiz-adv-x="250" 
d="M147 9q-9 -9 -22 -9q-14 0 -22.5 8.5t-8.5 22.5v638q0 14 9 22.5t23 8.5q13 0 22 -9t9 -22v-638q-1 -13 -10 -22zM63.5 758q-6.5 3 -8.5 4l-97 48q-20 11 -20 32q0 12 8.5 21t21.5 9q15 0 29 -12l89 -69q10 -8 10 -18q0 -7 -5 -12.5t-14 -5.5q-7 0 -13.5 3zM223 761
l-98 49q-19 11 -19 31q0 13 8.5 21.5t21.5 8.5q16 0 29 -11l89 -69q10 -10 10 -18t-5 -13t-14 -5q-8 0 -22 6z" />
    <glyph glyph-name="Idieresis" unicode="&#xcf;" horiz-adv-x="250" 
d="M147 9q-9 -9 -22 -9q-14 0 -22.5 8.5t-8.5 22.5v638q0 14 9 22.5t23 8.5q13 0 22 -9t9 -22v-638q-1 -13 -10 -22zM10 785.5q-11 10.5 -11 29.5v10q0 19 11.5 29.5t30.5 10.5t30 -10.5t11 -29.5v-10q0 -19 -11 -29.5t-31 -10.5q-19 0 -30 10.5zM182 785.5
q-11 10.5 -11 29.5v10q0 19 11 29.5t31 10.5q19 0 30 -10.5t11 -29.5v-10q0 -19 -11 -29.5t-31 -10.5q-19 0 -30 10.5z" />
    <glyph glyph-name="uni1E2E" unicode="&#x1e2e;" horiz-adv-x="250" 
d="M147 9q-9 -9 -22 -9q-14 0 -22.5 8.5t-8.5 22.5v638q0 14 9 22.5t23 8.5q13 0 22 -9t9 -22v-638q-1 -13 -10 -22zM10 785.5q-11 10.5 -11 29.5v10q0 19 11.5 29.5t30.5 10.5t30 -10.5t11 -29.5v-10q0 -19 -11 -29.5t-31 -10.5q-19 0 -30 10.5zM182 785.5
q-11 10.5 -11 29.5v10q0 19 11 29.5t31 10.5q19 0 30 -10.5t11 -29.5v-10q0 -19 -11 -29.5t-31 -10.5q-19 0 -30 10.5zM115 921q-5 5 -5 13t10 18l89 69q13 11 29 11q13 0 21.5 -8.5t8.5 -21.5q0 -20 -19 -31l-98 -49q-14 -6 -22 -6q-9 0 -14 5z" />
    <glyph glyph-name="Idotaccent" unicode="&#x130;" horiz-adv-x="250" 
d="M147 9q-9 -9 -22 -9q-14 0 -22.5 8.5t-8.5 22.5v638q0 14 9 22.5t23 8.5q13 0 22 -9t9 -22v-638q-1 -13 -10 -22zM95 780.5q-11 10.5 -11 29.5v10q0 19 11.5 29.5t31.5 10.5q40 0 40 -40v-10q0 -19 -10.5 -29.5t-30.5 -10.5t-31 10.5z" />
    <glyph glyph-name="uni1ECA" unicode="&#x1eca;" horiz-adv-x="250" 
d="M147 9q-9 -9 -22 -9q-14 0 -22.5 8.5t-8.5 22.5v638q0 14 9 22.5t23 8.5q13 0 22 -9t9 -22v-638q-1 -13 -10 -22zM95 -129.5q-11 10.5 -11 29.5v11q0 18 11.5 28.5t30.5 10.5q41 0 41 -39v-11q0 -19 -10.5 -29.5t-30.5 -10.5t-31 10.5z" />
    <glyph glyph-name="Igrave" unicode="&#xcc;" horiz-adv-x="250" 
d="M147 9q-9 -9 -22 -9q-14 0 -22.5 8.5t-8.5 22.5v638q0 14 9 22.5t23 8.5q13 0 22 -9t9 -22v-638q-1 -13 -10 -22zM104 753l-97 49q-20 11 -20 31q0 13 8.5 21.5t21.5 8.5q16 0 29 -11l89 -69q10 -10 10 -18t-5 -13t-14 -5q-8 0 -22 6z" />
    <glyph glyph-name="uni1EC8" unicode="&#x1ec8;" horiz-adv-x="250" 
d="M147 9q-9 -9 -22 -9q-14 0 -22.5 8.5t-8.5 22.5v638q0 14 9 22.5t23 8.5q13 0 22 -9t9 -22v-638q-1 -13 -10 -22zM123 934q43 0 62.5 -23t19.5 -51q0 -16 -8.5 -29.5t-25.5 -30.5q-12 -14 -12 -27q-1 -8 -7 -12t-16 -4q-8 0 -13.5 5t-5.5 12q0 24 14 40q17 18 23 26t6 19
q0 13 -10.5 21.5t-25.5 8.5q-22 0 -46 -18q-8 -8 -17 -8q-8 0 -16 8q-5 7 -5 14q0 9 9 18q33 31 74 31z" />
    <glyph glyph-name="uni020A" unicode="&#x20a;" horiz-adv-x="250" 
d="M147 9q-9 -9 -22 -9q-14 0 -22.5 8.5t-8.5 22.5v638q0 14 9 22.5t23 8.5q13 0 22 -9t9 -22v-638q-1 -13 -10 -22zM213 836.5q37 -28.5 42 -69.5q2 -11 -4.5 -19t-17.5 -8t-18 6t-12 18q-7 24 -28 37.5t-50 13.5q-30 0 -51 -13.5t-27 -37.5q-5 -12 -12 -18t-19 -6
q-11 0 -17.5 7.5t-4.5 18.5q5 42 42 70.5t89 28.5q51 0 88 -28.5z" />
    <glyph glyph-name="Imacron" unicode="&#x12a;" horiz-adv-x="250" 
d="M147 9q-9 -9 -22 -9q-14 0 -22.5 8.5t-8.5 22.5v638q0 14 9 22.5t23 8.5q13 0 22 -9t9 -22v-638q-1 -13 -10 -22zM-27 813q0 26 29 26h255q29 0 29 -26q0 -25 -29 -25h-255q-29 0 -29 25z" />
    <glyph glyph-name="Iogonek" unicode="&#x12e;" horiz-adv-x="235" 
 />
    <glyph glyph-name="Itilde" unicode="&#x128;" horiz-adv-x="250" 
d="M147 9q-9 -9 -22 -9q-14 0 -22.5 8.5t-8.5 22.5v638q0 14 9 22.5t23 8.5q13 0 22 -9t9 -22v-638q-1 -13 -10 -22zM-20.5 779q-6.5 8 -6.5 24q0 8 1 12q7 31 31 49t56 18q18 0 37.5 -8.5t44.5 -24.5q22 -13 34.5 -19t22.5 -6q14 0 22.5 10.5t10.5 28.5q-1 11 5 18.5
t17 7.5q12 0 18.5 -8.5t6.5 -23.5l-1 -11q-6 -33 -27.5 -52t-53.5 -19q-28 0 -80 32q-23 13 -36 19t-24 6q-14 0 -24.5 -9.5t-14.5 -29.5q0 -11 -6.5 -16.5t-15.5 -5.5q-11 0 -17.5 8z" />
    <glyph glyph-name="J" unicode="J" horiz-adv-x="572" 
d="M148 24.5q-50 34.5 -77 92.5q-5 8 -5 16q0 12 9.5 20t20.5 8q16 0 28 -17q19 -43 55 -68.5t81 -25.5q69 0 112 42.5t43 111.5v466q0 13 9 21.5t23 8.5t22.5 -8.5t8.5 -21.5v-466q0 -61 -28 -110t-77.5 -76.5t-112.5 -27.5q-62 0 -112 34.5z" />
    <glyph glyph-name="Jcircumflex" unicode="&#x134;" horiz-adv-x="572" 
d="M148 24.5q-50 34.5 -77 92.5q-5 8 -5 16q0 12 9.5 20t20.5 8q16 0 28 -17q19 -43 55 -68.5t81 -25.5q69 0 112 42.5t43 111.5v466q0 13 9 21.5t23 8.5t22.5 -8.5t8.5 -21.5v-466q0 -61 -28 -110t-77.5 -76.5t-112.5 -27.5q-62 0 -112 34.5zM569 777q0 -5 -5 -10t-11 -5
q-11 0 -27 13l-83 60l-77 -61q-18 -13 -27 -13q-7 0 -12 4.5t-5 10.5q0 8 8 17l77 82q8 9 15 13t18 4h11q11 0 18 -4t16 -13l76 -81q8 -9 8 -17z" />
    <glyph glyph-name="K" unicode="K" horiz-adv-x="675" 
d="M628 28q0 -15 -10.5 -23.5t-23.5 -8.5t-22 11l-279 351l-136 -128v-199q-1 -14 -10 -22.5t-22 -8.5q-14 0 -22.5 8.5t-8.5 22.5v638q0 14 9 22.5t23 8.5t22.5 -8.5t8.5 -22.5v-363l404 382q9 10 22 10q12 0 20.5 -9t8.5 -20q0 -12 -9 -21l-262 -245l280 -354q7 -10 7 -21
z" />
    <glyph glyph-name="Kcommaaccent" unicode="&#x136;" horiz-adv-x="675" 
d="M628 28q0 -15 -10.5 -23.5t-23.5 -8.5t-22 11l-279 351l-136 -128v-199q-1 -14 -10 -22.5t-22 -8.5q-14 0 -22.5 8.5t-8.5 22.5v638q0 14 9 22.5t23 8.5t22.5 -8.5t8.5 -22.5v-363l404 382q9 10 22 10q12 0 20.5 -9t8.5 -20q0 -12 -9 -21l-262 -245l280 -354q7 -10 7 -21
zM342.5 -160.5q-23.5 -22.5 -53.5 -22.5q-35 0 -35 20q0 8 4.5 13t10.5 5q3 0 9 -1.5t11 -1.5q6 0 9 1q8 1 13.5 9t5.5 22q0 13 -10 13q-4 0 -9.5 -4.5t-12.5 -4.5q-12 0 -19 8.5t-7 19.5q0 17 14 27t38 10t39.5 -15.5t15.5 -44.5q0 -31 -23.5 -53.5z" />
    <glyph glyph-name="L" unicode="L" horiz-adv-x="532" 
d="M502.5 51q8.5 -8 8.5 -21t-8.5 -21.5t-21.5 -8.5h-357q-13 0 -21.5 8.5t-8.5 21.5v640q0 13 9 21.5t23 8.5q13 0 22 -8.5t9 -21.5v-611h324q13 0 21.5 -8z" />
    <glyph glyph-name="uni01C7" unicode="&#x1c7;" horiz-adv-x="1104" 
d="M502.5 51q8.5 -8 8.5 -21t-8.5 -21.5t-21.5 -8.5h-357q-13 0 -21.5 8.5t-8.5 21.5v640q0 13 9 21.5t23 8.5q13 0 22 -8.5t9 -21.5v-611h324q13 0 21.5 -8zM680 24.5q-50 34.5 -77 92.5q-5 8 -5 16q0 12 9.5 20t20.5 8q16 0 28 -17q19 -43 55 -68.5t81 -25.5
q69 0 112 42.5t43 111.5v466q0 13 9 21.5t23 8.5t22.5 -8.5t8.5 -21.5v-466q0 -61 -28 -110t-77.5 -76.5t-112.5 -27.5q-62 0 -112 34.5z" />
    <glyph glyph-name="Lacute" unicode="&#x139;" horiz-adv-x="532" 
d="M502.5 51q8.5 -8 8.5 -21t-8.5 -21.5t-21.5 -8.5h-357q-13 0 -21.5 8.5t-8.5 21.5v640q0 13 9 21.5t23 8.5q13 0 22 -8.5t9 -21.5v-611h324q13 0 21.5 -8zM105 751q-5 5 -5 13t10 18l89 69q13 11 29 11q13 0 21.5 -8.5t8.5 -21.5q0 -20 -19 -31l-98 -49q-14 -6 -22 -6
q-9 0 -14 5z" />
    <glyph glyph-name="Lcaron" unicode="&#x13d;" horiz-adv-x="533" 
d="M502.5 51.5q8.5 -8.5 8.5 -21.5t-8.5 -21.5t-21.5 -8.5h-357q-13 0 -21.5 8.5t-8.5 21.5v640q0 13 8.5 21.5t21.5 8.5t21.5 -8.5t8.5 -21.5v-604q0 -6 6 -6h321q13 0 21.5 -8.5zM497.5 580.5q-14.5 -28.5 -36.5 -47t-43 -18.5q-11 0 -18.5 5.5t-7.5 16.5q0 10 5 14
t15.5 7t15.5 6q14 7 21.5 20.5t7.5 29.5q0 11 -6 18t-16 7q-16 0 -27 -9q-12 10 -12 24q0 18 18 31.5t39 13.5q26 0 42.5 -16.5t16.5 -45.5q0 -28 -14.5 -56.5z" />
    <glyph glyph-name="Lcommaaccent" unicode="&#x13b;" horiz-adv-x="532" 
d="M502.5 51q8.5 -8 8.5 -21t-8.5 -21.5t-21.5 -8.5h-357q-13 0 -21.5 8.5t-8.5 21.5v640q0 13 9 21.5t23 8.5q13 0 22 -8.5t9 -21.5v-611h324q13 0 21.5 -8zM320.5 -160.5q-23.5 -22.5 -53.5 -22.5q-35 0 -35 20q0 8 4.5 13t10.5 5q3 0 9 -1.5t11 -1.5q6 0 9 1q8 1 13.5 9
t5.5 22q0 13 -10 13q-4 0 -9.5 -4.5t-12.5 -4.5q-12 0 -19 8.5t-7 19.5q0 17 14 27t38 10t39.5 -15.5t15.5 -44.5q0 -31 -23.5 -53.5z" />
    <glyph glyph-name="Ldot" unicode="&#x13f;" horiz-adv-x="538" 
d="M502.5 51q8.5 -8 8.5 -21t-8.5 -21.5t-21.5 -8.5h-357q-13 0 -21.5 8.5t-8.5 21.5v640q0 13 9 21.5t23 8.5q13 0 22 -8.5t9 -21.5v-611h324q13 0 21.5 -8zM423.5 284.5q-10.5 10.5 -10.5 27.5v22q0 17 10.5 27.5t27.5 10.5h7q17 0 27.5 -10.5t10.5 -27.5v-22
q0 -17 -10.5 -27.5t-27.5 -10.5h-7q-17 0 -27.5 10.5z" />
    <glyph glyph-name="uni1E36" unicode="&#x1e36;" horiz-adv-x="532" 
d="M502.5 51q8.5 -8 8.5 -21t-8.5 -21.5t-21.5 -8.5h-357q-13 0 -21.5 8.5t-8.5 21.5v640q0 13 9 21.5t23 8.5q13 0 22 -8.5t9 -21.5v-611h324q13 0 21.5 -8zM254 -129.5q-11 10.5 -11 29.5v11q0 18 11.5 28.5t30.5 10.5q41 0 41 -39v-11q0 -19 -10.5 -29.5t-30.5 -10.5
t-31 10.5z" />
    <glyph glyph-name="uni01C8" unicode="&#x1c8;" horiz-adv-x="773" 
d="M502.5 51q8.5 -8 8.5 -21t-8.5 -21.5t-21.5 -8.5h-357q-13 0 -21.5 8.5t-8.5 21.5v640q0 13 9 21.5t23 8.5q13 0 22 -8.5t9 -21.5v-611h324q13 0 21.5 -8zM520 -190q-8 8 -8 20v4q0 11 7 18.5t19 9.5q37 7 61.5 32.5t24.5 68.5v516q0 13 8.5 21.5t21.5 8.5t21.5 -8.5
t8.5 -21.5v-525q0 -46 -21.5 -80.5t-55 -53t-67.5 -18.5q-12 0 -20 8zM623 597.5q-11 9.5 -11 27.5v10q0 18 11.5 27.5t31.5 9.5q40 0 40 -37v-10q0 -18 -10.5 -27.5t-30.5 -9.5t-31 9.5z" />
    <glyph glyph-name="uni1E3A" unicode="&#x1e3a;" horiz-adv-x="532" 
d="M502.5 51q8.5 -8 8.5 -21t-8.5 -21.5t-21.5 -8.5h-357q-13 0 -21.5 8.5t-8.5 21.5v640q0 13 9 21.5t23 8.5q13 0 22 -8.5t9 -21.5v-611h324q13 0 21.5 -8zM158 -101q0 25 28 25h210q28 0 28 -25t-28 -25h-210q-28 0 -28 25z" />
    <glyph glyph-name="Lslash" unicode="&#x141;" horiz-adv-x="579" 
d="M549.5 51.5q8.5 -8.5 8.5 -21.5t-8.5 -21.5t-21.5 -8.5h-357q-13 0 -21.5 8.5t-8.5 21.5v326l-56 -25q-4 -2 -12 -2q-13 0 -20 8t-7 19q0 17 17 25l78 34v255q0 13 8.5 21.5t21.5 8.5t21.5 -8.5t8.5 -21.5v-228l86 38q8 3 14 3q12 0 19 -9t7 -19q0 -17 -18 -25l-108 -48
v-322h327q13 0 21.5 -8.5z" />
    <glyph glyph-name="M" unicode="M" horiz-adv-x="827" 
d="M724.5 691.5q8.5 -8.5 8.5 -21.5v-640q0 -13 -9 -21.5t-22 -8.5q-14 0 -23 8.5t-9 21.5v550l-235 -356q-10 -13 -23 -12h-2q-12 0 -22 12l-235 358v-552q0 -13 -8.5 -21.5t-21.5 -8.5t-21 8.5t-8 21.5v640q0 12 8.5 21t21.5 9q7 0 15 -3.5t12 -9.5l262 -393l264 393
q11 15 27 13q12 0 20.5 -8.5z" />
    <glyph glyph-name="uni1E42" unicode="&#x1e42;" horiz-adv-x="827" 
d="M724.5 691.5q8.5 -8.5 8.5 -21.5v-640q0 -13 -9 -21.5t-22 -8.5q-14 0 -23 8.5t-9 21.5v550l-235 -356q-10 -13 -23 -12h-2q-12 0 -22 12l-235 358v-552q0 -13 -8.5 -21.5t-21.5 -8.5t-21 8.5t-8 21.5v640q0 12 8.5 21t21.5 9q7 0 15 -3.5t12 -9.5l262 -393l264 393
q11 15 27 13q12 0 20.5 -8.5zM383 -129.5q-11 10.5 -11 29.5v11q0 18 11.5 28.5t30.5 10.5q41 0 41 -39v-11q0 -19 -10.5 -29.5t-30.5 -10.5t-31 10.5z" />
    <glyph glyph-name="N" unicode="N" horiz-adv-x="728" 
d="M626.5 692q7.5 -8 7.5 -20v-640q0 -15 -9 -23.5t-22 -8.5q-7 0 -13.5 3t-10.5 7l-429 578v-561q0 -11 -8.5 -19t-19.5 -8q-12 0 -20 8t-8 19v643q0 14 8.5 22t20.5 8q16 0 24 -11l431 -581v564q0 12 8 20t20 8q13 0 20.5 -8z" />
    <glyph glyph-name="uni01CA" unicode="&#x1ca;" horiz-adv-x="1300" 
d="M626.5 692q7.5 -8 7.5 -20v-640q0 -15 -9 -23.5t-22 -8.5q-7 0 -13.5 3t-10.5 7l-429 578v-561q0 -11 -8.5 -19t-19.5 -8q-12 0 -20 8t-8 19v643q0 14 8.5 22t20.5 8q16 0 24 -11l431 -581v564q0 12 8 20t20 8q13 0 20.5 -8zM876 24.5q-50 34.5 -77 92.5q-5 8 -5 16
q0 12 9.5 20t20.5 8q16 0 28 -17q19 -43 55 -68.5t81 -25.5q69 0 112 42.5t43 111.5v466q0 13 9 21.5t23 8.5t22.5 -8.5t8.5 -21.5v-466q0 -61 -28 -110t-77.5 -76.5t-112.5 -27.5q-62 0 -112 34.5z" />
    <glyph glyph-name="Nacute" unicode="&#x143;" horiz-adv-x="728" 
d="M626.5 692q7.5 -8 7.5 -20v-640q0 -15 -9 -23.5t-22 -8.5q-7 0 -13.5 3t-10.5 7l-429 578v-561q0 -11 -8.5 -19t-19.5 -8q-12 0 -20 8t-8 19v643q0 14 8.5 22t20.5 8q16 0 24 -11l431 -581v564q0 12 8 20t20 8q13 0 20.5 -8zM353 751q-5 5 -5 13t10 18l89 69q13 11 29 11
q13 0 21.5 -8.5t8.5 -21.5q0 -20 -19 -31l-98 -49q-14 -6 -22 -6q-9 0 -14 5z" />
    <glyph glyph-name="Ncaron" unicode="&#x147;" horiz-adv-x="728" 
d="M626.5 692q7.5 -8 7.5 -20v-640q0 -15 -9 -23.5t-22 -8.5q-7 0 -13.5 3t-10.5 7l-429 578v-561q0 -11 -8.5 -19t-19.5 -8q-12 0 -20 8t-8 19v643q0 14 8.5 22t20.5 8q16 0 24 -11l431 -581v564q0 12 8 20t20 8q13 0 20.5 -8zM482 880.5q5 -4.5 5 -10.5q0 -8 -8 -17
l-77 -82q-11 -17 -33 -17h-11q-21 0 -34 17l-76 81q-8 9 -8 17q0 6 4.5 10.5t11.5 4.5q12 0 27 -12l83 -62l77 62q16 13 27 13q7 0 12 -4.5z" />
    <glyph glyph-name="Ncommaaccent" unicode="&#x145;" horiz-adv-x="728" 
d="M626.5 692q7.5 -8 7.5 -20v-640q0 -15 -9 -23.5t-22 -8.5q-7 0 -13.5 3t-10.5 7l-429 578v-561q0 -11 -8.5 -19t-19.5 -8q-12 0 -20 8t-8 19v643q0 14 8.5 22t20.5 8q16 0 24 -11l431 -581v564q0 12 8 20t20 8q13 0 20.5 -8zM399.5 -160.5q-23.5 -22.5 -53.5 -22.5
q-35 0 -35 20q0 8 4.5 13t10.5 5q3 0 9 -1.5t11 -1.5q6 0 9 1q8 1 13.5 9t5.5 22q0 13 -10 13q-4 0 -9.5 -4.5t-12.5 -4.5q-12 0 -19 8.5t-7 19.5q0 17 14 27t38 10t39.5 -15.5t15.5 -44.5q0 -31 -23.5 -53.5z" />
    <glyph glyph-name="uni1E44" unicode="&#x1e44;" horiz-adv-x="728" 
d="M626.5 692q7.5 -8 7.5 -20v-640q0 -15 -9 -23.5t-22 -8.5q-7 0 -13.5 3t-10.5 7l-429 578v-561q0 -11 -8.5 -19t-19.5 -8q-12 0 -20 8t-8 19v643q0 14 8.5 22t20.5 8q16 0 24 -11l431 -581v564q0 12 8 20t20 8q13 0 20.5 -8zM333 780.5q-11 10.5 -11 29.5v10
q0 19 11.5 29.5t31.5 10.5q40 0 40 -40v-10q0 -19 -10.5 -29.5t-30.5 -10.5t-31 10.5z" />
    <glyph glyph-name="uni1E46" unicode="&#x1e46;" horiz-adv-x="728" 
d="M626.5 692q7.5 -8 7.5 -20v-640q0 -15 -9 -23.5t-22 -8.5q-7 0 -13.5 3t-10.5 7l-429 578v-561q0 -11 -8.5 -19t-19.5 -8q-12 0 -20 8t-8 19v643q0 14 8.5 22t20.5 8q16 0 24 -11l431 -581v564q0 12 8 20t20 8q13 0 20.5 -8zM333 -129.5q-11 10.5 -11 29.5v11
q0 18 11.5 28.5t30.5 10.5q41 0 41 -39v-11q0 -19 -10.5 -29.5t-30.5 -10.5t-31 10.5z" />
    <glyph glyph-name="Eng" unicode="&#x14a;" horiz-adv-x="748" 
d="M645.5 688.5q8.5 -8.5 8.5 -21.5v-704q0 -75 -42.5 -119t-133.5 -44q-14 0 -23 7.5t-9 20.5t8.5 21t21.5 8q68 1 92.5 27t25.5 78l1 56l-441 568v-556q0 -13 -8.5 -21.5t-21.5 -8.5t-21.5 8.5t-8.5 21.5v640q0 13 9 21.5t22 8.5q7 0 14 -4t10 -9l445 -573v553
q0 13 8.5 21.5t21.5 8.5t21.5 -8.5z" />
    <glyph glyph-name="uni019D" unicode="&#x19d;" horiz-adv-x="728" 
d="M626.5 692q7.5 -8 7.5 -20v-640q0 -15 -9 -23.5t-22 -8.5q-7 0 -13.5 3t-10.5 7l-428 577v-633q0 -74 -43.5 -108.5t-96.5 -43.5q-13 -1 -22 7.5t-9 20.5q0 27 27 32q37 8 62 33t25 68v707q0 14 8.5 22t20.5 8q16 0 24 -11l430 -579v562q0 12 8.5 20t20.5 8q13 0 20.5 -8
z" />
    <glyph glyph-name="uni01CB" unicode="&#x1cb;" horiz-adv-x="969" 
d="M626.5 692q7.5 -8 7.5 -20v-640q0 -15 -9 -23.5t-22 -8.5q-7 0 -13.5 3t-10.5 7l-429 578v-561q0 -11 -8.5 -19t-19.5 -8q-12 0 -20 8t-8 19v643q0 14 8.5 22t20.5 8q16 0 24 -11l431 -581v564q0 12 8 20t20 8q13 0 20.5 -8zM716 -190q-8 8 -8 20v4q0 11 7 18.5t19 9.5
q37 7 61.5 32.5t24.5 68.5v516q0 13 8.5 21.5t21.5 8.5t21.5 -8.5t8.5 -21.5v-525q0 -46 -21.5 -80.5t-55 -53t-67.5 -18.5q-12 0 -20 8zM819 597.5q-11 9.5 -11 27.5v10q0 18 11.5 27.5t31.5 9.5q40 0 40 -37v-10q0 -18 -10.5 -27.5t-30.5 -9.5t-31 9.5z" />
    <glyph glyph-name="uni1E48" unicode="&#x1e48;" horiz-adv-x="728" 
d="M626.5 692q7.5 -8 7.5 -20v-640q0 -15 -9 -23.5t-22 -8.5q-7 0 -13.5 3t-10.5 7l-429 578v-561q0 -11 -8.5 -19t-19.5 -8q-12 0 -20 8t-8 19v643q0 14 8.5 22t20.5 8q16 0 24 -11l431 -581v564q0 12 8 20t20 8q13 0 20.5 -8zM237 -101q0 25 28 25h210q28 0 28 -25
t-28 -25h-210q-28 0 -28 25z" />
    <glyph glyph-name="Ntilde" unicode="&#xd1;" horiz-adv-x="728" 
d="M626.5 692q7.5 -8 7.5 -20v-640q0 -15 -9 -23.5t-22 -8.5q-7 0 -13.5 3t-10.5 7l-429 578v-561q0 -11 -8.5 -19t-19.5 -8q-12 0 -20 8t-8 19v643q0 14 8.5 22t20.5 8q16 0 24 -11l431 -581v564q0 12 8 20t20 8q13 0 20.5 -8zM217.5 779q-6.5 8 -6.5 24q0 8 1 12
q7 31 31 49t56 18q18 0 37.5 -8.5t44.5 -24.5q22 -13 34.5 -19t22.5 -6q14 0 22.5 10.5t10.5 28.5q-1 11 5 18.5t17 7.5q12 0 18.5 -8.5t6.5 -23.5l-1 -11q-6 -33 -27.5 -52t-53.5 -19q-28 0 -80 32q-23 13 -36 19t-24 6q-14 0 -24.5 -9.5t-14.5 -29.5q0 -11 -6.5 -16.5
t-15.5 -5.5q-11 0 -17.5 8z" />
    <glyph glyph-name="O" unicode="O" horiz-adv-x="766" 
d="M675 165q-43 -82 -119 -128.5t-173 -46.5t-173 46.5t-119 128.5t-43 185q0 104 43 186t119 128t173 46t173 -46t119 -128t43 -186q0 -103 -43 -185zM619.5 505.5q-34.5 68.5 -96 106.5t-140.5 38t-140.5 -38t-96 -106.5t-34.5 -155.5t34.5 -155.5t96 -106.5t140.5 -38
t140.5 38t96 106.5t34.5 155.5t-34.5 155.5z" />
    <glyph glyph-name="Oacute" unicode="&#xd3;" horiz-adv-x="766" 
d="M675 165q-43 -82 -119 -128.5t-173 -46.5t-173 46.5t-119 128.5t-43 185q0 104 43 186t119 128t173 46t173 -46t119 -128t43 -186q0 -103 -43 -185zM619.5 505.5q-34.5 68.5 -96 106.5t-140.5 38t-140.5 -38t-96 -106.5t-34.5 -155.5t34.5 -155.5t96 -106.5t140.5 -38
t140.5 38t96 106.5t34.5 155.5t-34.5 155.5zM372 751q-5 5 -5 13t10 18l89 69q13 11 29 11q13 0 21.5 -8.5t8.5 -21.5q0 -20 -19 -31l-98 -49q-14 -6 -22 -6q-9 0 -14 5z" />
    <glyph glyph-name="Obreve" unicode="&#x14e;" horiz-adv-x="766" 
d="M675 165q-43 -82 -119 -128.5t-173 -46.5t-173 46.5t-119 128.5t-43 185q0 104 43 186t119 128t173 46t173 -46t119 -128t43 -186q0 -103 -43 -185zM619.5 505.5q-34.5 68.5 -96 106.5t-140.5 38t-140.5 -38t-96 -106.5t-34.5 -155.5t34.5 -155.5t96 -106.5t140.5 -38
t140.5 38t96 106.5t34.5 155.5t-34.5 155.5zM295.5 800.5q-35.5 26.5 -49.5 74.5q-2 8 -2 11q0 9 5.5 14t15.5 5q11 0 16.5 -4.5t13.5 -17.5q26 -58 88 -58q63 0 88 58q5 11 12 16t18 5q21 0 21 -17q0 -4 -2 -12q-14 -48 -49.5 -74.5t-87.5 -26.5t-87.5 26.5z" />
    <glyph glyph-name="uni01D1" unicode="&#x1d1;" horiz-adv-x="766" 
d="M675 165q-43 -82 -119 -128.5t-173 -46.5t-173 46.5t-119 128.5t-43 185q0 104 43 186t119 128t173 46t173 -46t119 -128t43 -186q0 -103 -43 -185zM619.5 505.5q-34.5 68.5 -96 106.5t-140.5 38t-140.5 -38t-96 -106.5t-34.5 -155.5t34.5 -155.5t96 -106.5t140.5 -38
t140.5 38t96 106.5t34.5 155.5t-34.5 155.5zM501 880.5q5 -4.5 5 -10.5q0 -8 -8 -17l-77 -82q-11 -17 -33 -17h-11q-21 0 -34 17l-76 81q-8 9 -8 17q0 6 4.5 10.5t11.5 4.5q12 0 27 -12l83 -62l77 62q16 13 27 13q7 0 12 -4.5z" />
    <glyph glyph-name="Ocircumflex" unicode="&#xd4;" horiz-adv-x="766" 
d="M675 165q-43 -82 -119 -128.5t-173 -46.5t-173 46.5t-119 128.5t-43 185q0 104 43 186t119 128t173 46t173 -46t119 -128t43 -186q0 -103 -43 -185zM619.5 505.5q-34.5 68.5 -96 106.5t-140.5 38t-140.5 -38t-96 -106.5t-34.5 -155.5t34.5 -155.5t96 -106.5t140.5 -38
t140.5 38t96 106.5t34.5 155.5t-34.5 155.5zM505 777q0 -5 -5 -10t-11 -5q-11 0 -27 13l-83 60l-77 -61q-18 -13 -27 -13q-7 0 -12 4.5t-5 10.5q0 8 8 17l77 82q8 9 15 13t18 4h11q11 0 18 -4t16 -13l76 -81q8 -9 8 -17z" />
    <glyph glyph-name="uni1ED0" unicode="&#x1ed0;" horiz-adv-x="766" 
d="M675 165q-43 -82 -119 -128.5t-173 -46.5t-173 46.5t-119 128.5t-43 185q0 104 43 186t119 128t173 46t173 -46t119 -128t43 -186q0 -103 -43 -185zM619.5 505.5q-34.5 68.5 -96 106.5t-140.5 38t-140.5 -38t-96 -106.5t-34.5 -155.5t34.5 -155.5t96 -106.5t140.5 -38
t140.5 38t96 106.5t34.5 155.5t-34.5 155.5zM505 777q0 -5 -5 -10t-11 -5q-11 0 -27 13l-83 60l-77 -61q-18 -13 -27 -13q-7 0 -12 4.5t-5 10.5q0 8 8 17l77 82q8 9 15 13t18 4h11q11 0 18 -4t16 -13l76 -81q8 -9 8 -17zM507 830q-5 5 -5 13t10 18l89 69q13 11 29 11
q13 0 21.5 -8.5t8.5 -21.5q0 -20 -19 -31l-98 -49q-14 -6 -22 -6q-9 0 -14 5z" />
    <glyph glyph-name="uni1ED8" unicode="&#x1ed8;" horiz-adv-x="766" 
d="M675 165q-43 -82 -119 -128.5t-173 -46.5t-173 46.5t-119 128.5t-43 185q0 104 43 186t119 128t173 46t173 -46t119 -128t43 -186q0 -103 -43 -185zM619.5 505.5q-34.5 68.5 -96 106.5t-140.5 38t-140.5 -38t-96 -106.5t-34.5 -155.5t34.5 -155.5t96 -106.5t140.5 -38
t140.5 38t96 106.5t34.5 155.5t-34.5 155.5zM352 -129.5q-11 10.5 -11 29.5v11q0 18 11.5 28.5t30.5 10.5q41 0 41 -39v-11q0 -19 -10.5 -29.5t-30.5 -10.5t-31 10.5zM505 777q0 -5 -5 -10t-11 -5q-11 0 -27 13l-83 60l-77 -61q-18 -13 -27 -13q-7 0 -12 4.5t-5 10.5
q0 8 8 17l77 82q8 9 15 13t18 4h11q11 0 18 -4t16 -13l76 -81q8 -9 8 -17z" />
    <glyph glyph-name="uni1ED2" unicode="&#x1ed2;" horiz-adv-x="766" 
d="M675 165q-43 -82 -119 -128.5t-173 -46.5t-173 46.5t-119 128.5t-43 185q0 104 43 186t119 128t173 46t173 -46t119 -128t43 -186q0 -103 -43 -185zM619.5 505.5q-34.5 68.5 -96 106.5t-140.5 38t-140.5 -38t-96 -106.5t-34.5 -155.5t34.5 -155.5t96 -106.5t140.5 -38
t140.5 38t96 106.5t34.5 155.5t-34.5 155.5zM505 777q0 -5 -5 -10t-11 -5q-11 0 -27 13l-83 60l-77 -61q-18 -13 -27 -13q-7 0 -12 4.5t-5 10.5q0 8 8 17l77 82q8 9 15 13t18 4h11q11 0 18 -4t16 -13l76 -81q8 -9 8 -17zM488 885l-97 49q-20 11 -20 31q0 13 8.5 21.5
t21.5 8.5q16 0 29 -11l89 -69q10 -10 10 -18t-5 -13t-14 -5q-8 0 -22 6z" />
    <glyph glyph-name="uni1ED4" unicode="&#x1ed4;" horiz-adv-x="766" 
d="M675 165q-43 -82 -119 -128.5t-173 -46.5t-173 46.5t-119 128.5t-43 185q0 104 43 186t119 128t173 46t173 -46t119 -128t43 -186q0 -103 -43 -185zM619.5 505.5q-34.5 68.5 -96 106.5t-140.5 38t-140.5 -38t-96 -106.5t-34.5 -155.5t34.5 -155.5t96 -106.5t140.5 -38
t140.5 38t96 106.5t34.5 155.5t-34.5 155.5zM501 786q0 -5 -5 -10t-11 -5q-8 0 -13 3t-14 11l-79 63l-76 -64q-2 -1 -7.5 -5.5t-9.5 -6.5t-9 -2q-7 0 -12 5t-5 11q0 8 8 16l73 80q11 17 33 17h16q12 0 19 -3.5t13 -13.5l72 -79q7 -8 7 -17zM519 1007q42 0 61.5 -23t19.5 -51
q0 -16 -8 -29t-25 -31q-12 -13 -13 -27q-1 -8 -7 -13t-14 -5q-9 0 -15 5.5t-6 13.5q0 24 15 40q4 4 12.5 13.5t12.5 17t4 14.5q0 13 -11 21.5t-26 8.5q-21 0 -45 -18q-10 -8 -18 -8t-16 8q-5 7 -5 14q0 9 9 18q34 31 75 31z" />
    <glyph glyph-name="uni1ED6" unicode="&#x1ed6;" horiz-adv-x="766" 
d="M675 165q-43 -82 -119 -128.5t-173 -46.5t-173 46.5t-119 128.5t-43 185q0 104 43 186t119 128t173 46t173 -46t119 -128t43 -186q0 -103 -43 -185zM619.5 505.5q-34.5 68.5 -96 106.5t-140.5 38t-140.5 -38t-96 -106.5t-34.5 -155.5t34.5 -155.5t96 -106.5t140.5 -38
t140.5 38t96 106.5t34.5 155.5t-34.5 155.5zM505 777q0 -5 -5 -10t-11 -5q-11 0 -27 13l-83 60l-77 -61q-18 -13 -27 -13q-7 0 -12 4.5t-5 10.5q0 8 8 17l77 82q8 9 15 13t18 4h11q11 0 18 -4t16 -13l76 -81q8 -9 8 -17zM238.5 905q-6.5 8 -6.5 24q0 8 1 12q7 31 31 49
t56 18q18 0 37.5 -8.5t44.5 -24.5q22 -13 34.5 -19t22.5 -6q14 0 22.5 10.5t10.5 28.5q-1 11 5 18.5t17 7.5q12 0 18.5 -8.5t6.5 -23.5l-1 -11q-6 -33 -27.5 -52t-53.5 -19q-28 0 -80 32q-23 13 -36 19t-24 6q-14 0 -24.5 -9.5t-14.5 -29.5q0 -11 -6.5 -16.5t-15.5 -5.5
q-11 0 -17.5 8z" />
    <glyph glyph-name="uni020C" unicode="&#x20c;" horiz-adv-x="766" 
d="M675 165q-43 -82 -119 -128.5t-173 -46.5t-173 46.5t-119 128.5t-43 185q0 104 43 186t119 128t173 46t173 -46t119 -128t43 -186q0 -103 -43 -185zM619.5 505.5q-34.5 68.5 -96 106.5t-140.5 38t-140.5 -38t-96 -106.5t-34.5 -155.5t34.5 -155.5t96 -106.5t140.5 -38
t140.5 38t96 106.5t34.5 155.5t-34.5 155.5zM320.5 758q-6.5 3 -8.5 4l-97 48q-20 11 -20 32q0 12 8.5 21t21.5 9q15 0 29 -12l89 -69q10 -8 10 -18q0 -7 -5 -12.5t-14 -5.5q-7 0 -13.5 3zM480 761l-98 49q-19 11 -19 31q0 13 8.5 21.5t21.5 8.5q16 0 29 -11l89 -69
q10 -10 10 -18t-5 -13t-14 -5q-8 0 -22 6z" />
    <glyph glyph-name="Odieresis" unicode="&#xd6;" horiz-adv-x="766" 
d="M675 165q-43 -82 -119 -128.5t-173 -46.5t-173 46.5t-119 128.5t-43 185q0 104 43 186t119 128t173 46t173 -46t119 -128t43 -186q0 -103 -43 -185zM619.5 505.5q-34.5 68.5 -96 106.5t-140.5 38t-140.5 -38t-96 -106.5t-34.5 -155.5t34.5 -155.5t96 -106.5t140.5 -38
t140.5 38t96 106.5t34.5 155.5t-34.5 155.5zM267 785.5q-11 10.5 -11 29.5v10q0 19 11.5 29.5t30.5 10.5t30 -10.5t11 -29.5v-10q0 -19 -11 -29.5t-31 -10.5q-19 0 -30 10.5zM439 785.5q-11 10.5 -11 29.5v10q0 19 11 29.5t31 10.5q19 0 30 -10.5t11 -29.5v-10
q0 -19 -11 -29.5t-31 -10.5q-19 0 -30 10.5z" />
    <glyph glyph-name="uni022A" unicode="&#x22a;" horiz-adv-x="766" 
d="M675 165q-43 -82 -119 -128.5t-173 -46.5t-173 46.5t-119 128.5t-43 185q0 104 43 186t119 128t173 46t173 -46t119 -128t43 -186q0 -103 -43 -185zM619.5 505.5q-34.5 68.5 -96 106.5t-140.5 38t-140.5 -38t-96 -106.5t-34.5 -155.5t34.5 -155.5t96 -106.5t140.5 -38
t140.5 38t96 106.5t34.5 155.5t-34.5 155.5zM267 785.5q-11 10.5 -11 29.5v10q0 19 11.5 29.5t30.5 10.5t30 -10.5t11 -29.5v-10q0 -19 -11 -29.5t-31 -10.5q-19 0 -30 10.5zM439 785.5q-11 10.5 -11 29.5v10q0 19 11 29.5t31 10.5q19 0 30 -10.5t11 -29.5v-10
q0 -19 -11 -29.5t-31 -10.5q-19 0 -30 10.5zM230 983q0 26 29 26h255q29 0 29 -26q0 -25 -29 -25h-255q-29 0 -29 25z" />
    <glyph glyph-name="uni0230" unicode="&#x230;" horiz-adv-x="766" 
d="M675 165q-43 -82 -119 -128.5t-173 -46.5t-173 46.5t-119 128.5t-43 185q0 104 43 186t119 128t173 46t173 -46t119 -128t43 -186q0 -103 -43 -185zM619.5 505.5q-34.5 68.5 -96 106.5t-140.5 38t-140.5 -38t-96 -106.5t-34.5 -155.5t34.5 -155.5t96 -106.5t140.5 -38
t140.5 38t96 106.5t34.5 155.5t-34.5 155.5zM352 780.5q-11 10.5 -11 29.5v10q0 19 11.5 29.5t31.5 10.5q40 0 40 -40v-10q0 -19 -10.5 -29.5t-30.5 -10.5t-31 10.5zM230 983q0 26 29 26h255q29 0 29 -26q0 -25 -29 -25h-255q-29 0 -29 25z" />
    <glyph glyph-name="uni1ECC" unicode="&#x1ecc;" horiz-adv-x="766" 
d="M675 165q-43 -82 -119 -128.5t-173 -46.5t-173 46.5t-119 128.5t-43 185q0 104 43 186t119 128t173 46t173 -46t119 -128t43 -186q0 -103 -43 -185zM619.5 505.5q-34.5 68.5 -96 106.5t-140.5 38t-140.5 -38t-96 -106.5t-34.5 -155.5t34.5 -155.5t96 -106.5t140.5 -38
t140.5 38t96 106.5t34.5 155.5t-34.5 155.5zM352 -129.5q-11 10.5 -11 29.5v11q0 18 11.5 28.5t30.5 10.5q41 0 41 -39v-11q0 -19 -10.5 -29.5t-30.5 -10.5t-31 10.5z" />
    <glyph glyph-name="Ograve" unicode="&#xd2;" horiz-adv-x="766" 
d="M675 165q-43 -82 -119 -128.5t-173 -46.5t-173 46.5t-119 128.5t-43 185q0 104 43 186t119 128t173 46t173 -46t119 -128t43 -186q0 -103 -43 -185zM619.5 505.5q-34.5 68.5 -96 106.5t-140.5 38t-140.5 -38t-96 -106.5t-34.5 -155.5t34.5 -155.5t96 -106.5t140.5 -38
t140.5 38t96 106.5t34.5 155.5t-34.5 155.5zM361 753l-97 49q-20 11 -20 31q0 13 8.5 21.5t21.5 8.5q16 0 29 -11l89 -69q10 -10 10 -18t-5 -13t-14 -5q-8 0 -22 6z" />
    <glyph glyph-name="uni1ECE" unicode="&#x1ece;" horiz-adv-x="766" 
d="M675 165q-43 -82 -119 -128.5t-173 -46.5t-173 46.5t-119 128.5t-43 185q0 104 43 186t119 128t173 46t173 -46t119 -128t43 -186q0 -103 -43 -185zM619.5 505.5q-34.5 68.5 -96 106.5t-140.5 38t-140.5 -38t-96 -106.5t-34.5 -155.5t34.5 -155.5t96 -106.5t140.5 -38
t140.5 38t96 106.5t34.5 155.5t-34.5 155.5zM380 934q43 0 62.5 -23t19.5 -51q0 -16 -8.5 -29.5t-25.5 -30.5q-12 -14 -12 -27q-1 -8 -7 -12t-16 -4q-8 0 -13.5 5t-5.5 12q0 24 14 40q17 18 23 26t6 19q0 13 -10.5 21.5t-25.5 8.5q-22 0 -46 -18q-8 -8 -17 -8q-8 0 -16 8
q-5 7 -5 14q0 9 9 18q33 31 74 31z" />
    <glyph glyph-name="Ohorn" unicode="&#x1a0;" horiz-adv-x="766" 
d="M673 539q45 -83 45 -189q0 -103 -43 -185t-119 -128.5t-173 -46.5t-173 46.5t-119 128.5t-43 185q0 104 43 186t119 128t173 46q44 0 88 -11q44 2 64.5 20t20.5 57q0 15 6.5 25.5t19.5 10.5q26 0 26 -36q0 -37 -15 -65t-43 -44q78 -45 123 -128zM523.5 88
q61.5 38 96 106.5t34.5 155.5t-34.5 155.5t-96 106.5t-140.5 38t-140.5 -38t-96 -106.5t-34.5 -155.5t34.5 -155.5t96 -106.5t140.5 -38t140.5 38z" />
    <glyph glyph-name="uni1EDA" unicode="&#x1eda;" horiz-adv-x="766" 
d="M673 539q45 -83 45 -189q0 -103 -43 -185t-119 -128.5t-173 -46.5t-173 46.5t-119 128.5t-43 185q0 104 43 186t119 128t173 46q44 0 88 -11q44 2 64.5 20t20.5 57q0 15 6.5 25.5t19.5 10.5q26 0 26 -36q0 -37 -15 -65t-43 -44q78 -45 123 -128zM523.5 88
q61.5 38 96 106.5t34.5 155.5t-34.5 155.5t-96 106.5t-140.5 38t-140.5 -38t-96 -106.5t-34.5 -155.5t34.5 -155.5t96 -106.5t140.5 -38t140.5 38zM372 751q-5 5 -5 13t10 18l89 69q13 11 29 11q13 0 21.5 -8.5t8.5 -21.5q0 -20 -19 -31l-98 -49q-14 -6 -22 -6q-9 0 -14 5z
" />
    <glyph glyph-name="uni1EE2" unicode="&#x1ee2;" horiz-adv-x="766" 
d="M673 539q45 -83 45 -189q0 -103 -43 -185t-119 -128.5t-173 -46.5t-173 46.5t-119 128.5t-43 185q0 104 43 186t119 128t173 46q44 0 88 -11q44 2 64.5 20t20.5 57q0 15 6.5 25.5t19.5 10.5q26 0 26 -36q0 -37 -15 -65t-43 -44q78 -45 123 -128zM523.5 88
q61.5 38 96 106.5t34.5 155.5t-34.5 155.5t-96 106.5t-140.5 38t-140.5 -38t-96 -106.5t-34.5 -155.5t34.5 -155.5t96 -106.5t140.5 -38t140.5 38zM352 -129.5q-11 10.5 -11 29.5v11q0 18 11.5 28.5t30.5 10.5q41 0 41 -39v-11q0 -19 -10.5 -29.5t-30.5 -10.5t-31 10.5z" />
    <glyph glyph-name="uni1EDC" unicode="&#x1edc;" horiz-adv-x="766" 
d="M673 539q45 -83 45 -189q0 -103 -43 -185t-119 -128.5t-173 -46.5t-173 46.5t-119 128.5t-43 185q0 104 43 186t119 128t173 46q44 0 88 -11q44 2 64.5 20t20.5 57q0 15 6.5 25.5t19.5 10.5q26 0 26 -36q0 -37 -15 -65t-43 -44q78 -45 123 -128zM523.5 88
q61.5 38 96 106.5t34.5 155.5t-34.5 155.5t-96 106.5t-140.5 38t-140.5 -38t-96 -106.5t-34.5 -155.5t34.5 -155.5t96 -106.5t140.5 -38t140.5 38zM361 753l-97 49q-20 11 -20 31q0 13 8.5 21.5t21.5 8.5q16 0 29 -11l89 -69q10 -10 10 -18t-5 -13t-14 -5q-8 0 -22 6z" />
    <glyph glyph-name="uni1EDE" unicode="&#x1ede;" horiz-adv-x="766" 
d="M673 539q45 -83 45 -189q0 -103 -43 -185t-119 -128.5t-173 -46.5t-173 46.5t-119 128.5t-43 185q0 104 43 186t119 128t173 46q44 0 88 -11q44 2 64.5 20t20.5 57q0 15 6.5 25.5t19.5 10.5q26 0 26 -36q0 -37 -15 -65t-43 -44q78 -45 123 -128zM523.5 88
q61.5 38 96 106.5t34.5 155.5t-34.5 155.5t-96 106.5t-140.5 38t-140.5 -38t-96 -106.5t-34.5 -155.5t34.5 -155.5t96 -106.5t140.5 -38t140.5 38zM380 934q43 0 62.5 -23t19.5 -51q0 -16 -8.5 -29.5t-25.5 -30.5q-12 -14 -12 -27q-1 -8 -7 -12t-16 -4q-8 0 -13.5 5t-5.5 12
q0 24 14 40q17 18 23 26t6 19q0 13 -10.5 21.5t-25.5 8.5q-22 0 -46 -18q-8 -8 -17 -8q-8 0 -16 8q-5 7 -5 14q0 9 9 18q33 31 74 31z" />
    <glyph glyph-name="uni1EE0" unicode="&#x1ee0;" horiz-adv-x="766" 
d="M673 539q45 -83 45 -189q0 -103 -43 -185t-119 -128.5t-173 -46.5t-173 46.5t-119 128.5t-43 185q0 104 43 186t119 128t173 46q44 0 88 -11q44 2 64.5 20t20.5 57q0 15 6.5 25.5t19.5 10.5q26 0 26 -36q0 -37 -15 -65t-43 -44q78 -45 123 -128zM523.5 88
q61.5 38 96 106.5t34.5 155.5t-34.5 155.5t-96 106.5t-140.5 38t-140.5 -38t-96 -106.5t-34.5 -155.5t34.5 -155.5t96 -106.5t140.5 -38t140.5 38zM232.5 783q-6.5 8 -6.5 24q0 8 1 12q7 31 31 49t56 18q18 0 37.5 -8.5t44.5 -24.5q22 -13 34.5 -19t22.5 -6q14 0 22.5 10.5
t10.5 28.5q-1 11 5 18.5t17 7.5q12 0 18.5 -8.5t6.5 -23.5l-1 -11q-6 -33 -27.5 -52t-53.5 -19q-28 0 -80 32q-23 13 -36 19t-24 6q-14 0 -24.5 -9.5t-14.5 -29.5q0 -11 -6.5 -16.5t-15.5 -5.5q-11 0 -17.5 8z" />
    <glyph glyph-name="Ohungarumlaut" unicode="&#x150;" horiz-adv-x="766" 
d="M675 165q-43 -82 -119 -128.5t-173 -46.5t-173 46.5t-119 128.5t-43 185q0 104 43 186t119 128t173 46t173 -46t119 -128t43 -186q0 -103 -43 -185zM619.5 505.5q-34.5 68.5 -96 106.5t-140.5 38t-140.5 -38t-96 -106.5t-34.5 -155.5t34.5 -155.5t96 -106.5t140.5 -38
t140.5 38t96 106.5t34.5 155.5t-34.5 155.5zM272 748.5q-4 4.5 -4 10.5q0 7 7 19l57 85q10 20 31 20q14 0 24 -8.5t10 -22.5q0 -11 -10 -21l-69 -70q-19 -17 -35 -17q-7 0 -11 4.5zM429 748.5q-4 4.5 -4 10.5q0 8 7 19l57 86q10 18 31 18q13 0 23 -7.5t10 -21.5
q0 -13 -9 -22l-69 -70q-19 -17 -35 -17q-7 0 -11 4.5z" />
    <glyph glyph-name="uni020E" unicode="&#x20e;" horiz-adv-x="766" 
d="M675 165q-43 -82 -119 -128.5t-173 -46.5t-173 46.5t-119 128.5t-43 185q0 104 43 186t119 128t173 46t173 -46t119 -128t43 -186q0 -103 -43 -185zM619.5 505.5q-34.5 68.5 -96 106.5t-140.5 38t-140.5 -38t-96 -106.5t-34.5 -155.5t34.5 -155.5t96 -106.5t140.5 -38
t140.5 38t96 106.5t34.5 155.5t-34.5 155.5zM470 836.5q37 -28.5 42 -69.5q2 -11 -4.5 -19t-17.5 -8t-18 6t-12 18q-7 24 -28 37.5t-50 13.5q-30 0 -51 -13.5t-27 -37.5q-5 -12 -12 -18t-19 -6q-11 0 -17.5 7.5t-4.5 18.5q5 42 42 70.5t89 28.5q51 0 88 -28.5z" />
    <glyph glyph-name="Omacron" unicode="&#x14c;" horiz-adv-x="766" 
d="M675 165q-43 -82 -119 -128.5t-173 -46.5t-173 46.5t-119 128.5t-43 185q0 104 43 186t119 128t173 46t173 -46t119 -128t43 -186q0 -103 -43 -185zM619.5 505.5q-34.5 68.5 -96 106.5t-140.5 38t-140.5 -38t-96 -106.5t-34.5 -155.5t34.5 -155.5t96 -106.5t140.5 -38
t140.5 38t96 106.5t34.5 155.5t-34.5 155.5zM230 813q0 26 29 26h255q29 0 29 -26q0 -25 -29 -25h-255q-29 0 -29 25z" />
    <glyph glyph-name="uni1E52" unicode="&#x1e52;" horiz-adv-x="766" 
d="M675 165q-43 -82 -119 -128.5t-173 -46.5t-173 46.5t-119 128.5t-43 185q0 104 43 186t119 128t173 46t173 -46t119 -128t43 -186q0 -103 -43 -185zM619.5 505.5q-34.5 68.5 -96 106.5t-140.5 38t-140.5 -38t-96 -106.5t-34.5 -155.5t34.5 -155.5t96 -106.5t140.5 -38
t140.5 38t96 106.5t34.5 155.5t-34.5 155.5zM230 813q0 26 29 26h255q29 0 29 -26q0 -25 -29 -25h-255q-29 0 -29 25zM372 905q-5 5 -5 13t10 18l89 69q13 11 29 11q13 0 21.5 -8.5t8.5 -21.5q0 -20 -19 -31l-98 -49q-14 -6 -22 -6q-9 0 -14 5z" />
    <glyph glyph-name="uni1E50" unicode="&#x1e50;" horiz-adv-x="766" 
d="M675 165q-43 -82 -119 -128.5t-173 -46.5t-173 46.5t-119 128.5t-43 185q0 104 43 186t119 128t173 46t173 -46t119 -128t43 -186q0 -103 -43 -185zM619.5 505.5q-34.5 68.5 -96 106.5t-140.5 38t-140.5 -38t-96 -106.5t-34.5 -155.5t34.5 -155.5t96 -106.5t140.5 -38
t140.5 38t96 106.5t34.5 155.5t-34.5 155.5zM230 813q0 26 29 26h255q29 0 29 -26q0 -25 -29 -25h-255q-29 0 -29 25zM361 907l-97 49q-20 11 -20 31q0 13 8.5 21.5t21.5 8.5q16 0 29 -11l89 -69q10 -10 10 -18t-5 -13t-14 -5q-8 0 -22 6z" />
    <glyph glyph-name="uni01EA" unicode="&#x1ea;" horiz-adv-x="766" 
d="M398.5 -37.5q-17.5 -21.5 -17.5 -45.5q0 -26 14.5 -41.5t34.5 -15.5q10 0 16 1.5t10 7.5q15 18 29 18q10 0 16 -6t6 -16q0 -22 -24.5 -39t-58.5 -17q-39 0 -67.5 26.5t-28.5 69.5q0 51 36 85q-92 5 -164 52.5t-112 127.5t-40 180q0 104 43 186t119 128t173 46t173 -46
t119 -128t43 -186q0 -92 -34.5 -168t-97 -125t-143.5 -62q-27 -11 -44.5 -32.5zM146.5 194.5q34.5 -68.5 96 -106.5t140.5 -38t140.5 38t96 106.5t34.5 155.5t-34.5 155.5t-96 106.5t-140.5 38t-140.5 -38t-96 -106.5t-34.5 -155.5t34.5 -155.5z" />
    <glyph glyph-name="Oslash" unicode="&#xd8;" horiz-adv-x="726" 
d="M691.5 498.5q26.5 -68.5 26.5 -148.5q0 -103 -43 -185t-119 -128.5t-173 -46.5q-64 0 -119.5 20.5t-98.5 59.5l-63 -76q-13 -17 -29 -17q-10 0 -17.5 8t-7.5 18t7 18l72 88q-38 47 -58.5 108.5t-20.5 132.5q0 104 43 186t119 128t173 46q111 0 193 -59l51 62
q6 8 11.5 10.5t14.5 2.5q10 0 18 -7t8 -17q0 -11 -8 -20l-54 -66q48 -49 74.5 -117.5zM168 158l368 445q-66 47 -153 47q-79 0 -140.5 -38t-96 -106.5t-34.5 -155.5q0 -113 56 -192zM523.5 88q61.5 38 96 106.5t34.5 155.5q0 66 -20 122t-57 96l-373 -451q35 -32 80.5 -49.5
t98.5 -17.5q79 0 140.5 38z" />
    <glyph glyph-name="Oslashacute" unicode="&#x1fe;" horiz-adv-x="726" 
d="M691.5 498.5q26.5 -68.5 26.5 -148.5q0 -103 -43 -185t-119 -128.5t-173 -46.5q-64 0 -119.5 20.5t-98.5 59.5l-63 -76q-13 -17 -29 -17q-10 0 -17.5 8t-7.5 18t7 18l72 88q-38 47 -58.5 108.5t-20.5 132.5q0 104 43 186t119 128t173 46q111 0 193 -59l51 62
q6 8 11.5 10.5t14.5 2.5q10 0 18 -7t8 -17q0 -11 -8 -20l-54 -66q48 -49 74.5 -117.5zM168 158l368 445q-66 47 -153 47q-79 0 -140.5 -38t-96 -106.5t-34.5 -155.5q0 -113 56 -192zM523.5 88q61.5 38 96 106.5t34.5 155.5q0 66 -20 122t-57 96l-373 -451q35 -32 80.5 -49.5
t98.5 -17.5q79 0 140.5 38zM352 751q-5 5 -5 13t10 18l89 69q13 11 29 11q13 0 21.5 -8.5t8.5 -21.5q0 -20 -19 -31l-98 -49q-14 -6 -22 -6q-9 0 -14 5z" />
    <glyph glyph-name="Otilde" unicode="&#xd5;" horiz-adv-x="766" 
d="M675 165q-43 -82 -119 -128.5t-173 -46.5t-173 46.5t-119 128.5t-43 185q0 104 43 186t119 128t173 46t173 -46t119 -128t43 -186q0 -103 -43 -185zM619.5 505.5q-34.5 68.5 -96 106.5t-140.5 38t-140.5 -38t-96 -106.5t-34.5 -155.5t34.5 -155.5t96 -106.5t140.5 -38
t140.5 38t96 106.5t34.5 155.5t-34.5 155.5zM236.5 779q-6.5 8 -6.5 24q0 8 1 12q7 31 31 49t56 18q18 0 37.5 -8.5t44.5 -24.5q22 -13 34.5 -19t22.5 -6q14 0 22.5 10.5t10.5 28.5q-1 11 5 18.5t17 7.5q12 0 18.5 -8.5t6.5 -23.5l-1 -11q-6 -33 -27.5 -52t-53.5 -19
q-28 0 -80 32q-23 13 -36 19t-24 6q-14 0 -24.5 -9.5t-14.5 -29.5q0 -11 -6.5 -16.5t-15.5 -5.5q-11 0 -17.5 8z" />
    <glyph glyph-name="uni1E4C" unicode="&#x1e4c;" horiz-adv-x="766" 
d="M675 165q-43 -82 -119 -128.5t-173 -46.5t-173 46.5t-119 128.5t-43 185q0 104 43 186t119 128t173 46t173 -46t119 -128t43 -186q0 -103 -43 -185zM619.5 505.5q-34.5 68.5 -96 106.5t-140.5 38t-140.5 -38t-96 -106.5t-34.5 -155.5t34.5 -155.5t96 -106.5t140.5 -38
t140.5 38t96 106.5t34.5 155.5t-34.5 155.5zM236.5 779q-6.5 8 -6.5 24q0 8 1 12q7 31 31 49t56 18q18 0 37.5 -8.5t44.5 -24.5q22 -13 34.5 -19t22.5 -6q14 0 22.5 10.5t10.5 28.5q-1 11 5 18.5t17 7.5q12 0 18.5 -8.5t6.5 -23.5l-1 -11q-6 -33 -27.5 -52t-53.5 -19
q-28 0 -80 32q-23 13 -36 19t-24 6q-14 0 -24.5 -9.5t-14.5 -29.5q0 -11 -6.5 -16.5t-15.5 -5.5q-11 0 -17.5 8zM372 943q-5 5 -5 13t10 18l89 69q13 11 29 11q13 0 21.5 -8.5t8.5 -21.5q0 -20 -19 -31l-98 -49q-14 -6 -22 -6q-9 0 -14 5z" />
    <glyph glyph-name="uni1E4E" unicode="&#x1e4e;" horiz-adv-x="766" 
d="M675 165q-43 -82 -119 -128.5t-173 -46.5t-173 46.5t-119 128.5t-43 185q0 104 43 186t119 128t173 46t173 -46t119 -128t43 -186q0 -103 -43 -185zM619.5 505.5q-34.5 68.5 -96 106.5t-140.5 38t-140.5 -38t-96 -106.5t-34.5 -155.5t34.5 -155.5t96 -106.5t140.5 -38
t140.5 38t96 106.5t34.5 155.5t-34.5 155.5zM236.5 779q-6.5 8 -6.5 24q0 8 1 12q7 31 31 49t56 18q18 0 37.5 -8.5t44.5 -24.5q22 -13 34.5 -19t22.5 -6q14 0 22.5 10.5t10.5 28.5q-1 11 5 18.5t17 7.5q12 0 18.5 -8.5t6.5 -23.5l-1 -11q-6 -33 -27.5 -52t-53.5 -19
q-28 0 -80 32q-23 13 -36 19t-24 6q-14 0 -24.5 -9.5t-14.5 -29.5q0 -11 -6.5 -16.5t-15.5 -5.5q-11 0 -17.5 8zM267 977.5q-11 10.5 -11 29.5v10q0 19 11.5 29.5t30.5 10.5t30 -10.5t11 -29.5v-10q0 -19 -11 -29.5t-31 -10.5q-19 0 -30 10.5zM439 977.5q-11 10.5 -11 29.5
v10q0 19 11 29.5t31 10.5q19 0 30 -10.5t11 -29.5v-10q0 -19 -11 -29.5t-31 -10.5q-19 0 -30 10.5z" />
    <glyph glyph-name="uni022C" unicode="&#x22c;" horiz-adv-x="766" 
d="M675 165q-43 -82 -119 -128.5t-173 -46.5t-173 46.5t-119 128.5t-43 185q0 104 43 186t119 128t173 46t173 -46t119 -128t43 -186q0 -103 -43 -185zM619.5 505.5q-34.5 68.5 -96 106.5t-140.5 38t-140.5 -38t-96 -106.5t-34.5 -155.5t34.5 -155.5t96 -106.5t140.5 -38
t140.5 38t96 106.5t34.5 155.5t-34.5 155.5zM236.5 779q-6.5 8 -6.5 24q0 8 1 12q7 31 31 49t56 18q18 0 37.5 -8.5t44.5 -24.5q22 -13 34.5 -19t22.5 -6q14 0 22.5 10.5t10.5 28.5q-1 11 5 18.5t17 7.5q12 0 18.5 -8.5t6.5 -23.5l-1 -11q-6 -33 -27.5 -52t-53.5 -19
q-28 0 -80 32q-23 13 -36 19t-24 6q-14 0 -24.5 -9.5t-14.5 -29.5q0 -11 -6.5 -16.5t-15.5 -5.5q-11 0 -17.5 8zM230 1005q0 26 29 26h255q29 0 29 -26q0 -25 -29 -25h-255q-29 0 -29 25z" />
    <glyph glyph-name="OE" unicode="&#x152;" horiz-adv-x="990" 
d="M934.5 51.5q8.5 -8.5 8.5 -21.5t-8.5 -21.5t-21.5 -8.5h-573q-96 0 -161.5 46.5t-98 125.5t-32.5 178q0 96 32.5 175.5t98 127t161.5 47.5h573q13 0 21.5 -8.5t8.5 -21.5t-8.5 -21.5t-21.5 -8.5h-327v-249h282q13 0 21.5 -9t8.5 -22t-8.5 -21t-21.5 -8h-282v-271h327
q13 0 21.5 -8.5zM167.5 140.5q59.5 -80.5 180.5 -80.5h177v580h-177q-81 0 -135 -39t-79.5 -105t-25.5 -146q0 -129 59.5 -209.5z" />
    <glyph glyph-name="P" unicode="P" horiz-adv-x="596" 
d="M460 674.5q44 -25.5 68.5 -71t24.5 -102.5t-24.5 -104t-68.5 -74t-99 -27h-207v-266q0 -13 -8.5 -21.5t-21.5 -8.5t-21.5 8.5t-8.5 21.5v640q0 13 8.5 21.5t21.5 8.5h237q55 0 99 -25.5zM455 396q36 42 36 105q0 62 -36 101t-94 39h-207v-287h207q58 0 94 42z" />
    <glyph glyph-name="Thorn" unicode="&#xde;" horiz-adv-x="588" 
d="M451.5 567q43.5 -26 68 -71.5t24.5 -102.5t-24.5 -103.5t-68 -73.5t-98.5 -27h-199v-159q0 -13 -8.5 -21.5t-21.5 -8.5t-21.5 8.5t-8.5 21.5v680q0 13 8.5 21.5t21.5 8.5t21.5 -8.5t8.5 -21.5v-117h199q55 0 98.5 -26zM447 290q36 41 36 103t-36 101t-94 39h-199v-284
h199q58 0 94 41z" />
    <glyph glyph-name="Q" unicode="Q" horiz-adv-x="775" 
d="M785 -64q8 -8 8 -19q0 -22 -29.5 -43t-73 -34.5t-80.5 -13.5q-57 0 -95.5 12.5t-84.5 35.5q-37 20 -63 29t-61 9q-13 0 -23.5 -3t-25.5 -10q-22 -10 -32 -10q-12 0 -20.5 9t-8.5 21q0 20 17 26l131 47q-87 9 -154 57.5t-104.5 126.5t-37.5 174q0 104 43 186t119 128
t173 46t173 -46t119 -128t43 -186q0 -89 -32.5 -163t-90.5 -123t-135 -66l-105 -35q29 -3 52.5 -12.5t59.5 -26.5q41 -21 73 -31.5t72 -10.5q34 0 58.5 9t47.5 23q9 5 19 15q7 6 14.5 10.5t14.5 4.5q11 0 19 -8zM146.5 194.5q34.5 -68.5 96 -106.5t140.5 -38t140.5 38
t96 106.5t34.5 155.5t-34.5 155.5t-96 106.5t-140.5 38t-140.5 -38t-96 -106.5t-34.5 -155.5t34.5 -155.5z" />
    <glyph glyph-name="R" unicode="R" horiz-adv-x="670" 
d="M620 29q0 -5 -4 -13q-4 -7 -11 -11t-15 -4q-10 0 -17 4q-28 16 -45 52t-17 115q0 70 -39 98.5t-93 28.5h-222v-269q0 -13 -8 -21.5t-21 -8.5q-14 0 -24 8.5t-10 21.5v640q0 13 8.5 21.5t21.5 8.5h270q57 0 102 -24.5t70.5 -67.5t25.5 -97q0 -64 -33.5 -112.5t-87.5 -66.5
q44 -17 72 -57.5t29 -98.5q1 -62 8.5 -87t24.5 -35q15 -10 15 -25zM397 354q35 3 65 23t48 54t18 78q0 57 -38.5 94.5t-100.5 37.5h-232v-287h240z" />
    <glyph glyph-name="Racute" unicode="&#x154;" horiz-adv-x="670" 
d="M620 29q0 -5 -4 -13q-4 -7 -11 -11t-15 -4q-10 0 -17 4q-28 16 -45 52t-17 115q0 70 -39 98.5t-93 28.5h-222v-269q0 -13 -8 -21.5t-21 -8.5q-14 0 -24 8.5t-10 21.5v640q0 13 8.5 21.5t21.5 8.5h270q57 0 102 -24.5t70.5 -67.5t25.5 -97q0 -64 -33.5 -112.5t-87.5 -66.5
q44 -17 72 -57.5t29 -98.5q1 -62 8.5 -87t24.5 -35q15 -10 15 -25zM397 354q35 3 65 23t48 54t18 78q0 57 -38.5 94.5t-100.5 37.5h-232v-287h240zM320 751q-5 5 -5 13t10 18l89 69q13 11 29 11q13 0 21.5 -8.5t8.5 -21.5q0 -20 -19 -31l-98 -49q-14 -6 -22 -6q-9 0 -14 5z
" />
    <glyph glyph-name="Rcaron" unicode="&#x158;" horiz-adv-x="670" 
d="M620 29q0 -5 -4 -13q-4 -7 -11 -11t-15 -4q-10 0 -17 4q-28 16 -45 52t-17 115q0 70 -39 98.5t-93 28.5h-222v-269q0 -13 -8 -21.5t-21 -8.5q-14 0 -24 8.5t-10 21.5v640q0 13 8.5 21.5t21.5 8.5h270q57 0 102 -24.5t70.5 -67.5t25.5 -97q0 -64 -33.5 -112.5t-87.5 -66.5
q44 -17 72 -57.5t29 -98.5q1 -62 8.5 -87t24.5 -35q15 -10 15 -25zM397 354q35 3 65 23t48 54t18 78q0 57 -38.5 94.5t-100.5 37.5h-232v-287h240zM449 880.5q5 -4.5 5 -10.5q0 -8 -8 -17l-77 -82q-11 -17 -33 -17h-11q-21 0 -34 17l-76 81q-8 9 -8 17q0 6 4.5 10.5
t11.5 4.5q12 0 27 -12l83 -62l77 62q16 13 27 13q7 0 12 -4.5z" />
    <glyph glyph-name="Rcommaaccent" unicode="&#x156;" horiz-adv-x="670" 
d="M620 29q0 -5 -4 -13q-4 -7 -11 -11t-15 -4q-10 0 -17 4q-28 16 -45 52t-17 115q0 70 -39 98.5t-93 28.5h-222v-269q0 -13 -8 -21.5t-21 -8.5q-14 0 -24 8.5t-10 21.5v640q0 13 8.5 21.5t21.5 8.5h270q57 0 102 -24.5t70.5 -67.5t25.5 -97q0 -64 -33.5 -112.5t-87.5 -66.5
q44 -17 72 -57.5t29 -98.5q1 -62 8.5 -87t24.5 -35q15 -10 15 -25zM397 354q35 3 65 23t48 54t18 78q0 57 -38.5 94.5t-100.5 37.5h-232v-287h240zM366.5 -160.5q-23.5 -22.5 -53.5 -22.5q-35 0 -35 20q0 8 4.5 13t10.5 5q3 0 9 -1.5t11 -1.5q6 0 9 1q8 1 13.5 9t5.5 22
q0 13 -10 13q-4 0 -9.5 -4.5t-12.5 -4.5q-12 0 -19 8.5t-7 19.5q0 17 14 27t38 10t39.5 -15.5t15.5 -44.5q0 -31 -23.5 -53.5z" />
    <glyph glyph-name="uni0210" unicode="&#x210;" horiz-adv-x="670" 
d="M620 29q0 -5 -4 -13q-4 -7 -11 -11t-15 -4q-10 0 -17 4q-28 16 -45 52t-17 115q0 70 -39 98.5t-93 28.5h-222v-269q0 -13 -8 -21.5t-21 -8.5q-14 0 -24 8.5t-10 21.5v640q0 13 8.5 21.5t21.5 8.5h270q57 0 102 -24.5t70.5 -67.5t25.5 -97q0 -64 -33.5 -112.5t-87.5 -66.5
q44 -17 72 -57.5t29 -98.5q1 -62 8.5 -87t24.5 -35q15 -10 15 -25zM397 354q35 3 65 23t48 54t18 78q0 57 -38.5 94.5t-100.5 37.5h-232v-287h240zM268.5 758q-6.5 3 -8.5 4l-97 48q-20 11 -20 32q0 12 8.5 21t21.5 9q15 0 29 -12l89 -69q10 -8 10 -18q0 -7 -5 -12.5
t-14 -5.5q-7 0 -13.5 3zM428 761l-98 49q-19 11 -19 31q0 13 8.5 21.5t21.5 8.5q16 0 29 -11l89 -69q10 -10 10 -18t-5 -13t-14 -5q-8 0 -22 6z" />
    <glyph glyph-name="uni1E5A" unicode="&#x1e5a;" horiz-adv-x="670" 
d="M620 29q0 -5 -4 -13q-4 -7 -11 -11t-15 -4q-10 0 -17 4q-28 16 -45 52t-17 115q0 70 -39 98.5t-93 28.5h-222v-269q0 -13 -8 -21.5t-21 -8.5q-14 0 -24 8.5t-10 21.5v640q0 13 8.5 21.5t21.5 8.5h270q57 0 102 -24.5t70.5 -67.5t25.5 -97q0 -64 -33.5 -112.5t-87.5 -66.5
q44 -17 72 -57.5t29 -98.5q1 -62 8.5 -87t24.5 -35q15 -10 15 -25zM397 354q35 3 65 23t48 54t18 78q0 57 -38.5 94.5t-100.5 37.5h-232v-287h240zM300 -129.5q-11 10.5 -11 29.5v11q0 18 11.5 28.5t30.5 10.5q41 0 41 -39v-11q0 -19 -10.5 -29.5t-30.5 -10.5t-31 10.5z" />
    <glyph glyph-name="uni0212" unicode="&#x212;" horiz-adv-x="670" 
d="M620 29q0 -5 -4 -13q-4 -7 -11 -11t-15 -4q-10 0 -17 4q-28 16 -45 52t-17 115q0 70 -39 98.5t-93 28.5h-222v-269q0 -13 -8 -21.5t-21 -8.5q-14 0 -24 8.5t-10 21.5v640q0 13 8.5 21.5t21.5 8.5h270q57 0 102 -24.5t70.5 -67.5t25.5 -97q0 -64 -33.5 -112.5t-87.5 -66.5
q44 -17 72 -57.5t29 -98.5q1 -62 8.5 -87t24.5 -35q15 -10 15 -25zM397 354q35 3 65 23t48 54t18 78q0 57 -38.5 94.5t-100.5 37.5h-232v-287h240zM418 836.5q37 -28.5 42 -69.5q2 -11 -4.5 -19t-17.5 -8t-18 6t-12 18q-7 24 -28 37.5t-50 13.5q-30 0 -51 -13.5t-27 -37.5
q-5 -12 -12 -18t-19 -6q-11 0 -17.5 7.5t-4.5 18.5q5 42 42 70.5t89 28.5q51 0 88 -28.5z" />
    <glyph glyph-name="uni1E5E" unicode="&#x1e5e;" horiz-adv-x="670" 
d="M620 29q0 -5 -4 -13q-4 -7 -11 -11t-15 -4q-10 0 -17 4q-28 16 -45 52t-17 115q0 70 -39 98.5t-93 28.5h-222v-269q0 -13 -8 -21.5t-21 -8.5q-14 0 -24 8.5t-10 21.5v640q0 13 8.5 21.5t21.5 8.5h270q57 0 102 -24.5t70.5 -67.5t25.5 -97q0 -64 -33.5 -112.5t-87.5 -66.5
q44 -17 72 -57.5t29 -98.5q1 -62 8.5 -87t24.5 -35q15 -10 15 -25zM397 354q35 3 65 23t48 54t18 78q0 57 -38.5 94.5t-100.5 37.5h-232v-287h240zM204 -101q0 25 28 25h210q28 0 28 -25t-28 -25h-210q-28 0 -28 25z" />
    <glyph glyph-name="S" unicode="S" horiz-adv-x="562" 
d="M155.5 14q-55.5 24 -107.5 75q-12 10 -12 24q0 12 9.5 22t21.5 10t22 -10q78 -86 195 -86q72 0 119.5 34t47.5 89q0 43 -23.5 71.5t-61.5 46.5t-97 37q-64 19 -107.5 42t-70.5 61.5t-27 97.5q0 53 28.5 94t80 64.5t118.5 23.5q61 0 114.5 -20.5t85.5 -58.5q15 -17 15 -29
q0 -11 -10 -20.5t-22 -9.5q-10 0 -17 7q-27 32 -72 52t-94 20q-73 0 -119 -32.5t-46 -88.5q0 -58 44 -89t126 -57q71 -21 116 -43t73.5 -62.5t28.5 -106.5q0 -51 -29.5 -92.5t-82 -65.5t-119.5 -24q-72 0 -127.5 24z" />
    <glyph glyph-name="Sacute" unicode="&#x15a;" horiz-adv-x="562" 
d="M155.5 14q-55.5 24 -107.5 75q-12 10 -12 24q0 12 9.5 22t21.5 10t22 -10q78 -86 195 -86q72 0 119.5 34t47.5 89q0 43 -23.5 71.5t-61.5 46.5t-97 37q-64 19 -107.5 42t-70.5 61.5t-27 97.5q0 53 28.5 94t80 64.5t118.5 23.5q61 0 114.5 -20.5t85.5 -58.5q15 -17 15 -29
q0 -11 -10 -20.5t-22 -9.5q-10 0 -17 7q-27 32 -72 52t-94 20q-73 0 -119 -32.5t-46 -88.5q0 -58 44 -89t126 -57q71 -21 116 -43t73.5 -62.5t28.5 -106.5q0 -51 -29.5 -92.5t-82 -65.5t-119.5 -24q-72 0 -127.5 24zM270 751q-5 5 -5 13t10 18l89 69q13 11 29 11
q13 0 21.5 -8.5t8.5 -21.5q0 -20 -19 -31l-98 -49q-14 -6 -22 -6q-9 0 -14 5z" />
    <glyph glyph-name="uni1E64" unicode="&#x1e64;" horiz-adv-x="562" 
d="M155.5 14q-55.5 24 -107.5 75q-12 10 -12 24q0 12 9.5 22t21.5 10t22 -10q78 -86 195 -86q72 0 119.5 34t47.5 89q0 43 -23.5 71.5t-61.5 46.5t-97 37q-64 19 -107.5 42t-70.5 61.5t-27 97.5q0 53 28.5 94t80 64.5t118.5 23.5q61 0 114.5 -20.5t85.5 -58.5q15 -17 15 -29
q0 -11 -10 -20.5t-22 -9.5q-10 0 -17 7q-27 32 -72 52t-94 20q-73 0 -119 -32.5t-46 -88.5q0 -58 44 -89t126 -57q71 -21 116 -43t73.5 -62.5t28.5 -106.5q0 -51 -29.5 -92.5t-82 -65.5t-119.5 -24q-72 0 -127.5 24zM270 751q-5 5 -5 13t10 18l89 69q13 11 29 11
q13 0 21.5 -8.5t8.5 -21.5q0 -20 -19 -31l-98 -49q-14 -6 -22 -6q-9 0 -14 5zM295 937.5q-11 10.5 -11 29.5v10q0 19 11.5 29.5t31.5 10.5q40 0 40 -40v-10q0 -19 -10.5 -29.5t-30.5 -10.5t-31 10.5z" />
    <glyph glyph-name="Scaron" unicode="&#x160;" horiz-adv-x="562" 
d="M155.5 14q-55.5 24 -107.5 75q-12 10 -12 24q0 12 9.5 22t21.5 10t22 -10q78 -86 195 -86q72 0 119.5 34t47.5 89q0 43 -23.5 71.5t-61.5 46.5t-97 37q-64 19 -107.5 42t-70.5 61.5t-27 97.5q0 53 28.5 94t80 64.5t118.5 23.5q61 0 114.5 -20.5t85.5 -58.5q15 -17 15 -29
q0 -11 -10 -20.5t-22 -9.5q-10 0 -17 7q-27 32 -72 52t-94 20q-73 0 -119 -32.5t-46 -88.5q0 -58 44 -89t126 -57q71 -21 116 -43t73.5 -62.5t28.5 -106.5q0 -51 -29.5 -92.5t-82 -65.5t-119.5 -24q-72 0 -127.5 24zM399 880.5q5 -4.5 5 -10.5q0 -8 -8 -17l-77 -82
q-11 -17 -33 -17h-11q-21 0 -34 17l-76 81q-8 9 -8 17q0 6 4.5 10.5t11.5 4.5q12 0 27 -12l83 -62l77 62q16 13 27 13q7 0 12 -4.5z" />
    <glyph glyph-name="uni1E66" unicode="&#x1e66;" horiz-adv-x="562" 
d="M155.5 14q-55.5 24 -107.5 75q-12 10 -12 24q0 12 9.5 22t21.5 10t22 -10q78 -86 195 -86q72 0 119.5 34t47.5 89q0 43 -23.5 71.5t-61.5 46.5t-97 37q-64 19 -107.5 42t-70.5 61.5t-27 97.5q0 53 28.5 94t80 64.5t118.5 23.5q61 0 114.5 -20.5t85.5 -58.5q15 -17 15 -29
q0 -11 -10 -20.5t-22 -9.5q-10 0 -17 7q-27 32 -72 52t-94 20q-73 0 -119 -32.5t-46 -88.5q0 -58 44 -89t126 -57q71 -21 116 -43t73.5 -62.5t28.5 -106.5q0 -51 -29.5 -92.5t-82 -65.5t-119.5 -24q-72 0 -127.5 24zM399 880.5q5 -4.5 5 -10.5q0 -8 -8 -17l-77 -82
q-11 -17 -33 -17h-11q-21 0 -34 17l-76 81q-8 9 -8 17q0 6 4.5 10.5t11.5 4.5q12 0 27 -12l83 -62l77 62q16 13 27 13q7 0 12 -4.5zM250 957.5q-11 10.5 -11 29.5v10q0 19 11.5 29.5t31.5 10.5q40 0 40 -40v-10q0 -19 -10.5 -29.5t-30.5 -10.5t-31 10.5z" />
    <glyph glyph-name="Scedilla" unicode="&#x15e;" horiz-adv-x="562" 
d="M486 81q-28 -41 -78.5 -65.5t-114.5 -25.5l-53 -114q-8 -20 -26 -20q-12 0 -27 10t-15 22q0 11 7 18l68 85q-59 6 -106.5 30t-92.5 68q-12 10 -12 24q0 12 9.5 22t21.5 10t22 -10q78 -86 195 -86q72 0 119.5 34t47.5 89q0 43 -23.5 71.5t-61.5 46.5t-97 37
q-64 19 -107.5 42t-70.5 61.5t-27 97.5q0 53 28.5 94t80 64.5t118.5 23.5q61 0 114.5 -20.5t85.5 -58.5q15 -17 15 -29q0 -11 -10 -20.5t-22 -9.5q-10 0 -17 7q-27 32 -72 52t-94 20q-73 0 -119 -32.5t-46 -88.5q0 -58 44 -89t126 -57q71 -21 116 -43t73.5 -62.5
t28.5 -106.5q0 -50 -28 -91z" />
    <glyph glyph-name="Scircumflex" unicode="&#x15c;" horiz-adv-x="562" 
d="M155.5 14q-55.5 24 -107.5 75q-12 10 -12 24q0 12 9.5 22t21.5 10t22 -10q78 -86 195 -86q72 0 119.5 34t47.5 89q0 43 -23.5 71.5t-61.5 46.5t-97 37q-64 19 -107.5 42t-70.5 61.5t-27 97.5q0 53 28.5 94t80 64.5t118.5 23.5q61 0 114.5 -20.5t85.5 -58.5q15 -17 15 -29
q0 -11 -10 -20.5t-22 -9.5q-10 0 -17 7q-27 32 -72 52t-94 20q-73 0 -119 -32.5t-46 -88.5q0 -58 44 -89t126 -57q71 -21 116 -43t73.5 -62.5t28.5 -106.5q0 -51 -29.5 -92.5t-82 -65.5t-119.5 -24q-72 0 -127.5 24zM403 777q0 -5 -5 -10t-11 -5q-11 0 -27 13l-83 60
l-77 -61q-18 -13 -27 -13q-7 0 -12 4.5t-5 10.5q0 8 8 17l77 82q8 9 15 13t18 4h11q11 0 18 -4t16 -13l76 -81q8 -9 8 -17z" />
    <glyph glyph-name="Scommaaccent" unicode="&#x218;" horiz-adv-x="562" 
d="M155.5 14q-55.5 24 -107.5 75q-12 10 -12 24q0 12 9.5 22t21.5 10t22 -10q78 -86 195 -86q72 0 119.5 34t47.5 89q0 43 -23.5 71.5t-61.5 46.5t-97 37q-64 19 -107.5 42t-70.5 61.5t-27 97.5q0 53 28.5 94t80 64.5t118.5 23.5q61 0 114.5 -20.5t85.5 -58.5q15 -17 15 -29
q0 -11 -10 -20.5t-22 -9.5q-10 0 -17 7q-27 32 -72 52t-94 20q-73 0 -119 -32.5t-46 -88.5q0 -58 44 -89t126 -57q71 -21 116 -43t73.5 -62.5t28.5 -106.5q0 -51 -29.5 -92.5t-82 -65.5t-119.5 -24q-72 0 -127.5 24zM316.5 -160.5q-23.5 -22.5 -53.5 -22.5q-35 0 -35 20
q0 8 4.5 13t10.5 5q3 0 9 -1.5t11 -1.5q6 0 9 1q8 1 13.5 9t5.5 22q0 13 -10 13q-4 0 -9.5 -4.5t-12.5 -4.5q-12 0 -19 8.5t-7 19.5q0 17 14 27t38 10t39.5 -15.5t15.5 -44.5q0 -31 -23.5 -53.5z" />
    <glyph glyph-name="uni1E60" unicode="&#x1e60;" horiz-adv-x="562" 
d="M155.5 14q-55.5 24 -107.5 75q-12 10 -12 24q0 12 9.5 22t21.5 10t22 -10q78 -86 195 -86q72 0 119.5 34t47.5 89q0 43 -23.5 71.5t-61.5 46.5t-97 37q-64 19 -107.5 42t-70.5 61.5t-27 97.5q0 53 28.5 94t80 64.5t118.5 23.5q61 0 114.5 -20.5t85.5 -58.5q15 -17 15 -29
q0 -11 -10 -20.5t-22 -9.5q-10 0 -17 7q-27 32 -72 52t-94 20q-73 0 -119 -32.5t-46 -88.5q0 -58 44 -89t126 -57q71 -21 116 -43t73.5 -62.5t28.5 -106.5q0 -51 -29.5 -92.5t-82 -65.5t-119.5 -24q-72 0 -127.5 24zM250 780.5q-11 10.5 -11 29.5v10q0 19 11.5 29.5
t31.5 10.5q40 0 40 -40v-10q0 -19 -10.5 -29.5t-30.5 -10.5t-31 10.5z" />
    <glyph glyph-name="uni1E62" unicode="&#x1e62;" horiz-adv-x="562" 
d="M155.5 14q-55.5 24 -107.5 75q-12 10 -12 24q0 12 9.5 22t21.5 10t22 -10q78 -86 195 -86q72 0 119.5 34t47.5 89q0 43 -23.5 71.5t-61.5 46.5t-97 37q-64 19 -107.5 42t-70.5 61.5t-27 97.5q0 53 28.5 94t80 64.5t118.5 23.5q61 0 114.5 -20.5t85.5 -58.5q15 -17 15 -29
q0 -11 -10 -20.5t-22 -9.5q-10 0 -17 7q-27 32 -72 52t-94 20q-73 0 -119 -32.5t-46 -88.5q0 -58 44 -89t126 -57q71 -21 116 -43t73.5 -62.5t28.5 -106.5q0 -51 -29.5 -92.5t-82 -65.5t-119.5 -24q-72 0 -127.5 24zM250 -129.5q-11 10.5 -11 29.5v11q0 18 11.5 28.5
t30.5 10.5q41 0 41 -39v-11q0 -19 -10.5 -29.5t-30.5 -10.5t-31 10.5z" />
    <glyph glyph-name="uni1E68" unicode="&#x1e68;" horiz-adv-x="562" 
d="M155.5 14q-55.5 24 -107.5 75q-12 10 -12 24q0 12 9.5 22t21.5 10t22 -10q78 -86 195 -86q72 0 119.5 34t47.5 89q0 43 -23.5 71.5t-61.5 46.5t-97 37q-64 19 -107.5 42t-70.5 61.5t-27 97.5q0 53 28.5 94t80 64.5t118.5 23.5q61 0 114.5 -20.5t85.5 -58.5q15 -17 15 -29
q0 -11 -10 -20.5t-22 -9.5q-10 0 -17 7q-27 32 -72 52t-94 20q-73 0 -119 -32.5t-46 -88.5q0 -58 44 -89t126 -57q71 -21 116 -43t73.5 -62.5t28.5 -106.5q0 -51 -29.5 -92.5t-82 -65.5t-119.5 -24q-72 0 -127.5 24zM250 -129.5q-11 10.5 -11 29.5v11q0 18 11.5 28.5
t30.5 10.5q41 0 41 -39v-11q0 -19 -10.5 -29.5t-30.5 -10.5t-31 10.5zM250 780.5q-11 10.5 -11 29.5v10q0 19 11.5 29.5t31.5 10.5q40 0 40 -40v-10q0 -19 -10.5 -29.5t-30.5 -10.5t-31 10.5z" />
    <glyph glyph-name="uni1E9E" unicode="&#x1e9e;" horiz-adv-x="706" 
d="M585.5 324q29.5 -21 50.5 -58.5t21 -95.5q0 -48 -25.5 -89.5t-71 -66t-102.5 -24.5q-105 0 -171 85q-9 14 -9 26t9.5 22t21.5 10q13 0 23 -11q24 -33 57.5 -52.5t67.5 -19.5q58 0 97 32.5t39 84.5q-1 37 -18 63t-40.5 42t-65.5 39q-42 24 -68 44t-44 51.5t-18 76.5
q0 67 50 109.5t134 54.5q-56 25 -130 25q-120 0 -177 -62t-58 -160l-2 -417q0 -14 -8.5 -22t-22.5 -8t-22.5 8t-8.5 22l2 408q0 76 30 140.5t97 104.5t170 40q55 0 106.5 -14t85.5 -36q15 -10 21.5 -18.5t6.5 -19.5q0 -13 -9 -18t-30 -9q-82 -11 -126 -41.5t-44 -76.5
q0 -31 14 -53t34.5 -36.5t55.5 -33.5q48 -25 77.5 -46z" />
    <glyph glyph-name="uni018F" unicode="&#x18f;" horiz-adv-x="759" 
d="M545 661.5q76 -48.5 121 -131t45 -180.5t-44.5 -180.5t-121 -131t-166.5 -48.5q-86 0 -161 44.5t-121 121.5t-49 170v19q0 14 9.5 22.5t23.5 8.5h565q-6 80 -43.5 142.5t-96.5 97t-128 34.5q-76 0 -132.5 -26t-102.5 -82q-12 -10 -23 -10q-8 0 -17 6q-13 10 -13 24
q0 12 9 21q54 65 122 96t157 31q91 0 167 -48.5zM504.5 84q58.5 34 96 94.5t44.5 137.5h-534q6 -73 43.5 -134t97 -96.5t127.5 -35.5q67 0 125.5 34z" />
    <glyph glyph-name="T" unicode="T" horiz-adv-x="604" 
d="M561.5 692q8.5 -8 8.5 -21t-8.5 -20.5t-21.5 -7.5h-207v-613q0 -13 -9 -21.5t-22 -8.5q-14 0 -22.5 8.5t-8.5 21.5v613h-207q-13 0 -21.5 8t-8.5 21q0 12 8.5 20t21.5 8h476q13 0 21.5 -8z" />
    <glyph glyph-name="Tbar" unicode="&#x166;" horiz-adv-x="604" 
d="M561.5 692q8.5 -8 8.5 -21t-8.5 -20.5t-21.5 -7.5h-207v-285h54q14 0 22 -7.5t8 -20.5t-8 -20.5t-22 -7.5h-54v-272q0 -13 -9 -21.5t-22 -8.5q-14 0 -22.5 8.5t-8.5 21.5v272h-48q-14 0 -22 8t-8 21q0 12 8.5 19.5t21.5 7.5h48v285h-207q-13 0 -21.5 8t-8.5 21
q0 12 8.5 20t21.5 8h476q13 0 21.5 -8z" />
    <glyph glyph-name="Tcaron" unicode="&#x164;" horiz-adv-x="604" 
d="M561.5 692q8.5 -8 8.5 -21t-8.5 -20.5t-21.5 -7.5h-207v-613q0 -13 -9 -21.5t-22 -8.5q-14 0 -22.5 8.5t-8.5 21.5v613h-207q-13 0 -21.5 8t-8.5 21q0 12 8.5 20t21.5 8h476q13 0 21.5 -8zM420 880.5q5 -4.5 5 -10.5q0 -8 -8 -17l-77 -82q-11 -17 -33 -17h-11
q-21 0 -34 17l-76 81q-8 9 -8 17q0 6 4.5 10.5t11.5 4.5q12 0 27 -12l83 -62l77 62q16 13 27 13q7 0 12 -4.5z" />
    <glyph glyph-name="uni0162" unicode="&#x162;" horiz-adv-x="604" 
d="M561.5 692q8.5 -8 8.5 -21t-8.5 -20.5t-21.5 -7.5h-207v-613q0 -14 -12 -24l-60 -130q-8 -20 -26 -20q-12 0 -27 10t-15 22q0 11 7 18l81 101q-10 10 -10 23v613h-207q-13 0 -21.5 8t-8.5 21q0 12 8.5 20t21.5 8h476q13 0 21.5 -8z" />
    <glyph glyph-name="uni021A" unicode="&#x21a;" horiz-adv-x="604" 
d="M561.5 692q8.5 -8 8.5 -21t-8.5 -20.5t-21.5 -7.5h-207v-613q0 -13 -9 -21.5t-22 -8.5q-14 0 -22.5 8.5t-8.5 21.5v613h-207q-13 0 -21.5 8t-8.5 21q0 12 8.5 20t21.5 8h476q13 0 21.5 -8zM337.5 -160.5q-23.5 -22.5 -53.5 -22.5q-35 0 -35 20q0 8 4.5 13t10.5 5
q3 0 9 -1.5t11 -1.5q6 0 9 1q8 1 13.5 9t5.5 22q0 13 -10 13q-4 0 -9.5 -4.5t-12.5 -4.5q-12 0 -19 8.5t-7 19.5q0 17 14 27t38 10t39.5 -15.5t15.5 -44.5q0 -31 -23.5 -53.5z" />
    <glyph glyph-name="uni1E6C" unicode="&#x1e6c;" horiz-adv-x="604" 
d="M561.5 692q8.5 -8 8.5 -21t-8.5 -20.5t-21.5 -7.5h-207v-613q0 -13 -9 -21.5t-22 -8.5q-14 0 -22.5 8.5t-8.5 21.5v613h-207q-13 0 -21.5 8t-8.5 21q0 12 8.5 20t21.5 8h476q13 0 21.5 -8zM271 -129.5q-11 10.5 -11 29.5v11q0 18 11.5 28.5t30.5 10.5q41 0 41 -39v-11
q0 -19 -10.5 -29.5t-30.5 -10.5t-31 10.5z" />
    <glyph glyph-name="uni1E6E" unicode="&#x1e6e;" horiz-adv-x="604" 
d="M561.5 692q8.5 -8 8.5 -21t-8.5 -20.5t-21.5 -7.5h-207v-613q0 -13 -9 -21.5t-22 -8.5q-14 0 -22.5 8.5t-8.5 21.5v613h-207q-13 0 -21.5 8t-8.5 21q0 12 8.5 20t21.5 8h476q13 0 21.5 -8zM175 -101q0 25 28 25h210q28 0 28 -25t-28 -25h-210q-28 0 -28 25z" />
    <glyph glyph-name="U" unicode="U" horiz-adv-x="713" 
d="M610.5 691.5q8.5 -8.5 8.5 -21.5v-414q0 -73 -35 -134t-95 -96t-132 -35q-73 0 -133 35t-95 96t-35 134v414q0 13 8.5 21.5t23.5 8.5q12 0 21 -8.5t9 -21.5v-414q0 -56 27 -103t73.5 -74.5t100.5 -27.5q55 0 101.5 27.5t74 74.5t27.5 103v414q0 13 8 21.5t21 8.5
t21.5 -8.5z" />
    <glyph glyph-name="Uacute" unicode="&#xda;" horiz-adv-x="713" 
d="M610.5 691.5q8.5 -8.5 8.5 -21.5v-414q0 -73 -35 -134t-95 -96t-132 -35q-73 0 -133 35t-95 96t-35 134v414q0 13 8.5 21.5t23.5 8.5q12 0 21 -8.5t9 -21.5v-414q0 -56 27 -103t73.5 -74.5t100.5 -27.5q55 0 101.5 27.5t74 74.5t27.5 103v414q0 13 8 21.5t21 8.5
t21.5 -8.5zM346 751q-5 5 -5 13t10 18l89 69q13 11 29 11q13 0 21.5 -8.5t8.5 -21.5q0 -20 -19 -31l-98 -49q-14 -6 -22 -6q-9 0 -14 5z" />
    <glyph glyph-name="Ubreve" unicode="&#x16c;" horiz-adv-x="713" 
d="M610.5 691.5q8.5 -8.5 8.5 -21.5v-414q0 -73 -35 -134t-95 -96t-132 -35q-73 0 -133 35t-95 96t-35 134v414q0 13 8.5 21.5t23.5 8.5q12 0 21 -8.5t9 -21.5v-414q0 -56 27 -103t73.5 -74.5t100.5 -27.5q55 0 101.5 27.5t74 74.5t27.5 103v414q0 13 8 21.5t21 8.5
t21.5 -8.5zM269.5 800.5q-35.5 26.5 -49.5 74.5q-2 8 -2 11q0 9 5.5 14t15.5 5q11 0 16.5 -4.5t13.5 -17.5q26 -58 88 -58q63 0 88 58q5 11 12 16t18 5q21 0 21 -17q0 -4 -2 -12q-14 -48 -49.5 -74.5t-87.5 -26.5t-87.5 26.5z" />
    <glyph glyph-name="uni01D3" unicode="&#x1d3;" horiz-adv-x="713" 
d="M610.5 691.5q8.5 -8.5 8.5 -21.5v-414q0 -73 -35 -134t-95 -96t-132 -35q-73 0 -133 35t-95 96t-35 134v414q0 13 8.5 21.5t23.5 8.5q12 0 21 -8.5t9 -21.5v-414q0 -56 27 -103t73.5 -74.5t100.5 -27.5q55 0 101.5 27.5t74 74.5t27.5 103v414q0 13 8 21.5t21 8.5
t21.5 -8.5zM475 880.5q5 -4.5 5 -10.5q0 -8 -8 -17l-77 -82q-11 -17 -33 -17h-11q-21 0 -34 17l-76 81q-8 9 -8 17q0 6 4.5 10.5t11.5 4.5q12 0 27 -12l83 -62l77 62q16 13 27 13q7 0 12 -4.5z" />
    <glyph glyph-name="Ucircumflex" unicode="&#xdb;" horiz-adv-x="713" 
d="M610.5 691.5q8.5 -8.5 8.5 -21.5v-414q0 -73 -35 -134t-95 -96t-132 -35q-73 0 -133 35t-95 96t-35 134v414q0 13 8.5 21.5t23.5 8.5q12 0 21 -8.5t9 -21.5v-414q0 -56 27 -103t73.5 -74.5t100.5 -27.5q55 0 101.5 27.5t74 74.5t27.5 103v414q0 13 8 21.5t21 8.5
t21.5 -8.5zM479 777q0 -5 -5 -10t-11 -5q-11 0 -27 13l-83 60l-77 -61q-18 -13 -27 -13q-7 0 -12 4.5t-5 10.5q0 8 8 17l77 82q8 9 15 13t18 4h11q11 0 18 -4t16 -13l76 -81q8 -9 8 -17z" />
    <glyph glyph-name="uni0214" unicode="&#x214;" horiz-adv-x="713" 
d="M610.5 691.5q8.5 -8.5 8.5 -21.5v-414q0 -73 -35 -134t-95 -96t-132 -35q-73 0 -133 35t-95 96t-35 134v414q0 13 8.5 21.5t23.5 8.5q12 0 21 -8.5t9 -21.5v-414q0 -56 27 -103t73.5 -74.5t100.5 -27.5q55 0 101.5 27.5t74 74.5t27.5 103v414q0 13 8 21.5t21 8.5
t21.5 -8.5zM294.5 758q-6.5 3 -8.5 4l-97 48q-20 11 -20 32q0 12 8.5 21t21.5 9q15 0 29 -12l89 -69q10 -8 10 -18q0 -7 -5 -12.5t-14 -5.5q-7 0 -13.5 3zM454 761l-98 49q-19 11 -19 31q0 13 8.5 21.5t21.5 8.5q16 0 29 -11l89 -69q10 -10 10 -18t-5 -13t-14 -5q-8 0 -22 6
z" />
    <glyph glyph-name="Udieresis" unicode="&#xdc;" horiz-adv-x="713" 
d="M610.5 691.5q8.5 -8.5 8.5 -21.5v-414q0 -73 -35 -134t-95 -96t-132 -35q-73 0 -133 35t-95 96t-35 134v414q0 13 8.5 21.5t23.5 8.5q12 0 21 -8.5t9 -21.5v-414q0 -56 27 -103t73.5 -74.5t100.5 -27.5q55 0 101.5 27.5t74 74.5t27.5 103v414q0 13 8 21.5t21 8.5
t21.5 -8.5zM241 785.5q-11 10.5 -11 29.5v10q0 19 11.5 29.5t30.5 10.5t30 -10.5t11 -29.5v-10q0 -19 -11 -29.5t-31 -10.5q-19 0 -30 10.5zM413 785.5q-11 10.5 -11 29.5v10q0 19 11 29.5t31 10.5q19 0 30 -10.5t11 -29.5v-10q0 -19 -11 -29.5t-31 -10.5q-19 0 -30 10.5z
" />
    <glyph glyph-name="uni1EE4" unicode="&#x1ee4;" horiz-adv-x="713" 
d="M610.5 691.5q8.5 -8.5 8.5 -21.5v-414q0 -73 -35 -134t-95 -96t-132 -35q-73 0 -133 35t-95 96t-35 134v414q0 13 8.5 21.5t23.5 8.5q12 0 21 -8.5t9 -21.5v-414q0 -56 27 -103t73.5 -74.5t100.5 -27.5q55 0 101.5 27.5t74 74.5t27.5 103v414q0 13 8 21.5t21 8.5
t21.5 -8.5zM326 -129.5q-11 10.5 -11 29.5v11q0 18 11.5 28.5t30.5 10.5q41 0 41 -39v-11q0 -19 -10.5 -29.5t-30.5 -10.5t-31 10.5z" />
    <glyph glyph-name="Ugrave" unicode="&#xd9;" horiz-adv-x="713" 
d="M610.5 691.5q8.5 -8.5 8.5 -21.5v-414q0 -73 -35 -134t-95 -96t-132 -35q-73 0 -133 35t-95 96t-35 134v414q0 13 8.5 21.5t23.5 8.5q12 0 21 -8.5t9 -21.5v-414q0 -56 27 -103t73.5 -74.5t100.5 -27.5q55 0 101.5 27.5t74 74.5t27.5 103v414q0 13 8 21.5t21 8.5
t21.5 -8.5zM335 753l-97 49q-20 11 -20 31q0 13 8.5 21.5t21.5 8.5q16 0 29 -11l89 -69q10 -10 10 -18t-5 -13t-14 -5q-8 0 -22 6z" />
    <glyph glyph-name="uni1EE6" unicode="&#x1ee6;" horiz-adv-x="713" 
d="M610.5 691.5q8.5 -8.5 8.5 -21.5v-414q0 -73 -35 -134t-95 -96t-132 -35q-73 0 -133 35t-95 96t-35 134v414q0 13 8.5 21.5t23.5 8.5q12 0 21 -8.5t9 -21.5v-414q0 -56 27 -103t73.5 -74.5t100.5 -27.5q55 0 101.5 27.5t74 74.5t27.5 103v414q0 13 8 21.5t21 8.5
t21.5 -8.5zM354 934q43 0 62.5 -23t19.5 -51q0 -16 -8.5 -29.5t-25.5 -30.5q-12 -14 -12 -27q-1 -8 -7 -12t-16 -4q-8 0 -13.5 5t-5.5 12q0 24 14 40q17 18 23 26t6 19q0 13 -10.5 21.5t-25.5 8.5q-22 0 -46 -18q-8 -8 -17 -8q-8 0 -16 8q-5 7 -5 14q0 9 9 18q33 31 74 31z
" />
    <glyph glyph-name="Uhorn" unicode="&#x1af;" horiz-adv-x="713" 
d="M702.5 691q-29.5 -34 -83.5 -42v-393q0 -73 -35 -134t-95 -96t-132 -35q-73 0 -133 35t-95 96t-35 134v414q0 13 8.5 21.5t23.5 8.5q12 0 21 -8.5t9 -21.5v-414q0 -56 27 -103t73.5 -74.5t100.5 -27.5q55 0 101.5 27.5t74 74.5t27.5 103v414q0 12 7.5 20t18.5 10
q48 0 71 18t23 59q0 15 6.5 25.5t19.5 10.5q26 0 26 -36q0 -52 -29.5 -86z" />
    <glyph glyph-name="uni1EE8" unicode="&#x1ee8;" horiz-adv-x="713" 
d="M702.5 691q-29.5 -34 -83.5 -42v-393q0 -73 -35 -134t-95 -96t-132 -35q-73 0 -133 35t-95 96t-35 134v414q0 13 8.5 21.5t23.5 8.5q12 0 21 -8.5t9 -21.5v-414q0 -56 27 -103t73.5 -74.5t100.5 -27.5q55 0 101.5 27.5t74 74.5t27.5 103v414q0 12 7.5 20t18.5 10
q48 0 71 18t23 59q0 15 6.5 25.5t19.5 10.5q26 0 26 -36q0 -52 -29.5 -86zM348 751q-5 5 -5 13t10 18l89 69q13 11 29 11q13 0 21.5 -8.5t8.5 -21.5q0 -20 -19 -31l-98 -49q-14 -6 -22 -6q-9 0 -14 5z" />
    <glyph glyph-name="uni1EF0" unicode="&#x1ef0;" horiz-adv-x="713" 
d="M702.5 691q-29.5 -34 -83.5 -42v-393q0 -73 -35 -134t-95 -96t-132 -35q-73 0 -133 35t-95 96t-35 134v414q0 13 8.5 21.5t23.5 8.5q12 0 21 -8.5t9 -21.5v-414q0 -56 27 -103t73.5 -74.5t100.5 -27.5q55 0 101.5 27.5t74 74.5t27.5 103v414q0 12 7.5 20t18.5 10
q48 0 71 18t23 59q0 15 6.5 25.5t19.5 10.5q26 0 26 -36q0 -52 -29.5 -86zM328 -129.5q-11 10.5 -11 29.5v11q0 18 11.5 28.5t30.5 10.5q41 0 41 -39v-11q0 -19 -10.5 -29.5t-30.5 -10.5t-31 10.5z" />
    <glyph glyph-name="uni1EEA" unicode="&#x1eea;" horiz-adv-x="713" 
d="M702.5 691q-29.5 -34 -83.5 -42v-393q0 -73 -35 -134t-95 -96t-132 -35q-73 0 -133 35t-95 96t-35 134v414q0 13 8.5 21.5t23.5 8.5q12 0 21 -8.5t9 -21.5v-414q0 -56 27 -103t73.5 -74.5t100.5 -27.5q55 0 101.5 27.5t74 74.5t27.5 103v414q0 12 7.5 20t18.5 10
q48 0 71 18t23 59q0 15 6.5 25.5t19.5 10.5q26 0 26 -36q0 -52 -29.5 -86zM337 753l-97 49q-20 11 -20 31q0 13 8.5 21.5t21.5 8.5q16 0 29 -11l89 -69q10 -10 10 -18t-5 -13t-14 -5q-8 0 -22 6z" />
    <glyph glyph-name="uni1EEC" unicode="&#x1eec;" horiz-adv-x="713" 
d="M702.5 691q-29.5 -34 -83.5 -42v-393q0 -73 -35 -134t-95 -96t-132 -35q-73 0 -133 35t-95 96t-35 134v414q0 13 8.5 21.5t23.5 8.5q12 0 21 -8.5t9 -21.5v-414q0 -56 27 -103t73.5 -74.5t100.5 -27.5q55 0 101.5 27.5t74 74.5t27.5 103v414q0 12 7.5 20t18.5 10
q48 0 71 18t23 59q0 15 6.5 25.5t19.5 10.5q26 0 26 -36q0 -52 -29.5 -86zM356 934q43 0 62.5 -23t19.5 -51q0 -16 -8.5 -29.5t-25.5 -30.5q-12 -14 -12 -27q-1 -8 -7 -12t-16 -4q-8 0 -13.5 5t-5.5 12q0 24 14 40q17 18 23 26t6 19q0 13 -10.5 21.5t-25.5 8.5
q-22 0 -46 -18q-8 -8 -17 -8q-8 0 -16 8q-5 7 -5 14q0 9 9 18q33 31 74 31z" />
    <glyph glyph-name="uni1EEE" unicode="&#x1eee;" horiz-adv-x="713" 
d="M702.5 691q-29.5 -34 -83.5 -42v-393q0 -73 -35 -134t-95 -96t-132 -35q-73 0 -133 35t-95 96t-35 134v414q0 13 8.5 21.5t23.5 8.5q12 0 21 -8.5t9 -21.5v-414q0 -56 27 -103t73.5 -74.5t100.5 -27.5q55 0 101.5 27.5t74 74.5t27.5 103v414q0 12 7.5 20t18.5 10
q48 0 71 18t23 59q0 15 6.5 25.5t19.5 10.5q26 0 26 -36q0 -52 -29.5 -86zM212.5 779q-6.5 8 -6.5 24q0 8 1 12q7 31 31 49t56 18q18 0 37.5 -8.5t44.5 -24.5q22 -13 34.5 -19t22.5 -6q14 0 22.5 10.5t10.5 28.5q-1 11 5 18.5t17 7.5q12 0 18.5 -8.5t6.5 -23.5l-1 -11
q-6 -33 -27.5 -52t-53.5 -19q-28 0 -80 32q-23 13 -36 19t-24 6q-14 0 -24.5 -9.5t-14.5 -29.5q0 -11 -6.5 -16.5t-15.5 -5.5q-11 0 -17.5 8z" />
    <glyph glyph-name="Uhungarumlaut" unicode="&#x170;" horiz-adv-x="713" 
d="M610.5 691.5q8.5 -8.5 8.5 -21.5v-414q0 -73 -35 -134t-95 -96t-132 -35q-73 0 -133 35t-95 96t-35 134v414q0 13 8.5 21.5t23.5 8.5q12 0 21 -8.5t9 -21.5v-414q0 -56 27 -103t73.5 -74.5t100.5 -27.5q55 0 101.5 27.5t74 74.5t27.5 103v414q0 13 8 21.5t21 8.5
t21.5 -8.5zM246 748.5q-4 4.5 -4 10.5q0 7 7 19l57 85q10 20 31 20q14 0 24 -8.5t10 -22.5q0 -11 -10 -21l-69 -70q-19 -17 -35 -17q-7 0 -11 4.5zM403 748.5q-4 4.5 -4 10.5q0 8 7 19l57 86q10 18 31 18q13 0 23 -7.5t10 -21.5q0 -13 -9 -22l-69 -70q-19 -17 -35 -17
q-7 0 -11 4.5z" />
    <glyph glyph-name="uni0216" unicode="&#x216;" horiz-adv-x="713" 
d="M610.5 691.5q8.5 -8.5 8.5 -21.5v-414q0 -73 -35 -134t-95 -96t-132 -35q-73 0 -133 35t-95 96t-35 134v414q0 13 8.5 21.5t23.5 8.5q12 0 21 -8.5t9 -21.5v-414q0 -56 27 -103t73.5 -74.5t100.5 -27.5q55 0 101.5 27.5t74 74.5t27.5 103v414q0 13 8 21.5t21 8.5
t21.5 -8.5zM444 836.5q37 -28.5 42 -69.5q2 -11 -4.5 -19t-17.5 -8t-18 6t-12 18q-7 24 -28 37.5t-50 13.5q-30 0 -51 -13.5t-27 -37.5q-5 -12 -12 -18t-19 -6q-11 0 -17.5 7.5t-4.5 18.5q5 42 42 70.5t89 28.5q51 0 88 -28.5z" />
    <glyph glyph-name="Umacron" unicode="&#x16a;" horiz-adv-x="713" 
d="M610.5 691.5q8.5 -8.5 8.5 -21.5v-414q0 -73 -35 -134t-95 -96t-132 -35q-73 0 -133 35t-95 96t-35 134v414q0 13 8.5 21.5t23.5 8.5q12 0 21 -8.5t9 -21.5v-414q0 -56 27 -103t73.5 -74.5t100.5 -27.5q55 0 101.5 27.5t74 74.5t27.5 103v414q0 13 8 21.5t21 8.5
t21.5 -8.5zM204 813q0 26 29 26h255q29 0 29 -26q0 -25 -29 -25h-255q-29 0 -29 25z" />
    <glyph glyph-name="uni1E7A" unicode="&#x1e7a;" horiz-adv-x="713" 
d="M610.5 691.5q8.5 -8.5 8.5 -21.5v-414q0 -73 -35 -134t-95 -96t-132 -35q-73 0 -133 35t-95 96t-35 134v414q0 13 8.5 21.5t23.5 8.5q12 0 21 -8.5t9 -21.5v-414q0 -56 27 -103t73.5 -74.5t100.5 -27.5q55 0 101.5 27.5t74 74.5t27.5 103v414q0 13 8 21.5t21 8.5
t21.5 -8.5zM204 813q0 26 29 26h255q29 0 29 -26q0 -25 -29 -25h-255q-29 0 -29 25zM241 939.5q-11 10.5 -11 29.5v10q0 19 11.5 29.5t30.5 10.5t30 -10.5t11 -29.5v-10q0 -19 -11 -29.5t-31 -10.5q-19 0 -30 10.5zM413 939.5q-11 10.5 -11 29.5v10q0 19 11 29.5t31 10.5
q19 0 30 -10.5t11 -29.5v-10q0 -19 -11 -29.5t-31 -10.5q-19 0 -30 10.5z" />
    <glyph glyph-name="Uogonek" unicode="&#x172;" horiz-adv-x="713" 
d="M610.5 691.5q8.5 -8.5 8.5 -21.5v-414q0 -73 -34.5 -135.5t-95.5 -93.5q-47 -25 -73.5 -48.5t-26.5 -61.5q0 -26 14.5 -41.5t34.5 -15.5q22 0 29 11q10 16 26 16q10 0 16 -6t6 -16q0 -22 -24.5 -39t-58.5 -17q-39 0 -67.5 26.5t-28.5 69.5q0 50 36 86h-15q-73 0 -133 35
t-95 96t-35 134v414q0 13 8.5 21.5t23.5 8.5q13 0 21.5 -8.5t8.5 -21.5v-414q0 -56 27 -103t73.5 -74.5t100.5 -27.5q56 0 102.5 27t73.5 74t27 104v414q0 13 8.5 21.5t20.5 8.5q13 0 21.5 -8.5z" />
    <glyph glyph-name="Uring" unicode="&#x16e;" horiz-adv-x="713" 
d="M610.5 691.5q8.5 -8.5 8.5 -21.5v-414q0 -73 -35 -134t-95 -96t-132 -35q-73 0 -133 35t-95 96t-35 134v414q0 13 8.5 21.5t23.5 8.5q12 0 21 -8.5t9 -21.5v-414q0 -56 27 -103t73.5 -74.5t100.5 -27.5q55 0 101.5 27.5t74 74.5t27.5 103v414q0 13 8 21.5t21 8.5
t21.5 -8.5zM285.5 772q-30.5 29 -30.5 68q0 41 30.5 70t71.5 29t71.5 -29t30.5 -70q0 -39 -30.5 -68t-71.5 -29t-71.5 29zM398 800.5q17 16.5 17 39.5q0 24 -17 40.5t-41 16.5t-40.5 -16.5t-16.5 -40.5q0 -23 16.5 -39.5t40.5 -16.5t41 16.5z" />
    <glyph glyph-name="Utilde" unicode="&#x168;" horiz-adv-x="713" 
d="M610.5 691.5q8.5 -8.5 8.5 -21.5v-414q0 -73 -35 -134t-95 -96t-132 -35q-73 0 -133 35t-95 96t-35 134v414q0 13 8.5 21.5t23.5 8.5q12 0 21 -8.5t9 -21.5v-414q0 -56 27 -103t73.5 -74.5t100.5 -27.5q55 0 101.5 27.5t74 74.5t27.5 103v414q0 13 8 21.5t21 8.5
t21.5 -8.5zM210.5 779q-6.5 8 -6.5 24q0 8 1 12q7 31 31 49t56 18q18 0 37.5 -8.5t44.5 -24.5q22 -13 34.5 -19t22.5 -6q14 0 22.5 10.5t10.5 28.5q-1 11 5 18.5t17 7.5q12 0 18.5 -8.5t6.5 -23.5l-1 -11q-6 -33 -27.5 -52t-53.5 -19q-28 0 -80 32q-23 13 -36 19t-24 6
q-14 0 -24.5 -9.5t-14.5 -29.5q0 -11 -6.5 -16.5t-15.5 -5.5q-11 0 -17.5 8z" />
    <glyph glyph-name="uni1E78" unicode="&#x1e78;" horiz-adv-x="713" 
d="M610.5 691.5q8.5 -8.5 8.5 -21.5v-414q0 -73 -35 -134t-95 -96t-132 -35q-73 0 -133 35t-95 96t-35 134v414q0 13 8.5 21.5t23.5 8.5q12 0 21 -8.5t9 -21.5v-414q0 -56 27 -103t73.5 -74.5t100.5 -27.5q55 0 101.5 27.5t74 74.5t27.5 103v414q0 13 8 21.5t21 8.5
t21.5 -8.5zM210.5 779q-6.5 8 -6.5 24q0 8 1 12q7 31 31 49t56 18q18 0 37.5 -8.5t44.5 -24.5q22 -13 34.5 -19t22.5 -6q14 0 22.5 10.5t10.5 28.5q-1 11 5 18.5t17 7.5q12 0 18.5 -8.5t6.5 -23.5l-1 -11q-6 -33 -27.5 -52t-53.5 -19q-28 0 -80 32q-23 13 -36 19t-24 6
q-14 0 -24.5 -9.5t-14.5 -29.5q0 -11 -6.5 -16.5t-15.5 -5.5q-11 0 -17.5 8zM346 943q-5 5 -5 13t10 18l89 69q13 11 29 11q13 0 21.5 -8.5t8.5 -21.5q0 -20 -19 -31l-98 -49q-14 -6 -22 -6q-9 0 -14 5z" />
    <glyph glyph-name="V" unicode="V" horiz-adv-x="665" 
d="M622 692.5q9 -8.5 9 -19.5q0 -7 -3 -15l-267 -638q-4 -9 -12 -14.5t-17 -5.5t-16.5 5t-11.5 14l-266 637q-3 6 -3 16q0 13 9 21t20 8q21 0 30 -22l241 -576l237 578q5 9 12.5 14.5t15.5 5.5q13 0 22 -8.5z" />
    <glyph glyph-name="W" unicode="W" horiz-adv-x="966" 
d="M927 694q9 -8 9 -22l-2 -13l-221 -640q-3 -9 -10.5 -14t-16.5 -5q-23 0 -30 19l-173 427l-173 -427q-9 -19 -30 -19q-9 0 -16.5 5t-9.5 14l-221 640q-3 6 -3 12q0 14 10.5 22.5t22.5 8.5q10 0 18 -5t11 -14l196 -572l168 419q9 20 28 19q10 1 17.5 -4.5t11.5 -14.5
l167 -419l194 572q8 19 30 19q14 0 23 -8z" />
    <glyph glyph-name="Wacute" unicode="&#x1e82;" horiz-adv-x="966" 
d="M927 694q9 -8 9 -22l-2 -13l-221 -640q-3 -9 -10.5 -14t-16.5 -5q-23 0 -30 19l-173 427l-173 -427q-9 -19 -30 -19q-9 0 -16.5 5t-9.5 14l-221 640q-3 6 -3 12q0 14 10.5 22.5t22.5 8.5q10 0 18 -5t11 -14l196 -572l168 419q9 20 28 19q10 1 17.5 -4.5t11.5 -14.5
l167 -419l194 572q8 19 30 19q14 0 23 -8zM472 751q-5 5 -5 13t10 18l89 69q13 11 29 11q13 0 21.5 -8.5t8.5 -21.5q0 -20 -19 -31l-98 -49q-14 -6 -22 -6q-9 0 -14 5z" />
    <glyph glyph-name="Wcircumflex" unicode="&#x174;" horiz-adv-x="966" 
d="M927 694q9 -8 9 -22l-2 -13l-221 -640q-3 -9 -10.5 -14t-16.5 -5q-23 0 -30 19l-173 427l-173 -427q-9 -19 -30 -19q-9 0 -16.5 5t-9.5 14l-221 640q-3 6 -3 12q0 14 10.5 22.5t22.5 8.5q10 0 18 -5t11 -14l196 -572l168 419q9 20 28 19q10 1 17.5 -4.5t11.5 -14.5
l167 -419l194 572q8 19 30 19q14 0 23 -8zM605 777q0 -5 -5 -10t-11 -5q-11 0 -27 13l-83 60l-77 -61q-18 -13 -27 -13q-7 0 -12 4.5t-5 10.5q0 8 8 17l77 82q8 9 15 13t18 4h11q11 0 18 -4t16 -13l76 -81q8 -9 8 -17z" />
    <glyph glyph-name="Wdieresis" unicode="&#x1e84;" horiz-adv-x="966" 
d="M927 694q9 -8 9 -22l-2 -13l-221 -640q-3 -9 -10.5 -14t-16.5 -5q-23 0 -30 19l-173 427l-173 -427q-9 -19 -30 -19q-9 0 -16.5 5t-9.5 14l-221 640q-3 6 -3 12q0 14 10.5 22.5t22.5 8.5q10 0 18 -5t11 -14l196 -572l168 419q9 20 28 19q10 1 17.5 -4.5t11.5 -14.5
l167 -419l194 572q8 19 30 19q14 0 23 -8zM367 785.5q-11 10.5 -11 29.5v10q0 19 11.5 29.5t30.5 10.5t30 -10.5t11 -29.5v-10q0 -19 -11 -29.5t-31 -10.5q-19 0 -30 10.5zM539 785.5q-11 10.5 -11 29.5v10q0 19 11 29.5t31 10.5q19 0 30 -10.5t11 -29.5v-10
q0 -19 -11 -29.5t-31 -10.5q-19 0 -30 10.5z" />
    <glyph glyph-name="Wgrave" unicode="&#x1e80;" horiz-adv-x="966" 
d="M927 694q9 -8 9 -22l-2 -13l-221 -640q-3 -9 -10.5 -14t-16.5 -5q-23 0 -30 19l-173 427l-173 -427q-9 -19 -30 -19q-9 0 -16.5 5t-9.5 14l-221 640q-3 6 -3 12q0 14 10.5 22.5t22.5 8.5q10 0 18 -5t11 -14l196 -572l168 419q9 20 28 19q10 1 17.5 -4.5t11.5 -14.5
l167 -419l194 572q8 19 30 19q14 0 23 -8zM461 753l-97 49q-20 11 -20 31q0 13 8.5 21.5t21.5 8.5q16 0 29 -11l89 -69q10 -10 10 -18t-5 -13t-14 -5q-8 0 -22 6z" />
    <glyph glyph-name="X" unicode="X" horiz-adv-x="606" 
d="M565 45q7 -10 7 -18q0 -14 -9.5 -22.5t-21.5 -8.5q-15 0 -24 13l-216 293l-215 -292q-9 -14 -24 -14q-12 0 -19.5 8.5t-7.5 18.5t7 20l225 306l-226 306q-7 8 -7 18q0 12 9.5 21t21.5 9q15 0 25 -12l215 -293l214 292q11 13 24 13q12 0 20.5 -7.5t8.5 -18.5q0 -8 -7 -19
l-225 -307z" />
    <glyph glyph-name="Y" unicode="Y" horiz-adv-x="559" 
d="M535 655l-223 -307v-318q0 -13 -9 -21.5t-22 -8.5t-21.5 8.5t-8.5 21.5v317l-224 306q-8 9 -8 21t10 21t22 9q16 0 25 -14l207 -282l202 282q11 14 26 14q12 0 21 -9.5t9 -20.5q0 -7 -6 -19z" />
    <glyph glyph-name="Yacute" unicode="&#xdd;" horiz-adv-x="559" 
d="M535 655l-223 -307v-318q0 -13 -9 -21.5t-22 -8.5t-21.5 8.5t-8.5 21.5v317l-224 306q-8 9 -8 21t10 21t22 9q16 0 25 -14l207 -282l202 282q11 14 26 14q12 0 21 -9.5t9 -20.5q0 -7 -6 -19zM269 751q-5 5 -5 13t10 18l89 69q13 11 29 11q13 0 21.5 -8.5t8.5 -21.5
q0 -20 -19 -31l-98 -49q-14 -6 -22 -6q-9 0 -14 5z" />
    <glyph glyph-name="Ycircumflex" unicode="&#x176;" horiz-adv-x="559" 
d="M535 655l-223 -307v-318q0 -13 -9 -21.5t-22 -8.5t-21.5 8.5t-8.5 21.5v317l-224 306q-8 9 -8 21t10 21t22 9q16 0 25 -14l207 -282l202 282q11 14 26 14q12 0 21 -9.5t9 -20.5q0 -7 -6 -19zM402 777q0 -5 -5 -10t-11 -5q-11 0 -27 13l-83 60l-77 -61q-18 -13 -27 -13
q-7 0 -12 4.5t-5 10.5q0 8 8 17l77 82q8 9 15 13t18 4h11q11 0 18 -4t16 -13l76 -81q8 -9 8 -17z" />
    <glyph glyph-name="Ydieresis" unicode="&#x178;" horiz-adv-x="559" 
d="M535 655l-223 -307v-318q0 -13 -9 -21.5t-22 -8.5t-21.5 8.5t-8.5 21.5v317l-224 306q-8 9 -8 21t10 21t22 9q16 0 25 -14l207 -282l202 282q11 14 26 14q12 0 21 -9.5t9 -20.5q0 -7 -6 -19zM164 785.5q-11 10.5 -11 29.5v10q0 19 11.5 29.5t30.5 10.5t30 -10.5t11 -29.5
v-10q0 -19 -11 -29.5t-31 -10.5q-19 0 -30 10.5zM336 785.5q-11 10.5 -11 29.5v10q0 19 11 29.5t31 10.5q19 0 30 -10.5t11 -29.5v-10q0 -19 -11 -29.5t-31 -10.5q-19 0 -30 10.5z" />
    <glyph glyph-name="uni1E8E" unicode="&#x1e8e;" horiz-adv-x="559" 
d="M535 655l-223 -307v-318q0 -13 -9 -21.5t-22 -8.5t-21.5 8.5t-8.5 21.5v317l-224 306q-8 9 -8 21t10 21t22 9q16 0 25 -14l207 -282l202 282q11 14 26 14q12 0 21 -9.5t9 -20.5q0 -7 -6 -19zM249 780.5q-11 10.5 -11 29.5v10q0 19 11.5 29.5t31.5 10.5q40 0 40 -40v-10
q0 -19 -10.5 -29.5t-30.5 -10.5t-31 10.5z" />
    <glyph glyph-name="uni1EF4" unicode="&#x1ef4;" horiz-adv-x="559" 
d="M535 655l-223 -307v-318q0 -13 -9 -21.5t-22 -8.5t-21.5 8.5t-8.5 21.5v317l-224 306q-8 9 -8 21t10 21t22 9q16 0 25 -14l207 -282l202 282q11 14 26 14q12 0 21 -9.5t9 -20.5q0 -7 -6 -19zM250 -129.5q-11 10.5 -11 29.5v11q0 18 11.5 28.5t30.5 10.5q41 0 41 -39v-11
q0 -19 -10.5 -29.5t-30.5 -10.5t-31 10.5z" />
    <glyph glyph-name="Ygrave" unicode="&#x1ef2;" horiz-adv-x="559" 
d="M535 655l-223 -307v-318q0 -13 -9 -21.5t-22 -8.5t-21.5 8.5t-8.5 21.5v317l-224 306q-8 9 -8 21t10 21t22 9q16 0 25 -14l207 -282l202 282q11 14 26 14q12 0 21 -9.5t9 -20.5q0 -7 -6 -19zM258 753l-97 49q-20 11 -20 31q0 13 8.5 21.5t21.5 8.5q16 0 29 -11l89 -69
q10 -10 10 -18t-5 -13t-14 -5q-8 0 -22 6z" />
    <glyph glyph-name="uni1EF6" unicode="&#x1ef6;" horiz-adv-x="559" 
d="M535 655l-223 -307v-318q0 -13 -9 -21.5t-22 -8.5t-21.5 8.5t-8.5 21.5v317l-224 306q-8 9 -8 21t10 21t22 9q16 0 25 -14l207 -282l202 282q11 14 26 14q12 0 21 -9.5t9 -20.5q0 -7 -6 -19zM277 934q43 0 62.5 -23t19.5 -51q0 -16 -8.5 -29.5t-25.5 -30.5
q-12 -14 -12 -27q-1 -8 -7 -12t-16 -4q-8 0 -13.5 5t-5.5 12q0 24 14 40q17 18 23 26t6 19q0 13 -10.5 21.5t-25.5 8.5q-22 0 -46 -18q-8 -8 -17 -8q-8 0 -16 8q-5 7 -5 14q0 9 9 18q33 31 74 31z" />
    <glyph glyph-name="uni0232" unicode="&#x232;" horiz-adv-x="559" 
d="M535 655l-223 -307v-318q0 -13 -9 -21.5t-22 -8.5t-21.5 8.5t-8.5 21.5v317l-224 306q-8 9 -8 21t10 21t22 9q16 0 25 -14l207 -282l202 282q11 14 26 14q12 0 21 -9.5t9 -20.5q0 -7 -6 -19zM127 813q0 26 29 26h255q29 0 29 -26q0 -25 -29 -25h-255q-29 0 -29 25z" />
    <glyph glyph-name="uni1EF8" unicode="&#x1ef8;" horiz-adv-x="559" 
d="M535 655l-223 -307v-318q0 -13 -9 -21.5t-22 -8.5t-21.5 8.5t-8.5 21.5v317l-224 306q-8 9 -8 21t10 21t22 9q16 0 25 -14l207 -282l202 282q11 14 26 14q12 0 21 -9.5t9 -20.5q0 -7 -6 -19zM133.5 779q-6.5 8 -6.5 24q0 8 1 12q7 31 31 49t56 18q18 0 37.5 -8.5
t44.5 -24.5q22 -13 34.5 -19t22.5 -6q14 0 22.5 10.5t10.5 28.5q-1 11 5 18.5t17 7.5q12 0 18.5 -8.5t6.5 -23.5l-1 -11q-6 -33 -27.5 -52t-53.5 -19q-28 0 -80 32q-23 13 -36 19t-24 6q-14 0 -24.5 -9.5t-14.5 -29.5q0 -11 -6.5 -16.5t-15.5 -5.5q-11 0 -17.5 8z" />
    <glyph glyph-name="Z" unicode="Z" horiz-adv-x="644" 
d="M585.5 48.5q8.5 -8.5 8.5 -19.5q0 -13 -8.5 -21t-21.5 -8h-479q-14 0 -22.5 9.5t-8.5 21.5q0 9 6 18l450 594h-400q-13 0 -21.5 8t-8.5 21q0 12 8.5 20t21.5 8h455q15 0 24 -9t9 -21q0 -9 -6 -18l-449 -595h421q13 0 21.5 -8.5z" />
    <glyph glyph-name="Zacute" unicode="&#x179;" horiz-adv-x="644" 
d="M585.5 48.5q8.5 -8.5 8.5 -19.5q0 -13 -8.5 -21t-21.5 -8h-479q-14 0 -22.5 9.5t-8.5 21.5q0 9 6 18l450 594h-400q-13 0 -21.5 8t-8.5 21q0 12 8.5 20t21.5 8h455q15 0 24 -9t9 -21q0 -9 -6 -18l-449 -595h421q13 0 21.5 -8.5zM312 751q-5 5 -5 13t10 18l89 69
q13 11 29 11q13 0 21.5 -8.5t8.5 -21.5q0 -20 -19 -31l-98 -49q-14 -6 -22 -6q-9 0 -14 5z" />
    <glyph glyph-name="Zcaron" unicode="&#x17d;" horiz-adv-x="644" 
d="M585.5 48.5q8.5 -8.5 8.5 -19.5q0 -13 -8.5 -21t-21.5 -8h-479q-14 0 -22.5 9.5t-8.5 21.5q0 9 6 18l450 594h-400q-13 0 -21.5 8t-8.5 21q0 12 8.5 20t21.5 8h455q15 0 24 -9t9 -21q0 -9 -6 -18l-449 -595h421q13 0 21.5 -8.5zM441 880.5q5 -4.5 5 -10.5q0 -8 -8 -17
l-77 -82q-11 -17 -33 -17h-11q-21 0 -34 17l-76 81q-8 9 -8 17q0 6 4.5 10.5t11.5 4.5q12 0 27 -12l83 -62l77 62q16 13 27 13q7 0 12 -4.5z" />
    <glyph glyph-name="Zdotaccent" unicode="&#x17b;" horiz-adv-x="644" 
d="M585.5 48.5q8.5 -8.5 8.5 -19.5q0 -13 -8.5 -21t-21.5 -8h-479q-14 0 -22.5 9.5t-8.5 21.5q0 9 6 18l450 594h-400q-13 0 -21.5 8t-8.5 21q0 12 8.5 20t21.5 8h455q15 0 24 -9t9 -21q0 -9 -6 -18l-449 -595h421q13 0 21.5 -8.5zM292 780.5q-11 10.5 -11 29.5v10
q0 19 11.5 29.5t31.5 10.5q40 0 40 -40v-10q0 -19 -10.5 -29.5t-30.5 -10.5t-31 10.5z" />
    <glyph glyph-name="uni1E92" unicode="&#x1e92;" horiz-adv-x="644" 
d="M585.5 48.5q8.5 -8.5 8.5 -19.5q0 -13 -8.5 -21t-21.5 -8h-479q-14 0 -22.5 9.5t-8.5 21.5q0 9 6 18l450 594h-400q-13 0 -21.5 8t-8.5 21q0 12 8.5 20t21.5 8h455q15 0 24 -9t9 -21q0 -9 -6 -18l-449 -595h421q13 0 21.5 -8.5zM292 -129.5q-11 10.5 -11 29.5v11
q0 18 11.5 28.5t30.5 10.5q41 0 41 -39v-11q0 -19 -10.5 -29.5t-30.5 -10.5t-31 10.5z" />
    <glyph glyph-name="a" unicode="a" horiz-adv-x="602" 
d="M515.5 502q8.5 -9 8.5 -22v-450q0 -13 -8.5 -21.5t-21.5 -8.5t-21.5 8.5t-8.5 21.5v67q-25 -45 -75 -76t-109 -31q-67 0 -120.5 35t-84 96t-30.5 137t31 136.5t84.5 94.5t118.5 34q60 0 110 -29t75 -76v62q0 13 8.5 22t21.5 9t21.5 -9zM379.5 73.5q41.5 27.5 65 76
t23.5 108.5q0 58 -23.5 106t-65 75.5t-93.5 27.5t-93.5 -27t-65 -74.5t-23.5 -107.5t23 -108.5t64.5 -76t94.5 -27.5q52 0 93.5 27.5z" />
    <glyph glyph-name="aacute" unicode="&#xe1;" horiz-adv-x="602" 
d="M515.5 502q8.5 -9 8.5 -22v-450q0 -13 -8.5 -21.5t-21.5 -8.5t-21.5 8.5t-8.5 21.5v67q-25 -45 -75 -76t-109 -31q-67 0 -120.5 35t-84 96t-30.5 137t31 136.5t84.5 94.5t118.5 34q60 0 110 -29t75 -76v62q0 13 8.5 22t21.5 9t21.5 -9zM379.5 73.5q41.5 27.5 65 76
t23.5 108.5q0 58 -23.5 106t-65 75.5t-93.5 27.5t-93.5 -27t-65 -74.5t-23.5 -107.5t23 -108.5t64.5 -76t94.5 -27.5q52 0 93.5 27.5zM268 556.5q-5 5.5 -5 12.5q0 6 5 14l61 95q12 22 34 22q15 0 24 -8t8 -23q0 -11 -10 -23l-75 -79q-16 -16 -31 -16q-6 0 -11 5.5z" />
    <glyph glyph-name="abreve" unicode="&#x103;" horiz-adv-x="602" 
d="M515.5 502q8.5 -9 8.5 -22v-450q0 -13 -8.5 -21.5t-21.5 -8.5t-21.5 8.5t-8.5 21.5v67q-25 -45 -75 -76t-109 -31q-67 0 -120.5 35t-84 96t-30.5 137t31 136.5t84.5 94.5t118.5 34q60 0 110 -29t75 -76v62q0 13 8.5 22t21.5 9t21.5 -9zM379.5 73.5q41.5 27.5 65 76
t23.5 108.5q0 58 -23.5 106t-65 75.5t-93.5 27.5t-93.5 -27t-65 -74.5t-23.5 -107.5t23 -108.5t64.5 -76t94.5 -27.5q52 0 93.5 27.5zM196.5 608.5q-37.5 35.5 -42.5 84.5q-2 11 4.5 19.5t17.5 8.5q12 0 19 -6t12 -18q6 -35 27 -55t51 -20q29 0 50 20t28 55q10 24 30 24
q11 0 17.5 -8t4.5 -19q-5 -50 -42 -85.5t-88 -35.5t-88.5 35.5z" />
    <glyph glyph-name="uni1EAF" unicode="&#x1eaf;" horiz-adv-x="602" 
d="M515.5 502q8.5 -9 8.5 -22v-450q0 -13 -8.5 -21.5t-21.5 -8.5t-21.5 8.5t-8.5 21.5v67q-25 -45 -75 -76t-109 -31q-67 0 -120.5 35t-84 96t-30.5 137t31 136.5t84.5 94.5t118.5 34q60 0 110 -29t75 -76v62q0 13 8.5 22t21.5 9t21.5 -9zM379.5 73.5q41.5 27.5 65 76
t23.5 108.5q0 58 -23.5 106t-65 75.5t-93.5 27.5t-93.5 -27t-65 -74.5t-23.5 -107.5t23 -108.5t64.5 -76t94.5 -27.5q52 0 93.5 27.5zM209.5 617.5q-37.5 35.5 -42.5 84.5q-2 11 4.5 19.5t17.5 8.5q12 0 19 -6t12 -18q6 -35 27 -55t51 -20q29 0 50 20t28 55q10 24 30 24
q11 0 17.5 -8t4.5 -19q-5 -50 -42 -85.5t-88 -35.5t-88.5 35.5zM281 750.5q-5 5.5 -5 12.5q0 6 5 14l61 95q12 22 34 22q15 0 24 -8t8 -23q0 -11 -10 -23l-75 -79q-16 -16 -31 -16q-6 0 -11 5.5z" />
    <glyph glyph-name="uni1EB7" unicode="&#x1eb7;" horiz-adv-x="602" 
d="M515.5 502q8.5 -9 8.5 -22v-450q0 -13 -8.5 -21.5t-21.5 -8.5t-21.5 8.5t-8.5 21.5v67q-25 -45 -75 -76t-109 -31q-67 0 -120.5 35t-84 96t-30.5 137t31 136.5t84.5 94.5t118.5 34q60 0 110 -29t75 -76v62q0 13 8.5 22t21.5 9t21.5 -9zM379.5 73.5q41.5 27.5 65 76
t23.5 108.5q0 58 -23.5 106t-65 75.5t-93.5 27.5t-93.5 -27t-65 -74.5t-23.5 -107.5t23 -108.5t64.5 -76t94.5 -27.5q52 0 93.5 27.5zM256 -127.5q-11 9.5 -11 26.5v11q0 18 11.5 27.5t30.5 9.5q41 0 41 -37v-11q0 -36 -41 -36q-20 0 -31 9.5zM196.5 608.5
q-37.5 35.5 -42.5 84.5q-2 11 4.5 19.5t17.5 8.5q12 0 19 -6t12 -18q6 -35 27 -55t51 -20q29 0 50 20t28 55q10 24 30 24q11 0 17.5 -8t4.5 -19q-5 -50 -42 -85.5t-88 -35.5t-88.5 35.5z" />
    <glyph glyph-name="uni1EB1" unicode="&#x1eb1;" horiz-adv-x="602" 
d="M515.5 502q8.5 -9 8.5 -22v-450q0 -13 -8.5 -21.5t-21.5 -8.5t-21.5 8.5t-8.5 21.5v67q-25 -45 -75 -76t-109 -31q-67 0 -120.5 35t-84 96t-30.5 137t31 136.5t84.5 94.5t118.5 34q60 0 110 -29t75 -76v62q0 13 8.5 22t21.5 9t21.5 -9zM379.5 73.5q41.5 27.5 65 76
t23.5 108.5q0 58 -23.5 106t-65 75.5t-93.5 27.5t-93.5 -27t-65 -74.5t-23.5 -107.5t23 -108.5t64.5 -76t94.5 -27.5q52 0 93.5 27.5zM207.5 620.5q-37.5 35.5 -42.5 84.5q-2 11 4.5 19.5t17.5 8.5q12 0 19 -6t12 -18q6 -35 27 -55t51 -20q29 0 50 20t28 55q10 24 30 24
q11 0 17.5 -8t4.5 -19q-5 -50 -42 -85.5t-88 -35.5t-88.5 35.5zM280 767l-79 73q-14 11 -14 26q0 14 8.5 21.5t21.5 7.5q18 0 31 -17l68 -89q8 -10 8 -16q0 -8 -5.5 -13t-13.5 -5q-11 0 -25 12z" />
    <glyph glyph-name="uni1EB3" unicode="&#x1eb3;" horiz-adv-x="602" 
d="M515.5 502q8.5 -9 8.5 -22v-450q0 -13 -8.5 -21.5t-21.5 -8.5t-21.5 8.5t-8.5 21.5v67q-25 -45 -75 -76t-109 -31q-67 0 -120.5 35t-84 96t-30.5 137t31 136.5t84.5 94.5t118.5 34q60 0 110 -29t75 -76v62q0 13 8.5 22t21.5 9t21.5 -9zM379.5 73.5q41.5 27.5 65 76
t23.5 108.5q0 58 -23.5 106t-65 75.5t-93.5 27.5t-93.5 -27t-65 -74.5t-23.5 -107.5t23 -108.5t64.5 -76t94.5 -27.5q52 0 93.5 27.5zM204.5 607.5q-37.5 35.5 -42.5 84.5q-2 11 4.5 19.5t17.5 8.5q12 0 19 -6t12 -18q6 -35 27 -55t51 -20q29 0 50 20t28 55q10 24 30 24
q11 0 17.5 -8t4.5 -19q-5 -50 -42 -85.5t-88 -35.5t-88.5 35.5zM298 921q42 0 61.5 -23t19.5 -51q0 -16 -8 -29t-25 -31q-12 -13 -13 -27q-1 -8 -7 -13t-14 -5q-9 0 -15 5.5t-6 13.5q0 24 15 40q4 4 12.5 13.5t12.5 17t4 14.5q0 13 -11 21.5t-26 8.5q-21 0 -45 -18
q-10 -8 -18 -8t-16 8q-5 7 -5 14q0 9 9 18q34 31 75 31z" />
    <glyph glyph-name="uni1EB5" unicode="&#x1eb5;" horiz-adv-x="602" 
d="M515.5 502q8.5 -9 8.5 -22v-450q0 -13 -8.5 -21.5t-21.5 -8.5t-21.5 8.5t-8.5 21.5v67q-25 -45 -75 -76t-109 -31q-67 0 -120.5 35t-84 96t-30.5 137t31 136.5t84.5 94.5t118.5 34q60 0 110 -29t75 -76v62q0 13 8.5 22t21.5 9t21.5 -9zM379.5 73.5q41.5 27.5 65 76
t23.5 108.5q0 58 -23.5 106t-65 75.5t-93.5 27.5t-93.5 -27t-65 -74.5t-23.5 -107.5t23 -108.5t64.5 -76t94.5 -27.5q52 0 93.5 27.5zM201.5 601.5q-37.5 35.5 -42.5 84.5q-2 11 4.5 19.5t17.5 8.5q12 0 19 -6t12 -18q6 -35 27 -55t51 -20q29 0 50 20t28 55q10 24 30 24
q11 0 17.5 -8t4.5 -19q-5 -50 -42 -85.5t-88 -35.5t-88.5 35.5zM144 786l2 16q7 32 31.5 50t58.5 18q17 0 36 -8.5t43 -24.5q21 -13 33 -19t23 -6q29 0 32 38q-1 11 5.5 18t17.5 7q26 0 26 -30q0 -8 -1 -12q-6 -33 -28.5 -52t-58.5 -19q-15 0 -32 7.5t-41 22.5
q-24 14 -37.5 20t-24.5 6q-30 0 -38 -37q0 -11 -6.5 -16.5t-16.5 -5.5q-24 0 -24 27z" />
    <glyph glyph-name="uni01CE" unicode="&#x1ce;" horiz-adv-x="602" 
d="M515.5 502q8.5 -9 8.5 -22v-450q0 -13 -8.5 -21.5t-21.5 -8.5t-21.5 8.5t-8.5 21.5v67q-25 -45 -75 -76t-109 -31q-67 0 -120.5 35t-84 96t-30.5 137t31 136.5t84.5 94.5t118.5 34q60 0 110 -29t75 -76v62q0 13 8.5 22t21.5 9t21.5 -9zM379.5 73.5q41.5 27.5 65 76
t23.5 108.5q0 58 -23.5 106t-65 75.5t-93.5 27.5t-93.5 -27t-65 -74.5t-23.5 -107.5t23 -108.5t64.5 -76t94.5 -27.5q52 0 93.5 27.5zM407.5 692q5.5 -5 5.5 -11q0 -7 -9 -18l-72 -78q-11 -16 -33 -16h-16q-22 0 -34 16l-71 78q-8 8 -8 17q0 6 5 11t14 5q10 0 26 -13l78 -63
l74 63q16 14 28 14q7 0 12.5 -5z" />
    <glyph glyph-name="acircumflex" unicode="&#xe2;" horiz-adv-x="602" 
d="M515.5 502q8.5 -9 8.5 -22v-450q0 -13 -8.5 -21.5t-21.5 -8.5t-21.5 8.5t-8.5 21.5v67q-25 -45 -75 -76t-109 -31q-67 0 -120.5 35t-84 96t-30.5 137t31 136.5t84.5 94.5t118.5 34q60 0 110 -29t75 -76v62q0 13 8.5 22t21.5 9t21.5 -9zM379.5 73.5q41.5 27.5 65 76
t23.5 108.5q0 58 -23.5 106t-65 75.5t-93.5 27.5t-93.5 -27t-65 -74.5t-23.5 -107.5t23 -108.5t64.5 -76t94.5 -27.5q52 0 93.5 27.5zM414 591q0 -5 -5 -10t-11 -5q-8 0 -13 3t-14 11l-79 63l-76 -64q-2 -1 -7.5 -5.5t-9.5 -6.5t-9 -2q-7 0 -12 5t-5 11q0 8 8 16l73 80
q11 17 33 17h16q12 0 19 -3.5t13 -13.5l72 -79q7 -8 7 -17z" />
    <glyph glyph-name="uni1EA5" unicode="&#x1ea5;" horiz-adv-x="602" 
d="M515.5 502q8.5 -9 8.5 -22v-450q0 -13 -8.5 -21.5t-21.5 -8.5t-21.5 8.5t-8.5 21.5v67q-25 -45 -75 -76t-109 -31q-67 0 -120.5 35t-84 96t-30.5 137t31 136.5t84.5 94.5t118.5 34q60 0 110 -29t75 -76v62q0 13 8.5 22t21.5 9t21.5 -9zM379.5 73.5q41.5 27.5 65 76
t23.5 108.5q0 58 -23.5 106t-65 75.5t-93.5 27.5t-93.5 -27t-65 -74.5t-23.5 -107.5t23 -108.5t64.5 -76t94.5 -27.5q52 0 93.5 27.5zM406 587q0 -5 -5 -10t-11 -5q-8 0 -13 3t-14 11l-79 63l-76 -64q-2 -1 -7.5 -5.5t-9.5 -6.5t-9 -2q-7 0 -12 5t-5 11q0 8 8 16l73 80
q11 17 33 17h16q12 0 19 -3.5t13 -13.5l72 -79q7 -8 7 -17zM389 659.5q-5 5.5 -5 12.5q0 6 5 14l61 95q12 22 34 22q15 0 24 -8t8 -23q0 -11 -10 -23l-75 -79q-16 -16 -31 -16q-6 0 -11 5.5z" />
    <glyph glyph-name="uni1EAD" unicode="&#x1ead;" horiz-adv-x="602" 
d="M515.5 502q8.5 -9 8.5 -22v-450q0 -13 -8.5 -21.5t-21.5 -8.5t-21.5 8.5t-8.5 21.5v67q-25 -45 -75 -76t-109 -31q-67 0 -120.5 35t-84 96t-30.5 137t31 136.5t84.5 94.5t118.5 34q60 0 110 -29t75 -76v62q0 13 8.5 22t21.5 9t21.5 -9zM379.5 73.5q41.5 27.5 65 76
t23.5 108.5q0 58 -23.5 106t-65 75.5t-93.5 27.5t-93.5 -27t-65 -74.5t-23.5 -107.5t23 -108.5t64.5 -76t94.5 -27.5q52 0 93.5 27.5zM256 -127.5q-11 9.5 -11 26.5v11q0 18 11.5 27.5t30.5 9.5q41 0 41 -37v-11q0 -36 -41 -36q-20 0 -31 9.5zM414 591q0 -5 -5 -10t-11 -5
q-8 0 -13 3t-14 11l-79 63l-76 -64q-2 -1 -7.5 -5.5t-9.5 -6.5t-9 -2q-7 0 -12 5t-5 11q0 8 8 16l73 80q11 17 33 17h16q12 0 19 -3.5t13 -13.5l72 -79q7 -8 7 -17z" />
    <glyph glyph-name="uni1EA7" unicode="&#x1ea7;" horiz-adv-x="602" 
d="M515.5 502q8.5 -9 8.5 -22v-450q0 -13 -8.5 -21.5t-21.5 -8.5t-21.5 8.5t-8.5 21.5v67q-25 -45 -75 -76t-109 -31q-67 0 -120.5 35t-84 96t-30.5 137t31 136.5t84.5 94.5t118.5 34q60 0 110 -29t75 -76v62q0 13 8.5 22t21.5 9t21.5 -9zM379.5 73.5q41.5 27.5 65 76
t23.5 108.5q0 58 -23.5 106t-65 75.5t-93.5 27.5t-93.5 -27t-65 -74.5t-23.5 -107.5t23 -108.5t64.5 -76t94.5 -27.5q52 0 93.5 27.5zM400 587q0 -5 -5 -10t-11 -5q-8 0 -13 3t-14 11l-79 63l-76 -64q-2 -1 -7.5 -5.5t-9.5 -6.5t-9 -2q-7 0 -12 5t-5 11q0 8 8 16l73 80
q11 17 33 17h16q12 0 19 -3.5t13 -13.5l72 -79q7 -8 7 -17zM385 688l-79 73q-14 11 -14 26q0 14 8.5 21.5t21.5 7.5q18 0 31 -17l68 -89q8 -10 8 -16q0 -8 -5.5 -13t-13.5 -5q-11 0 -25 12z" />
    <glyph glyph-name="uni1EA9" unicode="&#x1ea9;" horiz-adv-x="602" 
d="M515.5 502q8.5 -9 8.5 -22v-450q0 -13 -8.5 -21.5t-21.5 -8.5t-21.5 8.5t-8.5 21.5v67q-25 -45 -75 -76t-109 -31q-67 0 -120.5 35t-84 96t-30.5 137t31 136.5t84.5 94.5t118.5 34q60 0 110 -29t75 -76v62q0 13 8.5 22t21.5 9t21.5 -9zM379.5 73.5q41.5 27.5 65 76
t23.5 108.5q0 58 -23.5 106t-65 75.5t-93.5 27.5t-93.5 -27t-65 -74.5t-23.5 -107.5t23 -108.5t64.5 -76t94.5 -27.5q52 0 93.5 27.5zM410 589q0 -5 -5 -10t-11 -5q-8 0 -13 3t-14 11l-79 63l-76 -64q-2 -1 -7.5 -5.5t-9.5 -6.5t-9 -2q-7 0 -12 5t-5 11q0 8 8 16l73 80
q11 17 33 17h16q12 0 19 -3.5t13 -13.5l72 -79q7 -8 7 -17zM428 810q42 0 61.5 -23t19.5 -51q0 -16 -8 -29t-25 -31q-12 -13 -13 -27q-1 -8 -7 -13t-14 -5q-9 0 -15 5.5t-6 13.5q0 24 15 40q4 4 12.5 13.5t12.5 17t4 14.5q0 13 -11 21.5t-26 8.5q-21 0 -45 -18
q-10 -8 -18 -8t-16 8q-5 7 -5 14q0 9 9 18q34 31 75 31z" />
    <glyph glyph-name="uni1EAB" unicode="&#x1eab;" horiz-adv-x="602" 
d="M515.5 502q8.5 -9 8.5 -22v-450q0 -13 -8.5 -21.5t-21.5 -8.5t-21.5 8.5t-8.5 21.5v67q-25 -45 -75 -76t-109 -31q-67 0 -120.5 35t-84 96t-30.5 137t31 136.5t84.5 94.5t118.5 34q60 0 110 -29t75 -76v62q0 13 8.5 22t21.5 9t21.5 -9zM379.5 73.5q41.5 27.5 65 76
t23.5 108.5q0 58 -23.5 106t-65 75.5t-93.5 27.5t-93.5 -27t-65 -74.5t-23.5 -107.5t23 -108.5t64.5 -76t94.5 -27.5q52 0 93.5 27.5zM412 578q0 -5 -5 -10t-11 -5q-8 0 -13 3t-14 11l-79 63l-76 -64q-2 -1 -7.5 -5.5t-9.5 -6.5t-9 -2q-7 0 -12 5t-5 11q0 8 8 16l73 80
q11 17 33 17h16q12 0 19 -3.5t13 -13.5l72 -79q7 -8 7 -17zM142 730l2 16q7 32 31.5 50t58.5 18q17 0 36 -8.5t43 -24.5q21 -13 33 -19t23 -6q29 0 32 38q-1 11 5.5 18t17.5 7q26 0 26 -30q0 -8 -1 -12q-6 -33 -28.5 -52t-58.5 -19q-15 0 -32 7.5t-41 22.5q-24 14 -37.5 20
t-24.5 6q-30 0 -38 -37q0 -11 -6.5 -16.5t-16.5 -5.5q-24 0 -24 27z" />
    <glyph glyph-name="uni0201" unicode="&#x201;" horiz-adv-x="602" 
d="M515.5 502q8.5 -9 8.5 -22v-450q0 -13 -8.5 -21.5t-21.5 -8.5t-21.5 8.5t-8.5 21.5v67q-25 -45 -75 -76t-109 -31q-67 0 -120.5 35t-84 96t-30.5 137t31 136.5t84.5 94.5t118.5 34q60 0 110 -29t75 -76v62q0 13 8.5 22t21.5 9t21.5 -9zM379.5 73.5q41.5 27.5 65 76
t23.5 108.5q0 58 -23.5 106t-65 75.5t-93.5 27.5t-93.5 -27t-65 -74.5t-23.5 -107.5t23 -108.5t64.5 -76t94.5 -27.5q52 0 93.5 27.5zM217 607l-78 73q-15 12 -15 26t8.5 21.5t21.5 7.5q17 0 32 -17l68 -89q7 -8 7 -16t-5 -13t-14 -5q-11 0 -25 12zM360 607l-79 73
q-14 11 -14 26q0 14 8.5 21.5t21.5 7.5q18 0 31 -17l68 -89q8 -10 8 -16q0 -8 -5.5 -13t-13.5 -5q-11 0 -25 12z" />
    <glyph glyph-name="adieresis" unicode="&#xe4;" horiz-adv-x="602" 
d="M515.5 502q8.5 -9 8.5 -22v-450q0 -13 -8.5 -21.5t-21.5 -8.5t-21.5 8.5t-8.5 21.5v67q-25 -45 -75 -76t-109 -31q-67 0 -120.5 35t-84 96t-30.5 137t31 136.5t84.5 94.5t118.5 34q60 0 110 -29t75 -76v62q0 13 8.5 22t21.5 9t21.5 -9zM379.5 73.5q41.5 27.5 65 76
t23.5 108.5q0 58 -23.5 106t-65 75.5t-93.5 27.5t-93.5 -27t-65 -74.5t-23.5 -107.5t23 -108.5t64.5 -76t94.5 -27.5q52 0 93.5 27.5zM167 601.5q-11 10.5 -11 29.5v10q0 19 11 29.5t30 10.5t30 -10.5t11 -29.5v-10q0 -19 -10.5 -29.5t-30.5 -10.5q-19 0 -30 10.5z
M339 601.5q-11 10.5 -11 29.5v10q0 19 11 29.5t31 10.5q19 0 29.5 -10.5t10.5 -29.5v-10q0 -19 -10.5 -29.5t-30.5 -10.5q-19 0 -30 10.5z" />
    <glyph glyph-name="uni1EA1" unicode="&#x1ea1;" horiz-adv-x="602" 
d="M515.5 502q8.5 -9 8.5 -22v-450q0 -13 -8.5 -21.5t-21.5 -8.5t-21.5 8.5t-8.5 21.5v67q-25 -45 -75 -76t-109 -31q-67 0 -120.5 35t-84 96t-30.5 137t31 136.5t84.5 94.5t118.5 34q60 0 110 -29t75 -76v62q0 13 8.5 22t21.5 9t21.5 -9zM379.5 73.5q41.5 27.5 65 76
t23.5 108.5q0 58 -23.5 106t-65 75.5t-93.5 27.5t-93.5 -27t-65 -74.5t-23.5 -107.5t23 -108.5t64.5 -76t94.5 -27.5q52 0 93.5 27.5zM256 -127.5q-11 9.5 -11 26.5v11q0 18 11.5 27.5t30.5 9.5q41 0 41 -37v-11q0 -36 -41 -36q-20 0 -31 9.5z" />
    <glyph glyph-name="agrave" unicode="&#xe0;" horiz-adv-x="602" 
d="M515.5 502q8.5 -9 8.5 -22v-450q0 -13 -8.5 -21.5t-21.5 -8.5t-21.5 8.5t-8.5 21.5v67q-25 -45 -75 -76t-109 -31q-67 0 -120.5 35t-84 96t-30.5 137t31 136.5t84.5 94.5t118.5 34q60 0 110 -29t75 -76v62q0 13 8.5 22t21.5 9t21.5 -9zM379.5 73.5q41.5 27.5 65 76
t23.5 108.5q0 58 -23.5 106t-65 75.5t-93.5 27.5t-93.5 -27t-65 -74.5t-23.5 -107.5t23 -108.5t64.5 -76t94.5 -27.5q52 0 93.5 27.5zM269 570l-79 73q-14 11 -14 26q0 14 8.5 21.5t21.5 7.5q18 0 31 -17l68 -89q8 -10 8 -16q0 -8 -5.5 -13t-13.5 -5q-11 0 -25 12z" />
    <glyph glyph-name="uni1EA3" unicode="&#x1ea3;" horiz-adv-x="602" 
d="M515.5 502q8.5 -9 8.5 -22v-450q0 -13 -8.5 -21.5t-21.5 -8.5t-21.5 8.5t-8.5 21.5v67q-25 -45 -75 -76t-109 -31q-67 0 -120.5 35t-84 96t-30.5 137t31 136.5t84.5 94.5t118.5 34q60 0 110 -29t75 -76v62q0 13 8.5 22t21.5 9t21.5 -9zM379.5 73.5q41.5 27.5 65 76
t23.5 108.5q0 58 -23.5 106t-65 75.5t-93.5 27.5t-93.5 -27t-65 -74.5t-23.5 -107.5t23 -108.5t64.5 -76t94.5 -27.5q52 0 93.5 27.5zM290 737q42 0 61.5 -23t19.5 -51q0 -16 -8 -29t-25 -31q-12 -13 -13 -27q-1 -8 -7 -13t-14 -5q-9 0 -15 5.5t-6 13.5q0 24 15 40
q4 4 12.5 13.5t12.5 17t4 14.5q0 13 -11 21.5t-26 8.5q-21 0 -45 -18q-10 -8 -18 -8t-16 8q-5 7 -5 14q0 9 9 18q34 31 75 31z" />
    <glyph glyph-name="uni0203" unicode="&#x203;" horiz-adv-x="602" 
d="M515.5 502q8.5 -9 8.5 -22v-450q0 -13 -8.5 -21.5t-21.5 -8.5t-21.5 8.5t-8.5 21.5v67q-25 -45 -75 -76t-109 -31q-67 0 -120.5 35t-84 96t-30.5 137t31 136.5t84.5 94.5t118.5 34q60 0 110 -29t75 -76v62q0 13 8.5 22t21.5 9t21.5 -9zM379.5 73.5q41.5 27.5 65 76
t23.5 108.5q0 58 -23.5 106t-65 75.5t-93.5 27.5t-93.5 -27t-65 -74.5t-23.5 -107.5t23 -108.5t64.5 -76t94.5 -27.5q52 0 93.5 27.5zM388 685.5q37 -35.5 42 -85.5q2 -11 -4.5 -19t-17.5 -8q-22 0 -30 24q-7 35 -28 54.5t-50 19.5t-50 -20t-28 -54q-5 -12 -12 -18t-19 -6
q-11 0 -17.5 7.5t-4.5 18.5q5 50 42 86t89 36q51 0 88 -35.5z" />
    <glyph glyph-name="amacron" unicode="&#x101;" horiz-adv-x="602" 
d="M515.5 502q8.5 -9 8.5 -22v-450q0 -13 -8.5 -21.5t-21.5 -8.5t-21.5 8.5t-8.5 21.5v67q-25 -45 -75 -76t-109 -31q-67 0 -120.5 35t-84 96t-30.5 137t31 136.5t84.5 94.5t118.5 34q60 0 110 -29t75 -76v62q0 13 8.5 22t21.5 9t21.5 -9zM379.5 73.5q41.5 27.5 65 76
t23.5 108.5q0 58 -23.5 106t-65 75.5t-93.5 27.5t-93.5 -27t-65 -74.5t-23.5 -107.5t23 -108.5t64.5 -76t94.5 -27.5q52 0 93.5 27.5zM142 630q0 13 7.5 20t20.5 7h240q13 0 20.5 -7t7.5 -20q0 -26 -28 -26h-240q-28 0 -28 26z" />
    <glyph glyph-name="aogonek" unicode="&#x105;" horiz-adv-x="601" 
d="M546 -121.5q6 -6.5 6 -16.5q0 -21 -25 -38t-58 -17q-40 0 -68 26t-28 70q0 80 91 116v78q-25 -45 -75 -76t-109 -31q-67 0 -120.5 35t-84 96t-30.5 137t31 136.5t84.5 94.5t118.5 34q60 0 110 -29t75 -76v62q0 13 8.5 22t21.5 9t21.5 -9t8.5 -22v-459q0 -21 -28 -30
q-30 -10 -50 -31t-20 -46q0 -26 14.5 -41t34.5 -15q11 0 17.5 2.5t11.5 9.5q13 15 26 15q10 0 16 -6.5zM379.5 73.5q41.5 27.5 65 76t23.5 108.5q0 58 -23.5 106t-65 75.5t-93.5 27.5t-93.5 -27t-65 -74.5t-23.5 -107.5t23 -108.5t64.5 -76t94.5 -27.5q52 0 93.5 27.5z" />
    <glyph glyph-name="aring" unicode="&#xe5;" horiz-adv-x="602" 
d="M515.5 502q8.5 -9 8.5 -22v-450q0 -13 -8.5 -21.5t-21.5 -8.5t-21.5 8.5t-8.5 21.5v67q-25 -45 -75 -76t-109 -31q-67 0 -120.5 35t-84 96t-30.5 137t31 136.5t84.5 94.5t118.5 34q60 0 110 -29t75 -76v62q0 13 8.5 22t21.5 9t21.5 -9zM379.5 73.5q41.5 27.5 65 76
t23.5 108.5q0 58 -23.5 106t-65 75.5t-93.5 27.5t-93.5 -27t-65 -74.5t-23.5 -107.5t23 -108.5t64.5 -76t94.5 -27.5q52 0 93.5 27.5zM220.5 584q-30.5 29 -30.5 69t30.5 69t71.5 29t71.5 -29t30.5 -69t-30.5 -69t-71.5 -29t-71.5 29zM333 613.5q17 16.5 17 39.5
q0 24 -17 40.5t-41 16.5t-40.5 -16.5t-16.5 -40.5q0 -23 16.5 -39.5t40.5 -16.5t41 16.5z" />
    <glyph glyph-name="aringacute" unicode="&#x1fb;" horiz-adv-x="602" 
d="M515.5 502q8.5 -9 8.5 -22v-450q0 -13 -8.5 -21.5t-21.5 -8.5t-21.5 8.5t-8.5 21.5v67q-25 -45 -75 -76t-109 -31q-67 0 -120.5 35t-84 96t-30.5 137t31 136.5t84.5 94.5t118.5 34q60 0 110 -29t75 -76v62q0 13 8.5 22t21.5 9t21.5 -9zM379.5 73.5q41.5 27.5 65 76
t23.5 108.5q0 58 -23.5 106t-65 75.5t-93.5 27.5t-93.5 -27t-65 -74.5t-23.5 -107.5t23 -108.5t64.5 -76t94.5 -27.5q52 0 93.5 27.5zM220.5 584q-30.5 29 -30.5 69t30.5 69t71.5 29t71.5 -29t30.5 -69t-30.5 -69t-71.5 -29t-71.5 29zM333 613.5q17 16.5 17 39.5
q0 24 -17 40.5t-41 16.5t-40.5 -16.5t-16.5 -40.5q0 -23 16.5 -39.5t40.5 -16.5t41 16.5zM281 791q-5 5 -5 13t10 18l89 69q13 11 29 11q13 0 21.5 -8.5t8.5 -21.5q0 -20 -19 -31l-98 -49q-14 -6 -22 -6q-9 0 -14 5z" />
    <glyph glyph-name="atilde" unicode="&#xe3;" horiz-adv-x="602" 
d="M515.5 502q8.5 -9 8.5 -22v-450q0 -13 -8.5 -21.5t-21.5 -8.5t-21.5 8.5t-8.5 21.5v67q-25 -45 -75 -76t-109 -31q-67 0 -120.5 35t-84 96t-30.5 137t31 136.5t84.5 94.5t118.5 34q60 0 110 -29t75 -76v62q0 13 8.5 22t21.5 9t21.5 -9zM379.5 73.5q41.5 27.5 65 76
t23.5 108.5q0 58 -23.5 106t-65 75.5t-93.5 27.5t-93.5 -27t-65 -74.5t-23.5 -107.5t23 -108.5t64.5 -76t94.5 -27.5q52 0 93.5 27.5zM139 608l2 16q7 32 31.5 50t58.5 18q17 0 36 -8.5t43 -24.5q21 -13 33 -19t23 -6q29 0 32 38q-1 11 5.5 18t17.5 7q26 0 26 -30
q0 -8 -1 -12q-6 -33 -28.5 -52t-58.5 -19q-15 0 -32 7.5t-41 22.5q-24 14 -37.5 20t-24.5 6q-30 0 -38 -37q0 -11 -6.5 -16.5t-16.5 -5.5q-24 0 -24 27z" />
    <glyph glyph-name="ae" unicode="&#xe6;" horiz-adv-x="894" 
d="M840.5 264.5q-8.5 -8.5 -21.5 -8.5h-378q0 -60 24.5 -107.5t70 -75t107.5 -27.5q48 0 86 20t61 51q11 9 22 9q10 0 17.5 -8t7.5 -18q0 -11 -10 -21q-31 -38 -80 -63.5t-103 -25.5q-74 0 -132 31t-91 86q-36 -49 -89 -83t-126 -34q-39 0 -76 17t-60.5 51.5t-23.5 82.5
q0 79 65.5 124t191.5 45h82v55q0 57 -34.5 79.5t-84.5 22.5q-48 0 -92 -26t-69 -61q-10 -12 -24 -12q-10 0 -18 8t-8 18q0 9 7 19q35 45 89.5 77.5t114.5 32.5q63 0 109.5 -22t60.5 -72q33 45 80.5 69.5t100.5 24.5q60 0 113 -28t85.5 -82t34.5 -128q-1 -12 -9.5 -20.5z
M509.5 425q-49.5 -40 -63.5 -115h341v8q-5 45 -30 78.5t-62.5 51t-77.5 17.5q-58 0 -107.5 -40zM288.5 63.5q38.5 17.5 67 44t41.5 51.5q-14 45 -14 94v3h-81q-96 0 -146 -30t-50 -82q0 -47 31.5 -72.5t72.5 -25.5q40 0 78.5 17.5z" />
    <glyph glyph-name="aeacute" unicode="&#x1fd;" horiz-adv-x="894" 
d="M840.5 264.5q-8.5 -8.5 -21.5 -8.5h-378q0 -60 24.5 -107.5t70 -75t107.5 -27.5q48 0 86 20t61 51q11 9 22 9q10 0 17.5 -8t7.5 -18q0 -11 -10 -21q-31 -38 -80 -63.5t-103 -25.5q-74 0 -132 31t-91 86q-36 -49 -89 -83t-126 -34q-39 0 -76 17t-60.5 51.5t-23.5 82.5
q0 79 65.5 124t191.5 45h82v55q0 57 -34.5 79.5t-84.5 22.5q-48 0 -92 -26t-69 -61q-10 -12 -24 -12q-10 0 -18 8t-8 18q0 9 7 19q35 45 89.5 77.5t114.5 32.5q63 0 109.5 -22t60.5 -72q33 45 80.5 69.5t100.5 24.5q60 0 113 -28t85.5 -82t34.5 -128q-1 -12 -9.5 -20.5z
M509.5 425q-49.5 -40 -63.5 -115h341v8q-5 45 -30 78.5t-62.5 51t-77.5 17.5q-58 0 -107.5 -40zM288.5 63.5q38.5 17.5 67 44t41.5 51.5q-14 45 -14 94v3h-81q-96 0 -146 -30t-50 -82q0 -47 31.5 -72.5t72.5 -25.5q40 0 78.5 17.5zM423 568.5q-5 5.5 -5 12.5q0 6 5 14l61 95
q12 22 34 22q15 0 24 -8t8 -23q0 -11 -10 -23l-75 -79q-16 -16 -31 -16q-6 0 -11 5.5z" />
    <glyph glyph-name="b" unicode="b" horiz-adv-x="602" 
d="M442 489q54 -34 84.5 -94.5t30.5 -136.5q0 -75 -30.5 -136.5t-84 -96.5t-119.5 -35q-57 0 -105.5 28.5t-78.5 75.5v-66q0 -13 -8.5 -22t-21.5 -9t-21.5 9t-8.5 22v681q0 13 8.5 21.5t21.5 8.5t21.5 -8.5t8.5 -21.5v-295q27 49 76 79t107 30q66 0 120 -34zM410.5 74
q41.5 28 65 76.5t23.5 107.5q0 60 -23.5 107.5t-65 74.5t-93.5 27q-53 0 -95 -26.5t-65 -74.5t-23 -108t23.5 -108.5t65 -76t94.5 -27.5q52 0 93.5 28z" />
    <glyph glyph-name="c" unicode="c" horiz-adv-x="514" 
d="M387.5 512.5q40.5 -10.5 65 -28.5t24.5 -39q0 -11 -7.5 -20t-18.5 -9q-10 0 -16.5 4t-14.5 12q-13 13 -25 19q-15 7 -39.5 11.5t-52.5 4.5q-55 0 -100.5 -28t-71.5 -76t-26 -106q0 -60 25 -108t69.5 -75.5t101.5 -27.5q36 0 57.5 6t42.5 17q7 4 24 18q8 7 14 10.5t13 3.5
q12 0 19 -7.5t7 -19.5q0 -17 -24 -36.5t-66 -33.5t-93 -14q-73 0 -130 34.5t-88.5 95.5t-31.5 137q0 73 32 133.5t90 96.5t133 36q47 0 87.5 -10.5z" />
    <glyph glyph-name="cacute" unicode="&#x107;" horiz-adv-x="514" 
d="M387.5 512.5q40.5 -10.5 65 -28.5t24.5 -39q0 -11 -7.5 -20t-18.5 -9q-10 0 -16.5 4t-14.5 12q-13 13 -25 19q-15 7 -39.5 11.5t-52.5 4.5q-55 0 -100.5 -28t-71.5 -76t-26 -106q0 -60 25 -108t69.5 -75.5t101.5 -27.5q36 0 57.5 6t42.5 17q7 4 24 18q8 7 14 10.5t13 3.5
q12 0 19 -7.5t7 -19.5q0 -17 -24 -36.5t-66 -33.5t-93 -14q-73 0 -130 34.5t-88.5 95.5t-31.5 137q0 73 32 133.5t90 96.5t133 36q47 0 87.5 -10.5zM273 556.5q-5 5.5 -5 12.5q0 6 5 14l61 95q12 22 34 22q15 0 24 -8t8 -23q0 -11 -10 -23l-75 -79q-16 -16 -31 -16
q-6 0 -11 5.5z" />
    <glyph glyph-name="ccaron" unicode="&#x10d;" horiz-adv-x="514" 
d="M387.5 512.5q40.5 -10.5 65 -28.5t24.5 -39q0 -11 -7.5 -20t-18.5 -9q-10 0 -16.5 4t-14.5 12q-13 13 -25 19q-15 7 -39.5 11.5t-52.5 4.5q-55 0 -100.5 -28t-71.5 -76t-26 -106q0 -60 25 -108t69.5 -75.5t101.5 -27.5q36 0 57.5 6t42.5 17q7 4 24 18q8 7 14 10.5t13 3.5
q12 0 19 -7.5t7 -19.5q0 -17 -24 -36.5t-66 -33.5t-93 -14q-73 0 -130 34.5t-88.5 95.5t-31.5 137q0 73 32 133.5t90 96.5t133 36q47 0 87.5 -10.5zM412.5 692q5.5 -5 5.5 -11q0 -7 -9 -18l-72 -78q-11 -16 -33 -16h-16q-22 0 -34 16l-71 78q-8 8 -8 17q0 6 5 11t14 5
q10 0 26 -13l78 -63l74 63q16 14 28 14q7 0 12.5 -5z" />
    <glyph glyph-name="ccedilla" unicode="&#xe7;" horiz-adv-x="514" 
d="M456.5 39.5q-21.5 -18.5 -59.5 -32.5t-84 -17l-53 -114q-9 -20 -26 -20q-12 0 -27.5 9.5t-15.5 22.5q0 11 7 18l68 85q-66 7 -116 43t-77.5 94t-27.5 129q0 73 32 133.5t90 96.5t133 36q47 0 87.5 -10.5t65 -28.5t24.5 -39q0 -11 -7.5 -20t-18.5 -9q-10 0 -16.5 4
t-14.5 12q-13 13 -25 19q-15 7 -39.5 11.5t-52.5 4.5q-55 0 -100.5 -28t-71.5 -76t-26 -106q0 -60 25 -108t69.5 -75.5t101.5 -27.5q36 0 57.5 6t42.5 17q7 4 24 18q8 7 14 10.5t13 3.5q12 0 19 -7.5t7 -19.5q0 -16 -21.5 -34.5z" />
    <glyph glyph-name="uni1E09" unicode="&#x1e09;" horiz-adv-x="514" 
d="M273 556.5q-5 5.5 -5 12.5q0 6 5 14l61 95q12 22 34 22q15 0 24 -8t8 -23q0 -11 -10 -23l-75 -79q-16 -16 -31 -16q-6 0 -11 5.5zM456.5 39.5q-21.5 -18.5 -59.5 -32.5t-84 -17l-53 -114q-9 -20 -26 -20q-12 0 -27.5 9.5t-15.5 22.5q0 11 7 18l68 85q-66 7 -116 43
t-77.5 94t-27.5 129q0 73 32 133.5t90 96.5t133 36q47 0 87.5 -10.5t65 -28.5t24.5 -39q0 -11 -7.5 -20t-18.5 -9q-10 0 -16.5 4t-14.5 12q-13 13 -25 19q-15 7 -39.5 11.5t-52.5 4.5q-55 0 -100.5 -28t-71.5 -76t-26 -106q0 -60 25 -108t69.5 -75.5t101.5 -27.5
q36 0 57.5 6t42.5 17q7 4 24 18q8 7 14 10.5t13 3.5q12 0 19 -7.5t7 -19.5q0 -16 -21.5 -34.5z" />
    <glyph glyph-name="ccircumflex" unicode="&#x109;" horiz-adv-x="514" 
d="M387.5 512.5q40.5 -10.5 65 -28.5t24.5 -39q0 -11 -7.5 -20t-18.5 -9q-10 0 -16.5 4t-14.5 12q-13 13 -25 19q-15 7 -39.5 11.5t-52.5 4.5q-55 0 -100.5 -28t-71.5 -76t-26 -106q0 -60 25 -108t69.5 -75.5t101.5 -27.5q36 0 57.5 6t42.5 17q7 4 24 18q8 7 14 10.5t13 3.5
q12 0 19 -7.5t7 -19.5q0 -17 -24 -36.5t-66 -33.5t-93 -14q-73 0 -130 34.5t-88.5 95.5t-31.5 137q0 73 32 133.5t90 96.5t133 36q47 0 87.5 -10.5zM419 591q0 -5 -5 -10t-11 -5q-8 0 -13 3t-14 11l-79 63l-76 -64q-2 -1 -7.5 -5.5t-9.5 -6.5t-9 -2q-7 0 -12 5t-5 11
q0 8 8 16l73 80q11 17 33 17h16q12 0 19 -3.5t13 -13.5l72 -79q7 -8 7 -17z" />
    <glyph glyph-name="cdotaccent" unicode="&#x10b;" horiz-adv-x="514" 
d="M387.5 512.5q40.5 -10.5 65 -28.5t24.5 -39q0 -11 -7.5 -20t-18.5 -9q-10 0 -16.5 4t-14.5 12q-13 13 -25 19q-15 7 -39.5 11.5t-52.5 4.5q-55 0 -100.5 -28t-71.5 -76t-26 -106q0 -60 25 -108t69.5 -75.5t101.5 -27.5q36 0 57.5 6t42.5 17q7 4 24 18q8 7 14 10.5t13 3.5
q12 0 19 -7.5t7 -19.5q0 -17 -24 -36.5t-66 -33.5t-93 -14q-73 0 -130 34.5t-88.5 95.5t-31.5 137q0 73 32 133.5t90 96.5t133 36q47 0 87.5 -10.5zM266 596.5q-11 9.5 -11 27.5v10q0 18 11.5 27.5t31.5 9.5q40 0 40 -37v-10q0 -18 -10.5 -27.5t-30.5 -9.5t-31 9.5z" />
    <glyph glyph-name="d" unicode="d" horiz-adv-x="602" 
d="M515.5 731.5q8.5 -8.5 8.5 -21.5v-680q0 -13 -8.5 -21.5t-21.5 -8.5t-21.5 8.5t-8.5 21.5v70q-25 -46 -74.5 -78t-109.5 -32q-66 0 -119.5 34.5t-84.5 95.5t-31 137q0 75 31 136t84.5 95.5t118.5 34.5q59 0 109 -29.5t76 -76.5v293q0 13 8.5 21.5t21.5 8.5t21.5 -8.5z
M379.5 73q41.5 27 65 75.5t23.5 108.5q0 59 -23.5 107t-65 75.5t-93.5 27.5t-93.5 -27.5t-65 -75.5t-23.5 -107q0 -60 23.5 -108t65 -75.5t93.5 -27.5t93.5 27z" />
    <glyph glyph-name="eth" unicode="&#xf0;" horiz-adv-x="565" 
d="M492 451.5q28 -89.5 28 -167.5q0 -84 -31.5 -149t-86 -101.5t-120.5 -36.5q-65 0 -119.5 36t-86 96.5t-31.5 131.5q0 70 32 129t85.5 93.5t115.5 34.5q48 0 86.5 -20.5t66.5 -55.5q-25 91 -79 150l-135 -45q-8 -2 -11 -2q-11 0 -17.5 6.5t-6.5 18.5q0 19 20 24l107 36
q-49 37 -116 50q-26 8 -26 29q0 13 7 22t20 9q8 0 13 -2q93 -21 163 -86l83 27q8 2 11 2q10 0 17 -6.5t7 -18.5q0 -9 -5.5 -15.5t-14.5 -8.5l-60 -21q56 -70 84 -159.5zM370.5 83q40.5 28 64.5 75.5t24 102.5q0 52 -23.5 98t-64.5 73.5t-89 27.5q-49 0 -89.5 -26.5t-64 -72
t-23.5 -100.5t24 -102.5t64.5 -75.5t88.5 -28t88.5 28z" />
    <glyph glyph-name="dcaron" unicode="&#x10f;" horiz-adv-x="720" 
d="M515.5 731.5q8.5 -8.5 8.5 -21.5v-680q0 -13 -8.5 -21.5t-21.5 -8.5t-21.5 8.5t-8.5 21.5v70q-25 -46 -74.5 -78t-109.5 -32q-66 0 -119.5 34.5t-84.5 95.5t-31 137q0 75 31 136t84.5 95.5t118.5 34.5q59 0 109 -29.5t76 -76.5v293q0 13 8.5 21.5t21.5 8.5t21.5 -8.5z
M379.5 73q41.5 27 65 75.5t23.5 108.5q0 59 -23.5 107t-65 75.5t-93.5 27.5t-93.5 -27.5t-65 -75.5t-23.5 -107q0 -60 23.5 -108t65 -75.5t93.5 -27.5t93.5 27zM703.5 550.5q-14.5 -28.5 -36.5 -47t-43 -18.5q-11 0 -18.5 5.5t-7.5 16.5q0 10 5 14t15.5 7t15.5 6
q14 7 21.5 20.5t7.5 29.5q0 11 -6 18t-16 7q-17 0 -27 -9q-12 10 -12 24q0 18 18 31.5t39 13.5q26 0 42.5 -16.5t16.5 -45.5q0 -28 -14.5 -56.5z" />
    <glyph glyph-name="dcroat" unicode="&#x111;" horiz-adv-x="602" 
d="M576 635.5q8 -7.5 8 -20.5t-8 -20.5t-22 -7.5h-30v-557q0 -13 -8.5 -21.5t-21.5 -8.5t-21.5 8.5t-8.5 21.5v70q-25 -46 -74.5 -78t-109.5 -32q-66 0 -119.5 34.5t-84.5 95.5t-31 137q0 75 31 136t84.5 95.5t118.5 34.5q59 0 109 -29.5t76 -76.5v170h-74q-14 0 -22 8
t-8 21q0 12 8.5 19.5t21.5 7.5h74v67q0 13 8.5 21.5t21.5 8.5t21.5 -8.5t8.5 -21.5v-67h30q14 0 22 -7.5zM379.5 73q41.5 27 65 75.5t23.5 108.5q0 59 -23.5 107t-65 75.5t-93.5 27.5t-93.5 -27.5t-65 -75.5t-23.5 -107q0 -60 23.5 -108t65 -75.5t93.5 -27.5t93.5 27z" />
    <glyph glyph-name="uni1E0D" unicode="&#x1e0d;" horiz-adv-x="602" 
d="M515.5 731.5q8.5 -8.5 8.5 -21.5v-680q0 -13 -8.5 -21.5t-21.5 -8.5t-21.5 8.5t-8.5 21.5v70q-25 -46 -74.5 -78t-109.5 -32q-66 0 -119.5 34.5t-84.5 95.5t-31 137q0 75 31 136t84.5 95.5t118.5 34.5q59 0 109 -29.5t76 -76.5v293q0 13 8.5 21.5t21.5 8.5t21.5 -8.5z
M379.5 73q41.5 27 65 75.5t23.5 108.5q0 59 -23.5 107t-65 75.5t-93.5 27.5t-93.5 -27.5t-65 -75.5t-23.5 -107q0 -60 23.5 -108t65 -75.5t93.5 -27.5t93.5 27zM271 -127.5q-11 9.5 -11 26.5v11q0 18 11.5 27.5t30.5 9.5q41 0 41 -37v-11q0 -36 -41 -36q-20 0 -31 9.5z" />
    <glyph glyph-name="uni1E0F" unicode="&#x1e0f;" horiz-adv-x="602" 
d="M515.5 731.5q8.5 -8.5 8.5 -21.5v-680q0 -13 -8.5 -21.5t-21.5 -8.5t-21.5 8.5t-8.5 21.5v70q-25 -46 -74.5 -78t-109.5 -32q-66 0 -119.5 34.5t-84.5 95.5t-31 137q0 75 31 136t84.5 95.5t118.5 34.5q59 0 109 -29.5t76 -76.5v293q0 13 8.5 21.5t21.5 8.5t21.5 -8.5z
M379.5 73q41.5 27 65 75.5t23.5 108.5q0 59 -23.5 107t-65 75.5t-93.5 27.5t-93.5 -27.5t-65 -75.5t-23.5 -107q0 -60 23.5 -108t65 -75.5t93.5 -27.5t93.5 27zM153 -100q0 25 28 25h233q13 0 20 -6.5t7 -18.5q0 -25 -27 -25h-233q-28 0 -28 25z" />
    <glyph glyph-name="uni01C6" unicode="&#x1c6;" horiz-adv-x="1081" 
d="M515.5 731.5q8.5 -8.5 8.5 -21.5v-680q0 -13 -8.5 -21.5t-21.5 -8.5t-21.5 8.5t-8.5 21.5v70q-25 -46 -74.5 -78t-109.5 -32q-66 0 -119.5 34.5t-84.5 95.5t-31 137q0 75 31 136t84.5 95.5t118.5 34.5q59 0 109 -29.5t76 -76.5v293q0 13 8.5 21.5t21.5 8.5t21.5 -8.5z
M379.5 73q41.5 27 65 75.5t23.5 108.5q0 59 -23.5 107t-65 75.5t-93.5 27.5t-93.5 -27.5t-65 -75.5t-23.5 -107q0 -60 23.5 -108t65 -75.5t93.5 -27.5t93.5 27zM1022 48q8 -8 8 -20t-8 -20t-21 -8h-325q-13 0 -21 9.5t-8 19.5q0 13 9 23l296 410h-251q-12 0 -20.5 8t-8.5 20
t8.5 20t20.5 8h307q12 0 20 -9t8 -21q0 -11 -8 -22l-297 -410h270q13 0 21 -8zM974.5 692q5.5 -5 5.5 -11q0 -7 -9 -18l-72 -78q-11 -16 -33 -16h-16q-22 0 -34 16l-71 78q-8 8 -8 17q0 6 5 11t14 5q10 0 26 -13l78 -63l74 63q16 14 28 14q7 0 12.5 -5z" />
    <glyph glyph-name="e" unicode="e" horiz-adv-x="556" 
d="M502 264.5q-9 -8.5 -21 -8.5h-378q0 -60 24.5 -107.5t70 -75t107.5 -27.5q48 0 86 20t61 51q11 9 21 9t18 -8t8 -18q0 -11 -10 -21q-32 -39 -80.5 -64t-102.5 -25q-77 0 -136 33t-92 92.5t-33 137.5q0 82 32.5 143.5t86.5 94t115 32.5q60 0 112.5 -28t85.5 -82t34 -128
q0 -12 -9 -20.5zM171.5 425q-49.5 -40 -63.5 -115h341v8q-5 45 -30 78.5t-62.5 51t-77.5 17.5q-58 0 -107.5 -40z" />
    <glyph glyph-name="eacute" unicode="&#xe9;" horiz-adv-x="556" 
d="M502 264.5q-9 -8.5 -21 -8.5h-378q0 -60 24.5 -107.5t70 -75t107.5 -27.5q48 0 86 20t61 51q11 9 21 9t18 -8t8 -18q0 -11 -10 -21q-32 -39 -80.5 -64t-102.5 -25q-77 0 -136 33t-92 92.5t-33 137.5q0 82 32.5 143.5t86.5 94t115 32.5q60 0 112.5 -28t85.5 -82t34 -128
q0 -12 -9 -20.5zM171.5 425q-49.5 -40 -63.5 -115h341v8q-5 45 -30 78.5t-62.5 51t-77.5 17.5q-58 0 -107.5 -40zM259 556.5q-5 5.5 -5 12.5q0 6 5 14l61 95q12 22 34 22q15 0 24 -8t8 -23q0 -11 -10 -23l-75 -79q-16 -16 -31 -16q-6 0 -11 5.5z" />
    <glyph glyph-name="ebreve" unicode="&#x115;" horiz-adv-x="556" 
d="M502 264.5q-9 -8.5 -21 -8.5h-378q0 -60 24.5 -107.5t70 -75t107.5 -27.5q48 0 86 20t61 51q11 9 21 9t18 -8t8 -18q0 -11 -10 -21q-32 -39 -80.5 -64t-102.5 -25q-77 0 -136 33t-92 92.5t-33 137.5q0 82 32.5 143.5t86.5 94t115 32.5q60 0 112.5 -28t85.5 -82t34 -128
q0 -12 -9 -20.5zM171.5 425q-49.5 -40 -63.5 -115h341v8q-5 45 -30 78.5t-62.5 51t-77.5 17.5q-58 0 -107.5 -40zM187.5 608.5q-37.5 35.5 -42.5 84.5q-2 11 4.5 19.5t17.5 8.5q12 0 19 -6t12 -18q6 -35 27 -55t51 -20q29 0 50 20t28 55q10 24 30 24q11 0 17.5 -8t4.5 -19
q-5 -50 -42 -85.5t-88 -35.5t-88.5 35.5z" />
    <glyph glyph-name="ecaron" unicode="&#x11b;" horiz-adv-x="556" 
d="M502 264.5q-9 -8.5 -21 -8.5h-378q0 -60 24.5 -107.5t70 -75t107.5 -27.5q48 0 86 20t61 51q11 9 21 9t18 -8t8 -18q0 -11 -10 -21q-32 -39 -80.5 -64t-102.5 -25q-77 0 -136 33t-92 92.5t-33 137.5q0 82 32.5 143.5t86.5 94t115 32.5q60 0 112.5 -28t85.5 -82t34 -128
q0 -12 -9 -20.5zM171.5 425q-49.5 -40 -63.5 -115h341v8q-5 45 -30 78.5t-62.5 51t-77.5 17.5q-58 0 -107.5 -40zM398.5 692q5.5 -5 5.5 -11q0 -7 -9 -18l-72 -78q-11 -16 -33 -16h-16q-22 0 -34 16l-71 78q-8 8 -8 17q0 6 5 11t14 5q10 0 26 -13l78 -63l74 63q16 14 28 14
q7 0 12.5 -5z" />
    <glyph glyph-name="uni1E1D" unicode="&#x1e1d;" horiz-adv-x="556" 
d="M187.5 608.5q-37.5 35.5 -42.5 84.5q-2 11 4.5 19.5t17.5 8.5q12 0 19 -6t12 -18q6 -35 27 -55t51 -20q29 0 50 20t28 55q10 24 30 24q11 0 17.5 -8t4.5 -19q-5 -50 -42 -85.5t-88 -35.5t-88.5 35.5zM502 264.5q-9 -8.5 -21 -8.5h-378q0 -60 24.5 -107.5t70 -75
t107.5 -27.5q48 0 86 20t61 51q11 9 21 9t18 -8t8 -18q0 -11 -10 -21q-28 -34 -68.5 -57.5t-86.5 -29.5l-53 -116q-9 -20 -26 -20q-12 0 -27.5 9.5t-15.5 22.5q0 11 7 18l68 85q-72 4 -127 38t-85 92t-30 132q0 82 32.5 143.5t86.5 94t115 32.5q60 0 112.5 -28t85.5 -82
t34 -128q0 -12 -9 -20.5zM171.5 425q-49.5 -40 -63.5 -115h341v8q-5 45 -30 78.5t-62.5 51t-77.5 17.5q-58 0 -107.5 -40z" />
    <glyph glyph-name="ecircumflex" unicode="&#xea;" horiz-adv-x="556" 
d="M502 264.5q-9 -8.5 -21 -8.5h-378q0 -60 24.5 -107.5t70 -75t107.5 -27.5q48 0 86 20t61 51q11 9 21 9t18 -8t8 -18q0 -11 -10 -21q-32 -39 -80.5 -64t-102.5 -25q-77 0 -136 33t-92 92.5t-33 137.5q0 82 32.5 143.5t86.5 94t115 32.5q60 0 112.5 -28t85.5 -82t34 -128
q0 -12 -9 -20.5zM171.5 425q-49.5 -40 -63.5 -115h341v8q-5 45 -30 78.5t-62.5 51t-77.5 17.5q-58 0 -107.5 -40zM405 591q0 -5 -5 -10t-11 -5q-8 0 -13 3t-14 11l-79 63l-76 -64q-2 -1 -7.5 -5.5t-9.5 -6.5t-9 -2q-7 0 -12 5t-5 11q0 8 8 16l73 80q11 17 33 17h16
q12 0 19 -3.5t13 -13.5l72 -79q7 -8 7 -17z" />
    <glyph glyph-name="uni1EBF" unicode="&#x1ebf;" horiz-adv-x="556" 
d="M502 264.5q-9 -8.5 -21 -8.5h-378q0 -60 24.5 -107.5t70 -75t107.5 -27.5q48 0 86 20t61 51q11 9 21 9t18 -8t8 -18q0 -11 -10 -21q-32 -39 -80.5 -64t-102.5 -25q-77 0 -136 33t-92 92.5t-33 137.5q0 82 32.5 143.5t86.5 94t115 32.5q60 0 112.5 -28t85.5 -82t34 -128
q0 -12 -9 -20.5zM171.5 425q-49.5 -40 -63.5 -115h341v8q-5 45 -30 78.5t-62.5 51t-77.5 17.5q-58 0 -107.5 -40zM397 587q0 -5 -5 -10t-11 -5q-8 0 -13 3t-14 11l-79 63l-76 -64q-2 -1 -7.5 -5.5t-9.5 -6.5t-9 -2q-7 0 -12 5t-5 11q0 8 8 16l73 80q11 17 33 17h16
q12 0 19 -3.5t13 -13.5l72 -79q7 -8 7 -17zM380 659.5q-5 5.5 -5 12.5q0 6 5 14l61 95q12 22 34 22q15 0 24 -8t8 -23q0 -11 -10 -23l-75 -79q-16 -16 -31 -16q-6 0 -11 5.5z" />
    <glyph glyph-name="uni1EC7" unicode="&#x1ec7;" horiz-adv-x="556" 
d="M502 264.5q-9 -8.5 -21 -8.5h-378q0 -60 24.5 -107.5t70 -75t107.5 -27.5q48 0 86 20t61 51q11 9 21 9t18 -8t8 -18q0 -11 -10 -21q-32 -39 -80.5 -64t-102.5 -25q-77 0 -136 33t-92 92.5t-33 137.5q0 82 32.5 143.5t86.5 94t115 32.5q60 0 112.5 -28t85.5 -82t34 -128
q0 -12 -9 -20.5zM171.5 425q-49.5 -40 -63.5 -115h341v8q-5 45 -30 78.5t-62.5 51t-77.5 17.5q-58 0 -107.5 -40zM247 -127.5q-11 9.5 -11 26.5v11q0 18 11.5 27.5t30.5 9.5q41 0 41 -37v-11q0 -36 -41 -36q-20 0 -31 9.5zM405 591q0 -5 -5 -10t-11 -5q-8 0 -13 3t-14 11
l-79 63l-76 -64q-2 -1 -7.5 -5.5t-9.5 -6.5t-9 -2q-7 0 -12 5t-5 11q0 8 8 16l73 80q11 17 33 17h16q12 0 19 -3.5t13 -13.5l72 -79q7 -8 7 -17z" />
    <glyph glyph-name="uni1EC1" unicode="&#x1ec1;" horiz-adv-x="556" 
d="M502 264.5q-9 -8.5 -21 -8.5h-378q0 -60 24.5 -107.5t70 -75t107.5 -27.5q48 0 86 20t61 51q11 9 21 9t18 -8t8 -18q0 -11 -10 -21q-32 -39 -80.5 -64t-102.5 -25q-77 0 -136 33t-92 92.5t-33 137.5q0 82 32.5 143.5t86.5 94t115 32.5q60 0 112.5 -28t85.5 -82t34 -128
q0 -12 -9 -20.5zM171.5 425q-49.5 -40 -63.5 -115h341v8q-5 45 -30 78.5t-62.5 51t-77.5 17.5q-58 0 -107.5 -40zM391 587q0 -5 -5 -10t-11 -5q-8 0 -13 3t-14 11l-79 63l-76 -64q-2 -1 -7.5 -5.5t-9.5 -6.5t-9 -2q-7 0 -12 5t-5 11q0 8 8 16l73 80q11 17 33 17h16
q12 0 19 -3.5t13 -13.5l72 -79q7 -8 7 -17zM376 688l-79 73q-14 11 -14 26q0 14 8.5 21.5t21.5 7.5q18 0 31 -17l68 -89q8 -10 8 -16q0 -8 -5.5 -13t-13.5 -5q-11 0 -25 12z" />
    <glyph glyph-name="uni1EC3" unicode="&#x1ec3;" horiz-adv-x="556" 
d="M502 264.5q-9 -8.5 -21 -8.5h-378q0 -60 24.5 -107.5t70 -75t107.5 -27.5q48 0 86 20t61 51q11 9 21 9t18 -8t8 -18q0 -11 -10 -21q-32 -39 -80.5 -64t-102.5 -25q-77 0 -136 33t-92 92.5t-33 137.5q0 82 32.5 143.5t86.5 94t115 32.5q60 0 112.5 -28t85.5 -82t34 -128
q0 -12 -9 -20.5zM171.5 425q-49.5 -40 -63.5 -115h341v8q-5 45 -30 78.5t-62.5 51t-77.5 17.5q-58 0 -107.5 -40zM401 589q0 -5 -5 -10t-11 -5q-8 0 -13 3t-14 11l-79 63l-76 -64q-2 -1 -7.5 -5.5t-9.5 -6.5t-9 -2q-7 0 -12 5t-5 11q0 8 8 16l73 80q11 17 33 17h16
q12 0 19 -3.5t13 -13.5l72 -79q7 -8 7 -17zM419 810q42 0 61.5 -23t19.5 -51q0 -16 -8 -29t-25 -31q-12 -13 -13 -27q-1 -8 -7 -13t-14 -5q-9 0 -15 5.5t-6 13.5q0 24 15 40q4 4 12.5 13.5t12.5 17t4 14.5q0 13 -11 21.5t-26 8.5q-21 0 -45 -18q-10 -8 -18 -8t-16 8
q-5 7 -5 14q0 9 9 18q34 31 75 31z" />
    <glyph glyph-name="uni1EC5" unicode="&#x1ec5;" horiz-adv-x="556" 
d="M502 264.5q-9 -8.5 -21 -8.5h-378q0 -60 24.5 -107.5t70 -75t107.5 -27.5q48 0 86 20t61 51q11 9 21 9t18 -8t8 -18q0 -11 -10 -21q-32 -39 -80.5 -64t-102.5 -25q-77 0 -136 33t-92 92.5t-33 137.5q0 82 32.5 143.5t86.5 94t115 32.5q60 0 112.5 -28t85.5 -82t34 -128
q0 -12 -9 -20.5zM171.5 425q-49.5 -40 -63.5 -115h341v8q-5 45 -30 78.5t-62.5 51t-77.5 17.5q-58 0 -107.5 -40zM403 578q0 -5 -5 -10t-11 -5q-8 0 -13 3t-14 11l-79 63l-76 -64q-2 -1 -7.5 -5.5t-9.5 -6.5t-9 -2q-7 0 -12 5t-5 11q0 8 8 16l73 80q11 17 33 17h16
q12 0 19 -3.5t13 -13.5l72 -79q7 -8 7 -17zM133 730l2 16q7 32 31.5 50t58.5 18q17 0 36 -8.5t43 -24.5q21 -13 33 -19t23 -6q29 0 32 38q-1 11 5.5 18t17.5 7q26 0 26 -30q0 -8 -1 -12q-6 -33 -28.5 -52t-58.5 -19q-15 0 -32 7.5t-41 22.5q-24 14 -37.5 20t-24.5 6
q-30 0 -38 -37q0 -11 -6.5 -16.5t-16.5 -5.5q-24 0 -24 27z" />
    <glyph glyph-name="uni0205" unicode="&#x205;" horiz-adv-x="556" 
d="M502 264.5q-9 -8.5 -21 -8.5h-378q0 -60 24.5 -107.5t70 -75t107.5 -27.5q48 0 86 20t61 51q11 9 21 9t18 -8t8 -18q0 -11 -10 -21q-32 -39 -80.5 -64t-102.5 -25q-77 0 -136 33t-92 92.5t-33 137.5q0 82 32.5 143.5t86.5 94t115 32.5q60 0 112.5 -28t85.5 -82t34 -128
q0 -12 -9 -20.5zM171.5 425q-49.5 -40 -63.5 -115h341v8q-5 45 -30 78.5t-62.5 51t-77.5 17.5q-58 0 -107.5 -40zM208 607l-78 73q-15 12 -15 26t8.5 21.5t21.5 7.5q17 0 32 -17l68 -89q7 -8 7 -16t-5 -13t-14 -5q-11 0 -25 12zM351 607l-79 73q-14 11 -14 26q0 14 8.5 21.5
t21.5 7.5q18 0 31 -17l68 -89q8 -10 8 -16q0 -8 -5.5 -13t-13.5 -5q-11 0 -25 12z" />
    <glyph glyph-name="edieresis" unicode="&#xeb;" horiz-adv-x="556" 
d="M502 264.5q-9 -8.5 -21 -8.5h-378q0 -60 24.5 -107.5t70 -75t107.5 -27.5q48 0 86 20t61 51q11 9 21 9t18 -8t8 -18q0 -11 -10 -21q-32 -39 -80.5 -64t-102.5 -25q-77 0 -136 33t-92 92.5t-33 137.5q0 82 32.5 143.5t86.5 94t115 32.5q60 0 112.5 -28t85.5 -82t34 -128
q0 -12 -9 -20.5zM171.5 425q-49.5 -40 -63.5 -115h341v8q-5 45 -30 78.5t-62.5 51t-77.5 17.5q-58 0 -107.5 -40zM158 601.5q-11 10.5 -11 29.5v10q0 19 11 29.5t30 10.5t30 -10.5t11 -29.5v-10q0 -19 -10.5 -29.5t-30.5 -10.5q-19 0 -30 10.5zM330 601.5q-11 10.5 -11 29.5
v10q0 19 11 29.5t31 10.5q19 0 29.5 -10.5t10.5 -29.5v-10q0 -19 -10.5 -29.5t-30.5 -10.5q-19 0 -30 10.5z" />
    <glyph glyph-name="edotaccent" unicode="&#x117;" horiz-adv-x="556" 
d="M502 264.5q-9 -8.5 -21 -8.5h-378q0 -60 24.5 -107.5t70 -75t107.5 -27.5q48 0 86 20t61 51q11 9 21 9t18 -8t8 -18q0 -11 -10 -21q-32 -39 -80.5 -64t-102.5 -25q-77 0 -136 33t-92 92.5t-33 137.5q0 82 32.5 143.5t86.5 94t115 32.5q60 0 112.5 -28t85.5 -82t34 -128
q0 -12 -9 -20.5zM171.5 425q-49.5 -40 -63.5 -115h341v8q-5 45 -30 78.5t-62.5 51t-77.5 17.5q-58 0 -107.5 -40zM252 596.5q-11 9.5 -11 27.5v10q0 18 11.5 27.5t31.5 9.5q40 0 40 -37v-10q0 -18 -10.5 -27.5t-30.5 -9.5t-31 9.5z" />
    <glyph glyph-name="uni1EB9" unicode="&#x1eb9;" horiz-adv-x="556" 
d="M502 264.5q-9 -8.5 -21 -8.5h-378q0 -60 24.5 -107.5t70 -75t107.5 -27.5q48 0 86 20t61 51q11 9 21 9t18 -8t8 -18q0 -11 -10 -21q-32 -39 -80.5 -64t-102.5 -25q-77 0 -136 33t-92 92.5t-33 137.5q0 82 32.5 143.5t86.5 94t115 32.5q60 0 112.5 -28t85.5 -82t34 -128
q0 -12 -9 -20.5zM171.5 425q-49.5 -40 -63.5 -115h341v8q-5 45 -30 78.5t-62.5 51t-77.5 17.5q-58 0 -107.5 -40zM247 -127.5q-11 9.5 -11 26.5v11q0 18 11.5 27.5t30.5 9.5q41 0 41 -37v-11q0 -36 -41 -36q-20 0 -31 9.5z" />
    <glyph glyph-name="egrave" unicode="&#xe8;" horiz-adv-x="556" 
d="M502 264.5q-9 -8.5 -21 -8.5h-378q0 -60 24.5 -107.5t70 -75t107.5 -27.5q48 0 86 20t61 51q11 9 21 9t18 -8t8 -18q0 -11 -10 -21q-32 -39 -80.5 -64t-102.5 -25q-77 0 -136 33t-92 92.5t-33 137.5q0 82 32.5 143.5t86.5 94t115 32.5q60 0 112.5 -28t85.5 -82t34 -128
q0 -12 -9 -20.5zM171.5 425q-49.5 -40 -63.5 -115h341v8q-5 45 -30 78.5t-62.5 51t-77.5 17.5q-58 0 -107.5 -40zM260 570l-79 73q-14 11 -14 26q0 14 8.5 21.5t21.5 7.5q18 0 31 -17l68 -89q8 -10 8 -16q0 -8 -5.5 -13t-13.5 -5q-11 0 -25 12z" />
    <glyph glyph-name="uni1EBB" unicode="&#x1ebb;" horiz-adv-x="556" 
d="M502 264.5q-9 -8.5 -21 -8.5h-378q0 -60 24.5 -107.5t70 -75t107.5 -27.5q48 0 86 20t61 51q11 9 21 9t18 -8t8 -18q0 -11 -10 -21q-32 -39 -80.5 -64t-102.5 -25q-77 0 -136 33t-92 92.5t-33 137.5q0 82 32.5 143.5t86.5 94t115 32.5q60 0 112.5 -28t85.5 -82t34 -128
q0 -12 -9 -20.5zM171.5 425q-49.5 -40 -63.5 -115h341v8q-5 45 -30 78.5t-62.5 51t-77.5 17.5q-58 0 -107.5 -40zM281 737q42 0 61.5 -23t19.5 -51q0 -16 -8 -29t-25 -31q-12 -13 -13 -27q-1 -8 -7 -13t-14 -5q-9 0 -15 5.5t-6 13.5q0 24 15 40q4 4 12.5 13.5t12.5 17
t4 14.5q0 13 -11 21.5t-26 8.5q-21 0 -45 -18q-10 -8 -18 -8t-16 8q-5 7 -5 14q0 9 9 18q34 31 75 31z" />
    <glyph glyph-name="uni0207" unicode="&#x207;" horiz-adv-x="556" 
d="M502 264.5q-9 -8.5 -21 -8.5h-378q0 -60 24.5 -107.5t70 -75t107.5 -27.5q48 0 86 20t61 51q11 9 21 9t18 -8t8 -18q0 -11 -10 -21q-32 -39 -80.5 -64t-102.5 -25q-77 0 -136 33t-92 92.5t-33 137.5q0 82 32.5 143.5t86.5 94t115 32.5q60 0 112.5 -28t85.5 -82t34 -128
q0 -12 -9 -20.5zM171.5 425q-49.5 -40 -63.5 -115h341v8q-5 45 -30 78.5t-62.5 51t-77.5 17.5q-58 0 -107.5 -40zM379 685.5q37 -35.5 42 -85.5q2 -11 -4.5 -19t-17.5 -8q-22 0 -30 24q-7 35 -28 54.5t-50 19.5t-50 -20t-28 -54q-5 -12 -12 -18t-19 -6q-11 0 -17.5 7.5
t-4.5 18.5q5 50 42 86t89 36q51 0 88 -35.5z" />
    <glyph glyph-name="emacron" unicode="&#x113;" horiz-adv-x="556" 
d="M502 264.5q-9 -8.5 -21 -8.5h-378q0 -60 24.5 -107.5t70 -75t107.5 -27.5q48 0 86 20t61 51q11 9 21 9t18 -8t8 -18q0 -11 -10 -21q-32 -39 -80.5 -64t-102.5 -25q-77 0 -136 33t-92 92.5t-33 137.5q0 82 32.5 143.5t86.5 94t115 32.5q60 0 112.5 -28t85.5 -82t34 -128
q0 -12 -9 -20.5zM171.5 425q-49.5 -40 -63.5 -115h341v8q-5 45 -30 78.5t-62.5 51t-77.5 17.5q-58 0 -107.5 -40zM133 630q0 13 7.5 20t20.5 7h240q13 0 20.5 -7t7.5 -20q0 -26 -28 -26h-240q-28 0 -28 26z" />
    <glyph glyph-name="uni1E17" unicode="&#x1e17;" horiz-adv-x="556" 
d="M502 264.5q-9 -8.5 -21 -8.5h-378q0 -60 24.5 -107.5t70 -75t107.5 -27.5q48 0 86 20t61 51q11 9 21 9t18 -8t8 -18q0 -11 -10 -21q-32 -39 -80.5 -64t-102.5 -25q-77 0 -136 33t-92 92.5t-33 137.5q0 82 32.5 143.5t86.5 94t115 32.5q60 0 112.5 -28t85.5 -82t34 -128
q0 -12 -9 -20.5zM171.5 425q-49.5 -40 -63.5 -115h341v8q-5 45 -30 78.5t-62.5 51t-77.5 17.5q-58 0 -107.5 -40zM133 630q0 13 7.5 20t20.5 7h240q13 0 20.5 -7t7.5 -20q0 -26 -28 -26h-240q-28 0 -28 26zM259 740.5q-5 5.5 -5 12.5q0 6 5 14l61 95q12 22 34 22q15 0 24 -8
t8 -23q0 -11 -10 -23l-75 -79q-16 -16 -31 -16q-6 0 -11 5.5z" />
    <glyph glyph-name="uni1E15" unicode="&#x1e15;" horiz-adv-x="556" 
d="M502 264.5q-9 -8.5 -21 -8.5h-378q0 -60 24.5 -107.5t70 -75t107.5 -27.5q48 0 86 20t61 51q11 9 21 9t18 -8t8 -18q0 -11 -10 -21q-32 -39 -80.5 -64t-102.5 -25q-77 0 -136 33t-92 92.5t-33 137.5q0 82 32.5 143.5t86.5 94t115 32.5q60 0 112.5 -28t85.5 -82t34 -128
q0 -12 -9 -20.5zM171.5 425q-49.5 -40 -63.5 -115h341v8q-5 45 -30 78.5t-62.5 51t-77.5 17.5q-58 0 -107.5 -40zM133 630q0 13 7.5 20t20.5 7h240q13 0 20.5 -7t7.5 -20q0 -26 -28 -26h-240q-28 0 -28 26zM260 754l-79 73q-14 11 -14 26q0 14 8.5 21.5t21.5 7.5
q18 0 31 -17l68 -89q8 -10 8 -16q0 -8 -5.5 -13t-13.5 -5q-11 0 -25 12z" />
    <glyph glyph-name="eogonek" unicode="&#x119;" horiz-adv-x="556" 
d="M502 264.5q-9 -8.5 -21 -8.5h-378q0 -60 24.5 -107.5t70 -75t107.5 -27.5q48 0 86 20t61 51q11 9 21 9q11 0 19 -8.5t8 -18.5q0 -11 -11 -20q-16 -18 -47 -49q-37 -36 -53.5 -59.5t-16.5 -55.5q0 -24 14.5 -39.5t37.5 -15.5q22 0 29 12q12 15 26 15q11 0 17 -6t6 -16
q0 -12 -13 -25t-32.5 -22t-38.5 -9q-40 0 -69.5 26.5t-29.5 69.5q0 54 47 93q-30 -8 -60 -8q-77 0 -136 33t-92 92.5t-33 137.5q0 82 32.5 143.5t86.5 94t115 32.5q60 0 112.5 -28t85.5 -82t34 -128q0 -12 -9 -20.5zM169 424.5q-48 -40.5 -61 -114.5h341v8q-5 45 -30 78.5
t-62.5 51t-77.5 17.5q-62 0 -110 -40.5z" />
    <glyph glyph-name="uni1EBD" unicode="&#x1ebd;" horiz-adv-x="556" 
d="M502 264.5q-9 -8.5 -21 -8.5h-378q0 -60 24.5 -107.5t70 -75t107.5 -27.5q48 0 86 20t61 51q11 9 21 9t18 -8t8 -18q0 -11 -10 -21q-32 -39 -80.5 -64t-102.5 -25q-77 0 -136 33t-92 92.5t-33 137.5q0 82 32.5 143.5t86.5 94t115 32.5q60 0 112.5 -28t85.5 -82t34 -128
q0 -12 -9 -20.5zM171.5 425q-49.5 -40 -63.5 -115h341v8q-5 45 -30 78.5t-62.5 51t-77.5 17.5q-58 0 -107.5 -40zM130 608l2 16q7 32 31.5 50t58.5 18q17 0 36 -8.5t43 -24.5q21 -13 33 -19t23 -6q29 0 32 38q-1 11 5.5 18t17.5 7q26 0 26 -30q0 -8 -1 -12q-6 -33 -28.5 -52
t-58.5 -19q-15 0 -32 7.5t-41 22.5q-24 14 -37.5 20t-24.5 6q-30 0 -38 -37q0 -11 -6.5 -16.5t-16.5 -5.5q-24 0 -24 27z" />
    <glyph glyph-name="uni0259" unicode="&#x259;" horiz-adv-x="556" 
d="M386 483q59 -33 92 -92.5t33 -137.5q0 -82 -32.5 -143.5t-86.5 -94t-115 -32.5q-60 0 -112.5 28t-85.5 82t-34 128q0 12 9 20.5t21 8.5h378q0 60 -24.5 107.5t-70 75t-107.5 27.5q-48 0 -86 -20t-61 -51q-11 -9 -21 -9t-18 8t-8 18q0 11 10 21q32 39 80.5 64t102.5 25
q77 0 136 -33zM384.5 81q49.5 40 63.5 115h-341v-8q5 -45 30 -78.5t62.5 -51t77.5 -17.5q58 0 107.5 40z" />
    <glyph glyph-name="f" unicode="f" horiz-adv-x="353" 
d="M207.5 662q-17.5 -21 -17.5 -58v-103h112q11 0 19.5 -8t8.5 -20t-8.5 -20t-19.5 -8h-112v-415q0 -13 -8.5 -21.5t-21.5 -8.5t-21.5 8.5t-8.5 21.5v415h-73q-12 0 -20 8.5t-8 19.5q0 13 8 20.5t20 7.5h73v103q0 63 36.5 97.5t97.5 34.5q28 0 52 -8.5t24 -27.5
q0 -12 -8 -20t-18 -8q-9 0 -22 5q-22 6 -35 6q-32 0 -49.5 -21z" />
    <glyph glyph-name="g" unicode="g" horiz-adv-x="620" 
d="M532.5 502.5q8.5 -8.5 8.5 -22.5v-433q0 -78 -32.5 -133.5t-89 -84.5t-129.5 -29q-35 0 -73.5 9t-66 23t-31.5 29q-7 7 -7 16q0 10 9 16q4 3 10 3t23 -7l21 -9q62 -24 116 -24q89 0 139.5 50.5t50.5 136.5v62q-25 -54 -79 -84.5t-113 -30.5q-69 0 -124.5 34.5t-87.5 95.5
t-32 137q0 75 32 136t87.5 95.5t123.5 34.5q63 0 115.5 -31.5t77.5 -75.5v64q0 13 8.5 22t21.5 9t21.5 -8.5zM392.5 72.5q43.5 26.5 68 75t24.5 109.5t-24.5 109t-68 74.5t-98.5 26.5q-54 0 -97.5 -27.5t-68 -75.5t-24.5 -107q0 -60 24.5 -108t68 -75.5t97.5 -27.5
q55 0 98.5 26.5z" />
    <glyph glyph-name="gbreve" unicode="&#x11f;" horiz-adv-x="620" 
d="M532.5 502.5q8.5 -8.5 8.5 -22.5v-433q0 -78 -32.5 -133.5t-89 -84.5t-129.5 -29q-35 0 -73.5 9t-66 23t-31.5 29q-7 7 -7 16q0 10 9 16q4 3 10 3t23 -7l21 -9q62 -24 116 -24q89 0 139.5 50.5t50.5 136.5v62q-25 -54 -79 -84.5t-113 -30.5q-69 0 -124.5 34.5t-87.5 95.5
t-32 137q0 75 32 136t87.5 95.5t123.5 34.5q63 0 115.5 -31.5t77.5 -75.5v64q0 13 8.5 22t21.5 9t21.5 -8.5zM392.5 72.5q43.5 26.5 68 75t24.5 109.5t-24.5 109t-68 74.5t-98.5 26.5q-54 0 -97.5 -27.5t-68 -75.5t-24.5 -107q0 -60 24.5 -108t68 -75.5t97.5 -27.5
q55 0 98.5 26.5zM214.5 608.5q-37.5 35.5 -42.5 84.5q-2 11 4.5 19.5t17.5 8.5q12 0 19 -6t12 -18q6 -35 27 -55t51 -20q29 0 50 20t28 55q10 24 30 24q11 0 17.5 -8t4.5 -19q-5 -50 -42 -85.5t-88 -35.5t-88.5 35.5z" />
    <glyph glyph-name="gcaron" unicode="&#x1e7;" horiz-adv-x="620" 
d="M532.5 502.5q8.5 -8.5 8.5 -22.5v-433q0 -78 -32.5 -133.5t-89 -84.5t-129.5 -29q-35 0 -73.5 9t-66 23t-31.5 29q-7 7 -7 16q0 10 9 16q4 3 10 3t23 -7l21 -9q62 -24 116 -24q89 0 139.5 50.5t50.5 136.5v62q-25 -54 -79 -84.5t-113 -30.5q-69 0 -124.5 34.5t-87.5 95.5
t-32 137q0 75 32 136t87.5 95.5t123.5 34.5q63 0 115.5 -31.5t77.5 -75.5v64q0 13 8.5 22t21.5 9t21.5 -8.5zM392.5 72.5q43.5 26.5 68 75t24.5 109.5t-24.5 109t-68 74.5t-98.5 26.5q-54 0 -97.5 -27.5t-68 -75.5t-24.5 -107q0 -60 24.5 -108t68 -75.5t97.5 -27.5
q55 0 98.5 26.5zM425.5 692q5.5 -5 5.5 -11q0 -7 -9 -18l-72 -78q-11 -16 -33 -16h-16q-22 0 -34 16l-71 78q-8 8 -8 17q0 6 5 11t14 5q10 0 26 -13l78 -63l74 63q16 14 28 14q7 0 12.5 -5z" />
    <glyph glyph-name="gcircumflex" unicode="&#x11d;" horiz-adv-x="620" 
d="M532.5 502.5q8.5 -8.5 8.5 -22.5v-433q0 -78 -32.5 -133.5t-89 -84.5t-129.5 -29q-35 0 -73.5 9t-66 23t-31.5 29q-7 7 -7 16q0 10 9 16q4 3 10 3t23 -7l21 -9q62 -24 116 -24q89 0 139.5 50.5t50.5 136.5v62q-25 -54 -79 -84.5t-113 -30.5q-69 0 -124.5 34.5t-87.5 95.5
t-32 137q0 75 32 136t87.5 95.5t123.5 34.5q63 0 115.5 -31.5t77.5 -75.5v64q0 13 8.5 22t21.5 9t21.5 -8.5zM392.5 72.5q43.5 26.5 68 75t24.5 109.5t-24.5 109t-68 74.5t-98.5 26.5q-54 0 -97.5 -27.5t-68 -75.5t-24.5 -107q0 -60 24.5 -108t68 -75.5t97.5 -27.5
q55 0 98.5 26.5zM432 591q0 -5 -5 -10t-11 -5q-8 0 -13 3t-14 11l-79 63l-76 -64q-2 -1 -7.5 -5.5t-9.5 -6.5t-9 -2q-7 0 -12 5t-5 11q0 8 8 16l73 80q11 17 33 17h16q12 0 19 -3.5t13 -13.5l72 -79q7 -8 7 -17z" />
    <glyph glyph-name="gcommaaccent" unicode="&#x123;" horiz-adv-x="620" 
d="M270.5 596.5q-16.5 16.5 -16.5 45.5q0 28 14.5 56.5t36.5 47t43 18.5q11 0 18.5 -5.5t7.5 -16.5q0 -10 -5 -14t-15.5 -7t-15.5 -6q-14 -7 -21.5 -20.5t-7.5 -29.5q0 -11 6 -18t16 -7q17 0 27 9q12 -10 12 -24q0 -18 -18 -31.5t-39 -13.5q-26 0 -42.5 16.5zM532.5 502.5
q8.5 -8.5 8.5 -22.5v-433q0 -78 -32.5 -133.5t-89 -84.5t-129.5 -29q-35 0 -73.5 9t-66 23t-31.5 29q-7 7 -7 16q0 10 9 16q4 3 10 3t23 -7l21 -9q62 -24 116 -24q89 0 139.5 50.5t50.5 136.5v62q-25 -54 -79 -84.5t-113 -30.5q-69 0 -124.5 34.5t-87.5 95.5t-32 137
q0 75 32 136t87.5 95.5t123.5 34.5q63 0 115.5 -31.5t77.5 -75.5v64q0 13 8.5 22t21.5 9t21.5 -8.5zM392.5 72.5q43.5 26.5 68 75t24.5 109.5t-24.5 109t-68 74.5t-98.5 26.5q-54 0 -97.5 -27.5t-68 -75.5t-24.5 -107q0 -60 24.5 -108t68 -75.5t97.5 -27.5q55 0 98.5 26.5z
" />
    <glyph glyph-name="gdotaccent" unicode="&#x121;" horiz-adv-x="620" 
d="M532.5 502.5q8.5 -8.5 8.5 -22.5v-433q0 -78 -32.5 -133.5t-89 -84.5t-129.5 -29q-35 0 -73.5 9t-66 23t-31.5 29q-7 7 -7 16q0 10 9 16q4 3 10 3t23 -7l21 -9q62 -24 116 -24q89 0 139.5 50.5t50.5 136.5v62q-25 -54 -79 -84.5t-113 -30.5q-69 0 -124.5 34.5t-87.5 95.5
t-32 137q0 75 32 136t87.5 95.5t123.5 34.5q63 0 115.5 -31.5t77.5 -75.5v64q0 13 8.5 22t21.5 9t21.5 -8.5zM392.5 72.5q43.5 26.5 68 75t24.5 109.5t-24.5 109t-68 74.5t-98.5 26.5q-54 0 -97.5 -27.5t-68 -75.5t-24.5 -107q0 -60 24.5 -108t68 -75.5t97.5 -27.5
q55 0 98.5 26.5zM279 596.5q-11 9.5 -11 27.5v10q0 18 11.5 27.5t31.5 9.5q40 0 40 -37v-10q0 -18 -10.5 -27.5t-30.5 -9.5t-31 9.5z" />
    <glyph glyph-name="uni1E21" unicode="&#x1e21;" horiz-adv-x="620" 
d="M532.5 502.5q8.5 -8.5 8.5 -22.5v-433q0 -78 -32.5 -133.5t-89 -84.5t-129.5 -29q-35 0 -73.5 9t-66 23t-31.5 29q-7 7 -7 16q0 10 9 16q4 3 10 3t23 -7l21 -9q62 -24 116 -24q89 0 139.5 50.5t50.5 136.5v62q-25 -54 -79 -84.5t-113 -30.5q-69 0 -124.5 34.5t-87.5 95.5
t-32 137q0 75 32 136t87.5 95.5t123.5 34.5q63 0 115.5 -31.5t77.5 -75.5v64q0 13 8.5 22t21.5 9t21.5 -8.5zM392.5 72.5q43.5 26.5 68 75t24.5 109.5t-24.5 109t-68 74.5t-98.5 26.5q-54 0 -97.5 -27.5t-68 -75.5t-24.5 -107q0 -60 24.5 -108t68 -75.5t97.5 -27.5
q55 0 98.5 26.5zM160 630q0 13 7.5 20t20.5 7h240q13 0 20.5 -7t7.5 -20q0 -26 -28 -26h-240q-28 0 -28 26z" />
    <glyph glyph-name="h" unicode="h" horiz-adv-x="568" 
d="M446 458.5q44 -56.5 44 -145.5v-283q0 -13 -8.5 -21.5t-21.5 -8.5t-21.5 8.5t-8.5 21.5v283q0 65 -31 105.5t-97 40.5q-42 0 -79.5 -20t-60.5 -53.5t-23 -72.5v-283q0 -13 -8.5 -21.5t-21.5 -8.5t-21.5 8.5t-8.5 21.5v680q0 13 8.5 21.5t21.5 8.5t21.5 -8.5t8.5 -21.5
v-293q27 43 75 70.5t98 27.5q90 0 134 -56.5z" />
    <glyph glyph-name="hbar" unicode="&#x127;" horiz-adv-x="568" 
d="M446 458.5q44 -56.5 44 -145.5v-283q0 -13 -8.5 -21.5t-21.5 -8.5t-21.5 8.5t-8.5 21.5v283q0 65 -31 105.5t-97 40.5q-42 0 -79.5 -20t-60.5 -53.5t-23 -72.5v-283q0 -13 -8.5 -21.5t-21.5 -8.5t-21.5 8.5t-8.5 21.5v533h-37q-14 0 -22 8t-8 21q0 12 8.5 19.5t21.5 7.5
h37v91q0 13 8.5 21.5t21.5 8.5t21.5 -8.5t8.5 -21.5v-91h67q14 0 22 -7.5t8 -20.5t-8 -20.5t-22 -7.5h-67v-146q27 43 75 70.5t98 27.5q90 0 134 -56.5z" />
    <glyph glyph-name="uni1E2B" unicode="&#x1e2b;" horiz-adv-x="568" 
d="M446 458.5q44 -56.5 44 -145.5v-283q0 -13 -8.5 -21.5t-21.5 -8.5t-21.5 8.5t-8.5 21.5v283q0 65 -31 105.5t-97 40.5q-42 0 -79.5 -20t-60.5 -53.5t-23 -72.5v-283q0 -13 -8.5 -21.5t-21.5 -8.5t-21.5 8.5t-8.5 21.5v680q0 13 8.5 21.5t21.5 8.5t21.5 -8.5t8.5 -21.5
v-293q27 43 75 70.5t98 27.5q90 0 134 -56.5zM191.5 -125.5q-37.5 35.5 -42.5 84.5q-2 11 4.5 19.5t17.5 8.5q12 0 19 -6t12 -18q6 -35 27 -55t51 -20q29 0 50 20t28 55q10 24 30 24q11 0 17.5 -8t4.5 -19q-5 -50 -42 -85.5t-88 -35.5t-88.5 35.5z" />
    <glyph glyph-name="hcircumflex" unicode="&#x125;" horiz-adv-x="568" 
d="M446 458.5q44 -56.5 44 -145.5v-283q0 -13 -8.5 -21.5t-21.5 -8.5t-21.5 8.5t-8.5 21.5v283q0 65 -31 105.5t-97 40.5q-42 0 -79.5 -20t-60.5 -53.5t-23 -72.5v-283q0 -13 -8.5 -21.5t-21.5 -8.5t-21.5 8.5t-8.5 21.5v680q0 13 8.5 21.5t21.5 8.5t21.5 -8.5t8.5 -21.5
v-293q27 43 75 70.5t98 27.5q90 0 134 -56.5zM231 787q0 -5 -5 -10t-11 -5q-11 0 -27 13l-83 60l-77 -61q-18 -13 -27 -13q-7 0 -12 4.5t-5 10.5q0 8 8 17l77 82q8 9 15 13t18 4h11q11 0 18 -4t16 -13l76 -81q8 -9 8 -17z" />
    <glyph glyph-name="uni1E25" unicode="&#x1e25;" horiz-adv-x="568" 
d="M446 458.5q44 -56.5 44 -145.5v-283q0 -13 -8.5 -21.5t-21.5 -8.5t-21.5 8.5t-8.5 21.5v283q0 65 -31 105.5t-97 40.5q-42 0 -79.5 -20t-60.5 -53.5t-23 -72.5v-283q0 -13 -8.5 -21.5t-21.5 -8.5t-21.5 8.5t-8.5 21.5v680q0 13 8.5 21.5t21.5 8.5t21.5 -8.5t8.5 -21.5
v-293q27 43 75 70.5t98 27.5q90 0 134 -56.5zM253 -127.5q-11 9.5 -11 26.5v11q0 18 11.5 27.5t30.5 9.5q41 0 41 -37v-11q0 -36 -41 -36q-20 0 -31 9.5z" />
    <glyph glyph-name="i" unicode="i" horiz-adv-x="214" 
d="M128.5 8.5q-8.5 -8.5 -21.5 -8.5t-21.5 8.5t-8.5 21.5v460q0 13 8.5 21.5t21.5 8.5t21.5 -8.5t8.5 -21.5v-460q0 -13 -8.5 -21.5zM76 596.5q-11 9.5 -11 27.5v10q0 18 11.5 27.5t31.5 9.5q40 0 40 -37v-10q0 -18 -10.5 -27.5t-30.5 -9.5t-31 9.5z" />
    <glyph glyph-name="dotlessi" unicode="&#x131;" horiz-adv-x="214" 
d="M128.5 8.5q-8.5 -8.5 -21.5 -8.5t-21.5 8.5t-8.5 21.5v460q0 13 8.5 21.5t21.5 8.5t21.5 -8.5t8.5 -21.5v-460q0 -13 -8.5 -21.5z" />
    <glyph glyph-name="iacute" unicode="&#xed;" horiz-adv-x="214" 
d="M128.5 8.5q-8.5 -8.5 -21.5 -8.5t-21.5 8.5t-8.5 21.5v460q0 13 8.5 21.5t21.5 8.5t21.5 -8.5t8.5 -21.5v-460q0 -13 -8.5 -21.5zM83 556.5q-5 5.5 -5 12.5q0 6 5 14l61 95q12 22 34 22q15 0 24 -8t8 -23q0 -11 -10 -23l-75 -79q-16 -16 -31 -16q-6 0 -11 5.5z" />
    <glyph glyph-name="ibreve" unicode="&#x12d;" horiz-adv-x="214" 
d="M128.5 8.5q-8.5 -8.5 -21.5 -8.5t-21.5 8.5t-8.5 21.5v460q0 13 8.5 21.5t21.5 8.5t21.5 -8.5t8.5 -21.5v-460q0 -13 -8.5 -21.5zM11.5 608.5q-37.5 35.5 -42.5 84.5q-2 11 4.5 19.5t17.5 8.5q12 0 19 -6t12 -18q6 -35 27 -55t51 -20q29 0 50 20t28 55q10 24 30 24
q11 0 17.5 -8t4.5 -19q-5 -50 -42 -85.5t-88 -35.5t-88.5 35.5z" />
    <glyph glyph-name="uni01D0" unicode="&#x1d0;" horiz-adv-x="214" 
d="M128.5 8.5q-8.5 -8.5 -21.5 -8.5t-21.5 8.5t-8.5 21.5v460q0 13 8.5 21.5t21.5 8.5t21.5 -8.5t8.5 -21.5v-460q0 -13 -8.5 -21.5zM222.5 692q5.5 -5 5.5 -11q0 -7 -9 -18l-72 -78q-11 -16 -33 -16h-16q-22 0 -34 16l-71 78q-8 8 -8 17q0 6 5 11t14 5q10 0 26 -13l78 -63
l74 63q16 14 28 14q7 0 12.5 -5z" />
    <glyph glyph-name="icircumflex" unicode="&#xee;" horiz-adv-x="214" 
d="M128.5 8.5q-8.5 -8.5 -21.5 -8.5t-21.5 8.5t-8.5 21.5v460q0 13 8.5 21.5t21.5 8.5t21.5 -8.5t8.5 -21.5v-460q0 -13 -8.5 -21.5zM229 591q0 -5 -5 -10t-11 -5q-8 0 -13 3t-14 11l-79 63l-76 -64q-2 -1 -7.5 -5.5t-9.5 -6.5t-9 -2q-7 0 -12 5t-5 11q0 8 8 16l73 80
q11 17 33 17h16q12 0 19 -3.5t13 -13.5l72 -79q7 -8 7 -17z" />
    <glyph glyph-name="uni0209" unicode="&#x209;" horiz-adv-x="214" 
d="M128.5 8.5q-8.5 -8.5 -21.5 -8.5t-21.5 8.5t-8.5 21.5v460q0 13 8.5 21.5t21.5 8.5t21.5 -8.5t8.5 -21.5v-460q0 -13 -8.5 -21.5zM32 607l-78 73q-15 12 -15 26t8.5 21.5t21.5 7.5q17 0 32 -17l68 -89q7 -8 7 -16t-5 -13t-14 -5q-11 0 -25 12zM175 607l-79 73
q-14 11 -14 26q0 14 8.5 21.5t21.5 7.5q18 0 31 -17l68 -89q8 -10 8 -16q0 -8 -5.5 -13t-13.5 -5q-11 0 -25 12z" />
    <glyph glyph-name="idieresis" unicode="&#xef;" horiz-adv-x="214" 
d="M128.5 8.5q-8.5 -8.5 -21.5 -8.5t-21.5 8.5t-8.5 21.5v460q0 13 8.5 21.5t21.5 8.5t21.5 -8.5t8.5 -21.5v-460q0 -13 -8.5 -21.5zM-18 601.5q-11 10.5 -11 29.5v10q0 19 11 29.5t30 10.5t30 -10.5t11 -29.5v-10q0 -19 -10.5 -29.5t-30.5 -10.5q-19 0 -30 10.5zM154 601.5
q-11 10.5 -11 29.5v10q0 19 11 29.5t31 10.5q19 0 29.5 -10.5t10.5 -29.5v-10q0 -19 -10.5 -29.5t-30.5 -10.5q-19 0 -30 10.5z" />
    <glyph glyph-name="uni1E2F" unicode="&#x1e2f;" horiz-adv-x="214" 
d="M128.5 8.5q-8.5 -8.5 -21.5 -8.5t-21.5 8.5t-8.5 21.5v460q0 13 8.5 21.5t21.5 8.5t21.5 -8.5t8.5 -21.5v-460q0 -13 -8.5 -21.5zM-18 601.5q-11 10.5 -11 29.5v10q0 19 11 29.5t30 10.5t30 -10.5t11 -29.5v-10q0 -19 -10.5 -29.5t-30.5 -10.5q-19 0 -30 10.5zM154 601.5
q-11 10.5 -11 29.5v10q0 19 11 29.5t31 10.5q19 0 29.5 -10.5t10.5 -29.5v-10q0 -19 -10.5 -29.5t-30.5 -10.5q-19 0 -30 10.5zM83 699.5q-5 5.5 -5 12.5q0 6 5 14l61 95q12 22 34 22q15 0 24 -8t8 -23q0 -11 -10 -23l-75 -79q-16 -16 -31 -16q-6 0 -11 5.5z" />
    <glyph glyph-name="i.loclTRK" horiz-adv-x="214" 
d="M128.5 8.5q-8.5 -8.5 -21.5 -8.5t-21.5 8.5t-8.5 21.5v460q0 13 8.5 21.5t21.5 8.5t21.5 -8.5t8.5 -21.5v-460q0 -13 -8.5 -21.5zM76 596.5q-11 9.5 -11 27.5v10q0 18 11.5 27.5t31.5 9.5q40 0 40 -37v-10q0 -18 -10.5 -27.5t-30.5 -9.5t-31 9.5z" />
    <glyph glyph-name="uni1ECB" unicode="&#x1ecb;" horiz-adv-x="214" 
d="M128.5 8.5q-8.5 -8.5 -21.5 -8.5t-21.5 8.5t-8.5 21.5v460q0 13 8.5 21.5t21.5 8.5t21.5 -8.5t8.5 -21.5v-460q0 -13 -8.5 -21.5zM76 596.5q-11 9.5 -11 27.5v10q0 18 11.5 27.5t31.5 9.5q40 0 40 -37v-10q0 -18 -10.5 -27.5t-30.5 -9.5t-31 9.5zM78 -127.5
q-11 9.5 -11 26.5v11q0 18 11.5 27.5t30.5 9.5q41 0 41 -37v-11q0 -36 -41 -36q-20 0 -31 9.5z" />
    <glyph glyph-name="igrave" unicode="&#xec;" horiz-adv-x="214" 
d="M128.5 8.5q-8.5 -8.5 -21.5 -8.5t-21.5 8.5t-8.5 21.5v460q0 13 8.5 21.5t21.5 8.5t21.5 -8.5t8.5 -21.5v-460q0 -13 -8.5 -21.5zM84 570l-79 73q-14 11 -14 26q0 14 8.5 21.5t21.5 7.5q18 0 31 -17l68 -89q8 -10 8 -16q0 -8 -5.5 -13t-13.5 -5q-11 0 -25 12z" />
    <glyph glyph-name="uni1EC9" unicode="&#x1ec9;" horiz-adv-x="214" 
d="M128.5 8.5q-8.5 -8.5 -21.5 -8.5t-21.5 8.5t-8.5 21.5v460q0 13 8.5 21.5t21.5 8.5t21.5 -8.5t8.5 -21.5v-460q0 -13 -8.5 -21.5zM105 737q42 0 61.5 -23t19.5 -51q0 -16 -8 -29t-25 -31q-12 -13 -13 -27q-1 -8 -7 -13t-14 -5q-9 0 -15 5.5t-6 13.5q0 24 15 40
q4 4 12.5 13.5t12.5 17t4 14.5q0 13 -11 21.5t-26 8.5q-21 0 -45 -18q-10 -8 -18 -8t-16 8q-5 7 -5 14q0 9 9 18q34 31 75 31z" />
    <glyph glyph-name="uni020B" unicode="&#x20b;" horiz-adv-x="214" 
d="M128.5 8.5q-8.5 -8.5 -21.5 -8.5t-21.5 8.5t-8.5 21.5v460q0 13 8.5 21.5t21.5 8.5t21.5 -8.5t8.5 -21.5v-460q0 -13 -8.5 -21.5zM203 685.5q37 -35.5 42 -85.5q2 -11 -4.5 -19t-17.5 -8q-22 0 -30 24q-7 35 -28 54.5t-50 19.5t-50 -20t-28 -54q-5 -12 -12 -18t-19 -6
q-11 0 -17.5 7.5t-4.5 18.5q5 50 42 86t89 36q51 0 88 -35.5z" />
    <glyph glyph-name="ij" unicode="&#x133;" horiz-adv-x="485" 
d="M128.5 8.5q-8.5 -8.5 -21.5 -8.5t-21.5 8.5t-8.5 21.5v460q0 13 8.5 21.5t21.5 8.5t21.5 -8.5t8.5 -21.5v-460q0 -13 -8.5 -21.5zM76 596.5q-11 9.5 -11 27.5v10q0 18 11.5 27.5t31.5 9.5q40 0 40 -37v-10q0 -18 -10.5 -27.5t-30.5 -9.5t-31 9.5zM194 -190q-8 8 -8 20v4
q0 11 7 18.5t19 9.5q37 7 61.5 32.5t24.5 68.5v516q0 13 8.5 21.5t21.5 8.5t21.5 -8.5t8.5 -21.5v-525q0 -46 -21.5 -80.5t-55 -53t-67.5 -18.5q-12 0 -20 8zM297 597.5q-11 9.5 -11 27.5v10q0 18 11.5 27.5t31.5 9.5q40 0 40 -37v-10q0 -18 -10.5 -27.5t-30.5 -9.5t-31 9.5
z" />
    <glyph glyph-name="imacron" unicode="&#x12b;" horiz-adv-x="214" 
d="M128.5 8.5q-8.5 -8.5 -21.5 -8.5t-21.5 8.5t-8.5 21.5v460q0 13 8.5 21.5t21.5 8.5t21.5 -8.5t8.5 -21.5v-460q0 -13 -8.5 -21.5zM-43 630q0 13 7.5 20t20.5 7h240q13 0 20.5 -7t7.5 -20q0 -26 -28 -26h-240q-28 0 -28 26z" />
    <glyph glyph-name="iogonek" unicode="&#x12f;" horiz-adv-x="214" 
d="M76 596.5q-11 9.5 -11 27.5v10q0 18 11.5 27.5t31.5 9.5q40 0 40 -37v-10q0 -18 -10.5 -27.5t-30.5 -9.5t-31 9.5zM158 -119q6 -6 6 -16q0 -22 -24.5 -39t-58.5 -17q-39 0 -67.5 26.5t-28.5 69.5q0 79 92 113v472q0 13 8.5 21.5t21.5 8.5t21.5 -8.5t8.5 -21.5v-453
q0 -17 -11 -27.5t-34 -24.5q-27 -15 -40.5 -29t-13.5 -39q0 -26 14.5 -41.5t34.5 -15.5q10 0 16.5 1.5t9.5 7.5q15 18 29 18q10 0 16 -6z" />
    <glyph glyph-name="itilde" unicode="&#x129;" horiz-adv-x="214" 
d="M128.5 8.5q-8.5 -8.5 -21.5 -8.5t-21.5 8.5t-8.5 21.5v460q0 13 8.5 21.5t21.5 8.5t21.5 -8.5t8.5 -21.5v-460q0 -13 -8.5 -21.5zM-46 608l2 16q7 32 31.5 50t58.5 18q17 0 36 -8.5t43 -24.5q21 -13 33 -19t23 -6q29 0 32 38q-1 11 5.5 18t17.5 7q26 0 26 -30
q0 -8 -1 -12q-6 -33 -28.5 -52t-58.5 -19q-15 0 -32 7.5t-41 22.5q-24 14 -37.5 20t-24.5 6q-30 0 -38 -37q0 -11 -6.5 -16.5t-16.5 -5.5q-24 0 -24 27z" />
    <glyph glyph-name="j" unicode="j" horiz-adv-x="241" 
d="M-12 -190q-8 8 -8 20v4q0 11 7 18.5t19 9.5q37 7 61.5 32.5t24.5 68.5v516q0 13 8.5 21.5t21.5 8.5t21.5 -8.5t8.5 -21.5v-525q0 -46 -21.5 -80.5t-55 -53t-67.5 -18.5q-12 0 -20 8zM91 597.5q-11 9.5 -11 27.5v10q0 18 11.5 27.5t31.5 9.5q40 0 40 -37v-10
q0 -18 -10.5 -27.5t-30.5 -9.5t-31 9.5z" />
    <glyph glyph-name="uni0237" unicode="&#x237;" horiz-adv-x="241" 
d="M-12 -190q-8 8 -8 20v4q0 11 7 18.5t19 9.5q37 7 61.5 32.5t24.5 68.5v516q0 13 8.5 21.5t21.5 8.5t21.5 -8.5t8.5 -21.5v-525q0 -46 -21.5 -80.5t-55 -53t-67.5 -18.5q-12 0 -20 8z" />
    <glyph glyph-name="jcircumflex" unicode="&#x135;" horiz-adv-x="241" 
d="M-12 -190q-8 8 -8 20v4q0 11 7 18.5t19 9.5q37 7 61.5 32.5t24.5 68.5v516q0 13 8.5 21.5t21.5 8.5t21.5 -8.5t8.5 -21.5v-525q0 -46 -21.5 -80.5t-55 -53t-67.5 -18.5q-12 0 -20 8zM244 592q0 -5 -5 -10t-11 -5q-8 0 -13 3t-14 11l-79 63l-76 -64q-2 -1 -7.5 -5.5
t-9.5 -6.5t-9 -2q-7 0 -12 5t-5 11q0 8 8 16l73 80q11 17 33 17h16q12 0 19 -3.5t13 -13.5l72 -79q7 -8 7 -17z" />
    <glyph glyph-name="k" unicode="k" horiz-adv-x="535" 
d="M493 30q0 -13 -10.5 -21.5t-19.5 -8.5q-13 0 -22 11l-221 234l-75 -64v-151q0 -13 -8.5 -21.5t-21.5 -8.5t-21.5 8.5t-8.5 21.5v680q0 13 8.5 21.5t21.5 8.5t21.5 -8.5t8.5 -21.5v-456l289 249q9 10 21 10q11 0 20 -9.5t9 -20.5q0 -12 -11 -23l-206 -175l217 -232
q9 -10 9 -23z" />
    <glyph glyph-name="kcommaaccent" unicode="&#x137;" horiz-adv-x="535" 
d="M493 30q0 -13 -10.5 -21.5t-19.5 -8.5q-13 0 -22 11l-221 234l-75 -64v-151q0 -13 -8.5 -21.5t-21.5 -8.5t-21.5 8.5t-8.5 21.5v680q0 13 8.5 21.5t21.5 8.5t21.5 -8.5t8.5 -21.5v-456l289 249q9 10 21 10q11 0 20 -9.5t9 -20.5q0 -12 -11 -23l-206 -175l217 -232
q9 -10 9 -23zM305.5 -150.5q-14.5 -28.5 -36.5 -47t-43 -18.5q-11 0 -18.5 5.5t-7.5 16.5q0 10 5 14t15.5 7t15.5 6q14 7 21.5 20.5t7.5 29.5q0 11 -6 18t-16 7q-17 0 -27 -9q-12 10 -12 24q0 18 18 31.5t39 13.5q26 0 42.5 -16.5t16.5 -45.5q0 -28 -14.5 -56.5z" />
    <glyph glyph-name="kgreenlandic" unicode="&#x138;" horiz-adv-x="535" 
d="M493 30q0 -13 -10.5 -21.5t-19.5 -8.5q-13 0 -22 11l-221 234l-75 -64v-151q0 -13 -8.5 -21.5t-21.5 -8.5t-21.5 8.5t-8.5 21.5v448q0 13 8.5 21.5t21.5 8.5t21.5 -8.5t8.5 -21.5v-224l289 249q9 10 21 10q11 0 20 -9.5t9 -20.5q0 -12 -11 -23l-206 -175l217 -232
q9 -10 9 -23z" />
    <glyph glyph-name="l" unicode="l" horiz-adv-x="230" 
d="M136.5 8.5q-8.5 -8.5 -21.5 -8.5t-21.5 8.5t-8.5 21.5v680q0 13 8.5 21.5t21.5 8.5t21.5 -8.5t8.5 -21.5v-680q0 -13 -8.5 -21.5z" />
    <glyph glyph-name="lacute" unicode="&#x13a;" horiz-adv-x="230" 
d="M136.5 8.5q-8.5 -8.5 -21.5 -8.5t-21.5 8.5t-8.5 21.5v680q0 13 8.5 21.5t21.5 8.5t21.5 -8.5t8.5 -21.5v-680q0 -13 -8.5 -21.5zM104 791q-5 5 -5 13t10 18l89 69q13 11 29 11q13 0 21.5 -8.5t8.5 -21.5q0 -20 -19 -31l-98 -49q-14 -6 -22 -6q-9 0 -14 5z" />
    <glyph glyph-name="lcaron" unicode="&#x13e;" horiz-adv-x="306" 
d="M132.5 8.5q-8.5 -8.5 -21.5 -8.5t-21.5 8.5t-8.5 21.5v680q0 13 8.5 21.5t21.5 8.5t21.5 -8.5t8.5 -21.5v-680q0 -13 -8.5 -21.5zM305.5 550.5q-14.5 -28.5 -36.5 -47t-43 -18.5q-11 0 -18.5 5.5t-7.5 16.5q0 10 5 14t15.5 7t15.5 6q14 7 21.5 20.5t7.5 29.5q0 11 -6 18
t-16 7q-17 0 -27 -9q-12 10 -12 24q0 18 18 31.5t39 13.5q26 0 42.5 -16.5t16.5 -45.5q0 -28 -14.5 -56.5z" />
    <glyph glyph-name="lcommaaccent" unicode="&#x13c;" horiz-adv-x="230" 
d="M136.5 8.5q-8.5 -8.5 -21.5 -8.5t-21.5 8.5t-8.5 21.5v680q0 13 8.5 21.5t21.5 8.5t21.5 -8.5t8.5 -21.5v-680q0 -13 -8.5 -21.5zM152.5 -150.5q-14.5 -28.5 -36.5 -47t-43 -18.5q-11 0 -18.5 5.5t-7.5 16.5q0 10 5 14t15.5 7t15.5 6q14 7 21.5 20.5t7.5 29.5q0 11 -6 18
t-16 7q-17 0 -27 -9q-12 10 -12 24q0 18 18 31.5t39 13.5q26 0 42.5 -16.5t16.5 -45.5q0 -28 -14.5 -56.5z" />
    <glyph glyph-name="ldot" unicode="&#x140;" horiz-adv-x="308" 
d="M136.5 8.5q-8.5 -8.5 -21.5 -8.5t-21.5 8.5t-8.5 21.5v680q0 13 8.5 21.5t21.5 8.5t21.5 -8.5t8.5 -21.5v-680q0 -13 -8.5 -21.5zM249.5 322.5q-10.5 10.5 -10.5 27.5v22q0 17 10.5 27.5t27.5 10.5h7q17 0 27.5 -10.5t10.5 -27.5v-22q0 -17 -10.5 -27.5t-27.5 -10.5h-7
q-17 0 -27.5 10.5z" />
    <glyph glyph-name="uni1E37" unicode="&#x1e37;" horiz-adv-x="230" 
d="M136.5 8.5q-8.5 -8.5 -21.5 -8.5t-21.5 8.5t-8.5 21.5v680q0 13 8.5 21.5t21.5 8.5t21.5 -8.5t8.5 -21.5v-680q0 -13 -8.5 -21.5zM84 -127.5q-11 9.5 -11 26.5v11q0 18 11.5 27.5t30.5 9.5q41 0 41 -37v-11q0 -36 -41 -36q-20 0 -31 9.5z" />
    <glyph glyph-name="uni01C9" unicode="&#x1c9;" horiz-adv-x="457" 
d="M136.5 8.5q-8.5 -8.5 -21.5 -8.5t-21.5 8.5t-8.5 21.5v680q0 13 8.5 21.5t21.5 8.5t21.5 -8.5t8.5 -21.5v-680q0 -13 -8.5 -21.5zM204 -190q-8 8 -8 20v4q0 11 7 18.5t19 9.5q37 7 61.5 32.5t24.5 68.5v516q0 13 8.5 21.5t21.5 8.5t21.5 -8.5t8.5 -21.5v-525
q0 -46 -21.5 -80.5t-55 -53t-67.5 -18.5q-12 0 -20 8zM307 597.5q-11 9.5 -11 27.5v10q0 18 11.5 27.5t31.5 9.5q40 0 40 -37v-10q0 -18 -10.5 -27.5t-30.5 -9.5t-31 9.5z" />
    <glyph glyph-name="uni1E3B" unicode="&#x1e3b;" horiz-adv-x="230" 
d="M136.5 8.5q-8.5 -8.5 -21.5 -8.5t-21.5 8.5t-8.5 21.5v680q0 13 8.5 21.5t21.5 8.5t21.5 -8.5t8.5 -21.5v-680q0 -13 -8.5 -21.5zM-34 -100q0 25 28 25h233q13 0 20 -6.5t7 -18.5q0 -25 -27 -25h-233q-28 0 -28 25z" />
    <glyph glyph-name="lslash" unicode="&#x142;" horiz-adv-x="231" 
d="M235.5 465.5q6.5 -7.5 6.5 -17.5q0 -18 -19 -27l-78 -35v-356q0 -13 -8.5 -21.5t-21.5 -8.5t-21.5 8.5t-8.5 21.5v329l-55 -25q-7 -4 -14 -4q-11 0 -18 8t-7 19q0 8 5 14.5t13 9.5l76 35v294q0 13 8.5 21.5t21.5 8.5t21.5 -8.5t8.5 -21.5v-267l56 26q10 4 17 4
q11 0 17.5 -7.5z" />
    <glyph glyph-name="m" unicode="m" horiz-adv-x="912" 
d="M791.5 459.5q42.5 -55.5 42.5 -146.5v-283q0 -13 -8.5 -21.5t-21.5 -8.5t-21.5 8.5t-8.5 21.5v280q0 66 -31.5 107.5t-97.5 41.5q-42 0 -79.5 -20t-60.5 -54.5t-23 -74.5v-280q0 -13 -8.5 -21.5t-21.5 -8.5t-21.5 8.5t-8.5 21.5v283q0 65 -30 105.5t-94 40.5
q-41 0 -77.5 -20t-59 -53.5t-22.5 -72.5v-283q0 -13 -8.5 -21.5t-21.5 -8.5t-21.5 8.5t-8.5 21.5v448q0 13 8.5 21.5t21.5 8.5t21.5 -8.5t8.5 -21.5v-58q27 41 73 68t97 27q58 0 100 -28t60 -82q21 44 77 77t113 33q90 0 132.5 -55.5z" />
    <glyph glyph-name="uni1E43" unicode="&#x1e43;" horiz-adv-x="912" 
d="M791.5 459.5q42.5 -55.5 42.5 -146.5v-283q0 -13 -8.5 -21.5t-21.5 -8.5t-21.5 8.5t-8.5 21.5v280q0 66 -31.5 107.5t-97.5 41.5q-42 0 -79.5 -20t-60.5 -54.5t-23 -74.5v-280q0 -13 -8.5 -21.5t-21.5 -8.5t-21.5 8.5t-8.5 21.5v283q0 65 -30 105.5t-94 40.5
q-41 0 -77.5 -20t-59 -53.5t-22.5 -72.5v-283q0 -13 -8.5 -21.5t-21.5 -8.5t-21.5 8.5t-8.5 21.5v448q0 13 8.5 21.5t21.5 8.5t21.5 -8.5t8.5 -21.5v-58q27 41 73 68t97 27q58 0 100 -28t60 -82q21 44 77 77t113 33q90 0 132.5 -55.5zM426 -127.5q-11 9.5 -11 26.5v11
q0 18 11.5 27.5t30.5 9.5q41 0 41 -37v-11q0 -36 -41 -36q-20 0 -31 9.5z" />
    <glyph glyph-name="n" unicode="n" horiz-adv-x="578" 
d="M456.5 468.5q43.5 -54.5 43.5 -144.5v-294q0 -13 -9 -21.5t-21 -8.5q-13 0 -21.5 8.5t-8.5 21.5v291q0 65 -32.5 105.5t-100.5 40.5q-43 0 -81.5 -20t-62.5 -53.5t-24 -72.5v-291q0 -13 -8.5 -21.5t-21.5 -8.5t-21.5 8.5t-8.5 21.5v448q0 13 8.5 21.5t21.5 8.5t21.5 -8.5
t8.5 -21.5v-55q27 43 77.5 71.5t103.5 28.5q93 0 136.5 -54.5z" />
    <glyph glyph-name="nacute" unicode="&#x144;" horiz-adv-x="578" 
d="M456.5 468.5q43.5 -54.5 43.5 -144.5v-294q0 -13 -9 -21.5t-21 -8.5q-13 0 -21.5 8.5t-8.5 21.5v291q0 65 -32.5 105.5t-100.5 40.5q-43 0 -81.5 -20t-62.5 -53.5t-24 -72.5v-291q0 -13 -8.5 -21.5t-21.5 -8.5t-21.5 8.5t-8.5 21.5v448q0 13 8.5 21.5t21.5 8.5t21.5 -8.5
t8.5 -21.5v-55q27 43 77.5 71.5t103.5 28.5q93 0 136.5 -54.5zM265 556.5q-5 5.5 -5 12.5q0 6 5 14l61 95q12 22 34 22q15 0 24 -8t8 -23q0 -11 -10 -23l-75 -79q-16 -16 -31 -16q-6 0 -11 5.5z" />
    <glyph glyph-name="napostrophe" unicode="&#x149;" horiz-adv-x="607" 
d="M23 700h33q19 -2 19 -18q0 -2 -2 -10l-64 -216q-6 -21 -28 -21q-7 0 -10.5 7t-2.5 19l26 213q3 26 29 26zM485.5 468.5q43.5 -54.5 43.5 -144.5v-294q0 -13 -9 -21.5t-21 -8.5q-13 0 -21.5 8.5t-8.5 21.5v291q0 65 -32.5 105.5t-100.5 40.5q-43 0 -81.5 -20t-62.5 -53.5
t-24 -72.5v-291q0 -13 -8.5 -21.5t-21.5 -8.5t-21.5 8.5t-8.5 21.5v448q0 13 8.5 21.5t21.5 8.5t21.5 -8.5t8.5 -21.5v-55q27 43 77.5 71.5t103.5 28.5q93 0 136.5 -54.5z" />
    <glyph glyph-name="ncaron" unicode="&#x148;" horiz-adv-x="578" 
d="M456.5 468.5q43.5 -54.5 43.5 -144.5v-294q0 -13 -9 -21.5t-21 -8.5q-13 0 -21.5 8.5t-8.5 21.5v291q0 65 -32.5 105.5t-100.5 40.5q-43 0 -81.5 -20t-62.5 -53.5t-24 -72.5v-291q0 -13 -8.5 -21.5t-21.5 -8.5t-21.5 8.5t-8.5 21.5v448q0 13 8.5 21.5t21.5 8.5t21.5 -8.5
t8.5 -21.5v-55q27 43 77.5 71.5t103.5 28.5q93 0 136.5 -54.5zM404.5 692q5.5 -5 5.5 -11q0 -7 -9 -18l-72 -78q-11 -16 -33 -16h-16q-22 0 -34 16l-71 78q-8 8 -8 17q0 6 5 11t14 5q10 0 26 -13l78 -63l74 63q16 14 28 14q7 0 12.5 -5z" />
    <glyph glyph-name="ncommaaccent" unicode="&#x146;" horiz-adv-x="578" 
d="M456.5 468.5q43.5 -54.5 43.5 -144.5v-294q0 -13 -9 -21.5t-21 -8.5q-13 0 -21.5 8.5t-8.5 21.5v291q0 65 -32.5 105.5t-100.5 40.5q-43 0 -81.5 -20t-62.5 -53.5t-24 -72.5v-291q0 -13 -8.5 -21.5t-21.5 -8.5t-21.5 8.5t-8.5 21.5v448q0 13 8.5 21.5t21.5 8.5t21.5 -8.5
t8.5 -21.5v-55q27 43 77.5 71.5t103.5 28.5q93 0 136.5 -54.5zM326.5 -150.5q-14.5 -28.5 -36.5 -47t-43 -18.5q-11 0 -18.5 5.5t-7.5 16.5q0 10 5 14t15.5 7t15.5 6q14 7 21.5 20.5t7.5 29.5q0 11 -6 18t-16 7q-17 0 -27 -9q-12 10 -12 24q0 18 18 31.5t39 13.5
q26 0 42.5 -16.5t16.5 -45.5q0 -28 -14.5 -56.5z" />
    <glyph glyph-name="uni1E45" unicode="&#x1e45;" horiz-adv-x="578" 
d="M456.5 468.5q43.5 -54.5 43.5 -144.5v-294q0 -13 -9 -21.5t-21 -8.5q-13 0 -21.5 8.5t-8.5 21.5v291q0 65 -32.5 105.5t-100.5 40.5q-43 0 -81.5 -20t-62.5 -53.5t-24 -72.5v-291q0 -13 -8.5 -21.5t-21.5 -8.5t-21.5 8.5t-8.5 21.5v448q0 13 8.5 21.5t21.5 8.5t21.5 -8.5
t8.5 -21.5v-55q27 43 77.5 71.5t103.5 28.5q93 0 136.5 -54.5zM258 596.5q-11 9.5 -11 27.5v10q0 18 11.5 27.5t31.5 9.5q40 0 40 -37v-10q0 -18 -10.5 -27.5t-30.5 -9.5t-31 9.5z" />
    <glyph glyph-name="uni1E47" unicode="&#x1e47;" horiz-adv-x="578" 
d="M456.5 468.5q43.5 -54.5 43.5 -144.5v-294q0 -13 -9 -21.5t-21 -8.5q-13 0 -21.5 8.5t-8.5 21.5v291q0 65 -32.5 105.5t-100.5 40.5q-43 0 -81.5 -20t-62.5 -53.5t-24 -72.5v-291q0 -13 -8.5 -21.5t-21.5 -8.5t-21.5 8.5t-8.5 21.5v448q0 13 8.5 21.5t21.5 8.5t21.5 -8.5
t8.5 -21.5v-55q27 43 77.5 71.5t103.5 28.5q93 0 136.5 -54.5zM258 -127.5q-11 9.5 -11 26.5v11q0 18 11.5 27.5t30.5 9.5q41 0 41 -37v-11q0 -36 -41 -36q-20 0 -31 9.5z" />
    <glyph glyph-name="eng" unicode="&#x14b;" horiz-adv-x="578" 
d="M456.5 468.5q43.5 -54.5 43.5 -144.5v-361q0 -75 -43.5 -119t-134.5 -44q-14 0 -23.5 7.5t-9.5 20.5t8.5 21t22.5 8q68 1 94 27.5t26 77.5v359q0 65 -32.5 105.5t-100.5 40.5q-43 0 -81.5 -20t-62.5 -53.5t-24 -72.5v-291q0 -13 -8.5 -21.5t-21.5 -8.5t-21.5 8.5
t-8.5 21.5v448q0 13 8.5 21.5t21.5 8.5t21.5 -8.5t8.5 -21.5v-55q27 43 77.5 71.5t103.5 28.5q93 0 136.5 -54.5z" />
    <glyph glyph-name="uni0272" unicode="&#x272;" horiz-adv-x="579" 
d="M456.5 468.5q43.5 -54.5 43.5 -144.5v-294q0 -13 -9 -21.5t-21 -8.5q-13 0 -21.5 8.5t-8.5 21.5v291q0 65 -32.5 105.5t-100.5 40.5q-43 0 -81.5 -20t-62.5 -53.5t-24 -72.5v-367q0 -62 -28.5 -96t-62 -45t-55.5 -11q-11 0 -19 8.5t-8 19.5q0 14 6.5 21.5t20.5 10.5
q37 7 61.5 32.5t24.5 68.5v515q0 13 8.5 21.5t21.5 8.5t21.5 -8.5t8.5 -21.5v-55q27 43 77.5 71.5t103.5 28.5q93 0 136.5 -54.5z" />
    <glyph glyph-name="uni01CC" unicode="&#x1cc;" horiz-adv-x="819" 
d="M456.5 468.5q43.5 -54.5 43.5 -144.5v-294q0 -13 -9 -21.5t-21 -8.5q-13 0 -21.5 8.5t-8.5 21.5v291q0 65 -32.5 105.5t-100.5 40.5q-43 0 -81.5 -20t-62.5 -53.5t-24 -72.5v-291q0 -13 -8.5 -21.5t-21.5 -8.5t-21.5 8.5t-8.5 21.5v448q0 13 8.5 21.5t21.5 8.5t21.5 -8.5
t8.5 -21.5v-55q27 43 77.5 71.5t103.5 28.5q93 0 136.5 -54.5zM566 -190q-8 8 -8 20v4q0 11 7 18.5t19 9.5q37 7 61.5 32.5t24.5 68.5v516q0 13 8.5 21.5t21.5 8.5t21.5 -8.5t8.5 -21.5v-525q0 -46 -21.5 -80.5t-55 -53t-67.5 -18.5q-12 0 -20 8zM669 597.5
q-11 9.5 -11 27.5v10q0 18 11.5 27.5t31.5 9.5q40 0 40 -37v-10q0 -18 -10.5 -27.5t-30.5 -9.5t-31 9.5z" />
    <glyph glyph-name="uni1E49" unicode="&#x1e49;" horiz-adv-x="578" 
d="M456.5 468.5q43.5 -54.5 43.5 -144.5v-294q0 -13 -9 -21.5t-21 -8.5q-13 0 -21.5 8.5t-8.5 21.5v291q0 65 -32.5 105.5t-100.5 40.5q-43 0 -81.5 -20t-62.5 -53.5t-24 -72.5v-291q0 -13 -8.5 -21.5t-21.5 -8.5t-21.5 8.5t-8.5 21.5v448q0 13 8.5 21.5t21.5 8.5t21.5 -8.5
t8.5 -21.5v-55q27 43 77.5 71.5t103.5 28.5q93 0 136.5 -54.5zM140 -100q0 25 28 25h233q13 0 20 -6.5t7 -18.5q0 -25 -27 -25h-233q-28 0 -28 25z" />
    <glyph glyph-name="ntilde" unicode="&#xf1;" horiz-adv-x="578" 
d="M456.5 468.5q43.5 -54.5 43.5 -144.5v-294q0 -13 -9 -21.5t-21 -8.5q-13 0 -21.5 8.5t-8.5 21.5v291q0 65 -32.5 105.5t-100.5 40.5q-43 0 -81.5 -20t-62.5 -53.5t-24 -72.5v-291q0 -13 -8.5 -21.5t-21.5 -8.5t-21.5 8.5t-8.5 21.5v448q0 13 8.5 21.5t21.5 8.5t21.5 -8.5
t8.5 -21.5v-55q27 43 77.5 71.5t103.5 28.5q93 0 136.5 -54.5zM136 608l2 16q7 32 31.5 50t58.5 18q17 0 36 -8.5t43 -24.5q21 -13 33 -19t23 -6q29 0 32 38q-1 11 5.5 18t17.5 7q26 0 26 -30q0 -8 -1 -12q-6 -33 -28.5 -52t-58.5 -19q-15 0 -32 7.5t-41 22.5
q-24 14 -37.5 20t-24.5 6q-30 0 -38 -37q0 -11 -6.5 -16.5t-16.5 -5.5q-24 0 -24 27z" />
    <glyph glyph-name="o" unicode="o" horiz-adv-x="595" 
d="M518 120q-33 -61 -91 -95.5t-129 -34.5t-129 34.5t-91 95.5t-33 136t33 136t91 96t129 35t129 -35t91 -96t33 -136t-33 -136zM466 364q-25 48 -69.5 75.5t-98.5 27.5t-98 -27.5t-69.5 -75.5t-25.5 -108q0 -59 25.5 -107t69.5 -75.5t98 -27.5t98.5 27t69.5 75t25 108
t-25 108z" />
    <glyph glyph-name="oacute" unicode="&#xf3;" horiz-adv-x="595" 
d="M518 120q-33 -61 -91 -95.5t-129 -34.5t-129 34.5t-91 95.5t-33 136t33 136t91 96t129 35t129 -35t91 -96t33 -136t-33 -136zM466 364q-25 48 -69.5 75.5t-98.5 27.5t-98 -27.5t-69.5 -75.5t-25.5 -108q0 -59 25.5 -107t69.5 -75.5t98 -27.5t98.5 27t69.5 75t25 108
t-25 108zM274 564.5q-5 5.5 -5 12.5q0 6 5 14l61 95q12 22 34 22q15 0 24 -8t8 -23q0 -11 -10 -23l-75 -79q-16 -16 -31 -16q-6 0 -11 5.5z" />
    <glyph glyph-name="obreve" unicode="&#x14f;" horiz-adv-x="595" 
d="M518 120q-33 -61 -91 -95.5t-129 -34.5t-129 34.5t-91 95.5t-33 136t33 136t91 96t129 35t129 -35t91 -96t33 -136t-33 -136zM466 364q-25 48 -69.5 75.5t-98.5 27.5t-98 -27.5t-69.5 -75.5t-25.5 -108q0 -59 25.5 -107t69.5 -75.5t98 -27.5t98.5 27t69.5 75t25 108
t-25 108zM202.5 616.5q-37.5 35.5 -42.5 84.5q-2 11 4.5 19.5t17.5 8.5q12 0 19 -6t12 -18q6 -35 27 -55t51 -20q29 0 50 20t28 55q10 24 30 24q11 0 17.5 -8t4.5 -19q-5 -50 -42 -85.5t-88 -35.5t-88.5 35.5z" />
    <glyph glyph-name="uni01D2" unicode="&#x1d2;" horiz-adv-x="595" 
d="M518 120q-33 -61 -91 -95.5t-129 -34.5t-129 34.5t-91 95.5t-33 136t33 136t91 96t129 35t129 -35t91 -96t33 -136t-33 -136zM466 364q-25 48 -69.5 75.5t-98.5 27.5t-98 -27.5t-69.5 -75.5t-25.5 -108q0 -59 25.5 -107t69.5 -75.5t98 -27.5t98.5 27t69.5 75t25 108
t-25 108zM413.5 700q5.5 -5 5.5 -11q0 -7 -9 -18l-72 -78q-11 -16 -33 -16h-16q-22 0 -34 16l-71 78q-8 8 -8 17q0 6 5 11t14 5q10 0 26 -13l78 -63l74 63q16 14 28 14q7 0 12.5 -5z" />
    <glyph glyph-name="ocircumflex" unicode="&#xf4;" horiz-adv-x="595" 
d="M518 120q-33 -61 -91 -95.5t-129 -34.5t-129 34.5t-91 95.5t-33 136t33 136t91 96t129 35t129 -35t91 -96t33 -136t-33 -136zM466 364q-25 48 -69.5 75.5t-98.5 27.5t-98 -27.5t-69.5 -75.5t-25.5 -108q0 -59 25.5 -107t69.5 -75.5t98 -27.5t98.5 27t69.5 75t25 108
t-25 108zM420 599q0 -5 -5 -10t-11 -5q-8 0 -13 3t-14 11l-79 63l-76 -64q-2 -1 -7.5 -5.5t-9.5 -6.5t-9 -2q-7 0 -12 5t-5 11q0 8 8 16l73 80q11 17 33 17h16q12 0 19 -3.5t13 -13.5l72 -79q7 -8 7 -17z" />
    <glyph glyph-name="uni1ED1" unicode="&#x1ed1;" horiz-adv-x="595" 
d="M518 120q-33 -61 -91 -95.5t-129 -34.5t-129 34.5t-91 95.5t-33 136t33 136t91 96t129 35t129 -35t91 -96t33 -136t-33 -136zM466 364q-25 48 -69.5 75.5t-98.5 27.5t-98 -27.5t-69.5 -75.5t-25.5 -108q0 -59 25.5 -107t69.5 -75.5t98 -27.5t98.5 27t69.5 75t25 108
t-25 108zM412 595q0 -5 -5 -10t-11 -5q-8 0 -13 3t-14 11l-79 63l-76 -64q-2 -1 -7.5 -5.5t-9.5 -6.5t-9 -2q-7 0 -12 5t-5 11q0 8 8 16l73 80q11 17 33 17h16q12 0 19 -3.5t13 -13.5l72 -79q7 -8 7 -17zM395 667.5q-5 5.5 -5 12.5q0 6 5 14l61 95q12 22 34 22q15 0 24 -8
t8 -23q0 -11 -10 -23l-75 -79q-16 -16 -31 -16q-6 0 -11 5.5z" />
    <glyph glyph-name="uni1ED9" unicode="&#x1ed9;" horiz-adv-x="595" 
d="M518 120q-33 -61 -91 -95.5t-129 -34.5t-129 34.5t-91 95.5t-33 136t33 136t91 96t129 35t129 -35t91 -96t33 -136t-33 -136zM466 364q-25 48 -69.5 75.5t-98.5 27.5t-98 -27.5t-69.5 -75.5t-25.5 -108q0 -59 25.5 -107t69.5 -75.5t98 -27.5t98.5 27t69.5 75t25 108
t-25 108zM267 -127.5q-11 9.5 -11 26.5v11q0 18 11.5 27.5t30.5 9.5q41 0 41 -37v-11q0 -36 -41 -36q-20 0 -31 9.5zM420 599q0 -5 -5 -10t-11 -5q-8 0 -13 3t-14 11l-79 63l-76 -64q-2 -1 -7.5 -5.5t-9.5 -6.5t-9 -2q-7 0 -12 5t-5 11q0 8 8 16l73 80q11 17 33 17h16
q12 0 19 -3.5t13 -13.5l72 -79q7 -8 7 -17z" />
    </font>
</defs>
</svg>
